  0
SECTION
  2
HEADER
  9
$ACADVER
  1
AC1009
  0
ENDSEC
  0
SECTION
  2
ENTITIES
  0
POLYLINE
  5
90
  8
Layer_2
  62
0
  70
1
  66
1
  10
0
  20
0
  30
0
  0
VERTEX
  5
90
  8
Layer_2
  10
14.314945
  20
12.330394
  0
VERTEX
  5
91
  8
Layer_2
  10
14.313666
  20
12.317693
  0
VERTEX
  5
92
  8
Layer_2
  10
14.309994
  20
12.305864
  0
VERTEX
  5
93
  8
Layer_2
  10
14.304184
  20
12.29516
  0
VERTEX
  5
94
  8
Layer_2
  10
14.296489
  20
12.285834
  0
VERTEX
  5
95
  8
Layer_2
  10
14.287163
  20
12.278138
  0
VERTEX
  5
96
  8
Layer_2
  10
14.276459
  20
12.272328
  0
VERTEX
  5
97
  8
Layer_2
  10
14.26463
  20
12.268657
  0
VERTEX
  5
98
  8
Layer_2
  10
14.251929
  20
12.267376
  0
VERTEX
  5
99
  8
Layer_2
  10
14.239228
  20
12.268657
  0
VERTEX
  5
9a
  8
Layer_2
  10
14.2274
  20
12.272328
  0
VERTEX
  5
9b
  8
Layer_2
  10
14.216696
  20
12.278138
  0
VERTEX
  5
9c
  8
Layer_2
  10
14.20737
  20
12.285834
  0
VERTEX
  5
9d
  8
Layer_2
  10
14.199675
  20
12.29516
  0
VERTEX
  5
9e
  8
Layer_2
  10
14.193864
  20
12.305864
  0
VERTEX
  5
9f
  8
Layer_2
  10
14.190192
  20
12.317693
  0
VERTEX
  5
a0
  8
Layer_2
  10
14.188912
  20
12.330394
  0
VERTEX
  5
a1
  8
Layer_2
  10
14.190192
  20
12.343094
  0
VERTEX
  5
a2
  8
Layer_2
  10
14.193864
  20
12.354922
  0
VERTEX
  5
a3
  8
Layer_2
  10
14.199675
  20
12.365626
  0
VERTEX
  5
a4
  8
Layer_2
  10
14.20737
  20
12.374952
  0
VERTEX
  5
a5
  8
Layer_2
  10
14.216696
  20
12.382648
  0
VERTEX
  5
a6
  8
Layer_2
  10
14.2274
  20
12.388458
  0
VERTEX
  5
a7
  8
Layer_2
  10
14.239228
  20
12.39213
  0
VERTEX
  5
a8
  8
Layer_2
  10
14.251929
  20
12.393411
  0
VERTEX
  5
a9
  8
Layer_2
  10
14.26463
  20
12.39213
  0
VERTEX
  5
aa
  8
Layer_2
  10
14.276459
  20
12.388458
  0
VERTEX
  5
ab
  8
Layer_2
  10
14.287163
  20
12.382648
  0
VERTEX
  5
ac
  8
Layer_2
  10
14.296489
  20
12.374952
  0
VERTEX
  5
ad
  8
Layer_2
  10
14.304184
  20
12.365626
  0
VERTEX
  5
ae
  8
Layer_2
  10
14.309994
  20
12.354922
  0
VERTEX
  5
af
  8
Layer_2
  10
14.313666
  20
12.343094
  0
VERTEX
  5
b0
  8
Layer_2
  10
14.314945
  20
12.330394
  0
SEQEND
  0
POLYLINE
  5
b2
  8
Layer_2
  62
0
  70
1
  66
1
  10
0
  20
0
  30
0
  0
VERTEX
  5
b2
  8
Layer_2
  10
14.314945
  20
15.42683
  0
VERTEX
  5
b3
  8
Layer_2
  10
14.313666
  20
15.41413
  0
VERTEX
  5
b4
  8
Layer_2
  10
14.309994
  20
15.402301
  0
VERTEX
  5
b5
  8
Layer_2
  10
14.304184
  20
15.391597
  0
VERTEX
  5
b6
  8
Layer_2
  10
14.296489
  20
15.38227
  0
VERTEX
  5
b7
  8
Layer_2
  10
14.287163
  20
15.374576
  0
VERTEX
  5
b8
  8
Layer_2
  10
14.276459
  20
15.368766
  0
VERTEX
  5
b9
  8
Layer_2
  10
14.26463
  20
15.365094
  0
VERTEX
  5
ba
  8
Layer_2
  10
14.251929
  20
15.363813
  0
VERTEX
  5
bb
  8
Layer_2
  10
14.239228
  20
15.365094
  0
VERTEX
  5
bc
  8
Layer_2
  10
14.2274
  20
15.368766
  0
VERTEX
  5
bd
  8
Layer_2
  10
14.216696
  20
15.374576
  0
VERTEX
  5
be
  8
Layer_2
  10
14.20737
  20
15.38227
  0
VERTEX
  5
bf
  8
Layer_2
  10
14.199675
  20
15.391597
  0
VERTEX
  5
c0
  8
Layer_2
  10
14.193864
  20
15.402301
  0
VERTEX
  5
c1
  8
Layer_2
  10
14.190192
  20
15.41413
  0
VERTEX
  5
c2
  8
Layer_2
  10
14.188912
  20
15.42683
  0
VERTEX
  5
c3
  8
Layer_2
  10
14.190192
  20
15.43953
  0
VERTEX
  5
c4
  8
Layer_2
  10
14.193864
  20
15.45136
  0
VERTEX
  5
c5
  8
Layer_2
  10
14.199675
  20
15.462064
  0
VERTEX
  5
c6
  8
Layer_2
  10
14.20737
  20
15.47139
  0
VERTEX
  5
c7
  8
Layer_2
  10
14.216696
  20
15.479085
  0
VERTEX
  5
c8
  8
Layer_2
  10
14.2274
  20
15.484896
  0
VERTEX
  5
c9
  8
Layer_2
  10
14.239228
  20
15.488567
  0
VERTEX
  5
ca
  8
Layer_2
  10
14.251929
  20
15.489848
  0
VERTEX
  5
cb
  8
Layer_2
  10
14.26463
  20
15.488567
  0
VERTEX
  5
cc
  8
Layer_2
  10
14.276459
  20
15.484896
  0
VERTEX
  5
cd
  8
Layer_2
  10
14.287163
  20
15.479085
  0
VERTEX
  5
ce
  8
Layer_2
  10
14.296489
  20
15.47139
  0
VERTEX
  5
cf
  8
Layer_2
  10
14.304184
  20
15.462064
  0
VERTEX
  5
d0
  8
Layer_2
  10
14.309994
  20
15.45136
  0
VERTEX
  5
d1
  8
Layer_2
  10
14.313666
  20
15.43953
  0
VERTEX
  5
d2
  8
Layer_2
  10
14.314945
  20
15.42683
  0
SEQEND
  0
POLYLINE
  5
d4
  8
Layer_2
  62
0
  70
1
  66
1
  10
0
  20
0
  30
0
  0
VERTEX
  5
d4
  8
Layer_2
  10
11.997938
  20
9.4859447
  0
VERTEX
  5
d5
  8
Layer_2
  10
11.996658
  20
9.4732447
  0
VERTEX
  5
d6
  8
Layer_2
  10
11.992987
  20
9.4614153
  0
VERTEX
  5
d7
  8
Layer_2
  10
11.987176
  20
9.4507103
  0
VERTEX
  5
d8
  8
Layer_2
  10
11.979481
  20
9.4413853
  0
VERTEX
  5
d9
  8
Layer_2
  10
11.970155
  20
9.4336901
  0
VERTEX
  5
da
  8
Layer_2
  10
11.959451
  20
9.4278793
  0
VERTEX
  5
db
  8
Layer_2
  10
11.947622
  20
9.4242077
  0
VERTEX
  5
dc
  8
Layer_2
  10
11.934921
  20
9.4229279
  0
VERTEX
  5
dd
  8
Layer_2
  10
11.922221
  20
9.4242077
  0
VERTEX
  5
de
  8
Layer_2
  10
11.910392
  20
9.4278793
  0
VERTEX
  5
df
  8
Layer_2
  10
11.899688
  20
9.4336901
  0
VERTEX
  5
e0
  8
Layer_2
  10
11.890363
  20
9.4413853
  0
VERTEX
  5
e1
  8
Layer_2
  10
11.882667
  20
9.4507103
  0
VERTEX
  5
e2
  8
Layer_2
  10
11.876857
  20
9.4614153
  0
VERTEX
  5
e3
  8
Layer_2
  10
11.873185
  20
9.4732447
  0
VERTEX
  5
e4
  8
Layer_2
  10
11.871905
  20
9.4859447
  0
VERTEX
  5
e5
  8
Layer_2
  10
11.873185
  20
9.4986448
  0
VERTEX
  5
e6
  8
Layer_2
  10
11.876857
  20
9.5104742
  0
VERTEX
  5
e7
  8
Layer_2
  10
11.882667
  20
9.5211792
  0
VERTEX
  5
e8
  8
Layer_2
  10
11.890363
  20
9.5305042
  0
VERTEX
  5
e9
  8
Layer_2
  10
11.899688
  20
9.5381994
  0
VERTEX
  5
ea
  8
Layer_2
  10
11.910392
  20
9.5440102
  0
VERTEX
  5
eb
  8
Layer_2
  10
11.922221
  20
9.5476818
  0
VERTEX
  5
ec
  8
Layer_2
  10
11.934921
  20
9.5489616
  0
VERTEX
  5
ed
  8
Layer_2
  10
11.947622
  20
9.5476818
  0
VERTEX
  5
ee
  8
Layer_2
  10
11.959451
  20
9.5440102
  0
VERTEX
  5
ef
  8
Layer_2
  10
11.970155
  20
9.5381994
  0
VERTEX
  5
f0
  8
Layer_2
  10
11.979481
  20
9.5305042
  0
VERTEX
  5
f1
  8
Layer_2
  10
11.987176
  20
9.5211792
  0
VERTEX
  5
f2
  8
Layer_2
  10
11.992987
  20
9.5104742
  0
VERTEX
  5
f3
  8
Layer_2
  10
11.996658
  20
9.4986448
  0
VERTEX
  5
f4
  8
Layer_2
  10
11.997938
  20
9.4859447
  0
SEQEND
  0
POLYLINE
  5
f6
  8
Layer_2
  62
0
  70
1
  66
1
  10
0
  20
0
  30
0
  0
VERTEX
  5
f6
  8
Layer_2
  10
13.210065
  20
10.597835
  0
VERTEX
  5
f7
  8
Layer_2
  10
13.208784
  20
10.585135
  0
VERTEX
  5
f8
  8
Layer_2
  10
13.205112
  20
10.573305
  0
VERTEX
  5
f9
  8
Layer_2
  10
13.199302
  20
10.5626
  0
VERTEX
  5
fa
  8
Layer_2
  10
13.191607
  20
10.553274
  0
VERTEX
  5
fb
  8
Layer_2
  10
13.182281
  20
10.545579
  0
VERTEX
  5
fc
  8
Layer_2
  10
13.171576
  20
10.539769
  0
VERTEX
  5
fd
  8
Layer_2
  10
13.159747
  20
10.536098
  0
VERTEX
  5
fe
  8
Layer_2
  10
13.147047
  20
10.534817
  0
VERTEX
  5
ff
  8
Layer_2
  10
13.134348
  20
10.536098
  0
VERTEX
  5
100
  8
Layer_2
  10
13.122518
  20
10.539769
  0
VERTEX
  5
101
  8
Layer_2
  10
13.111813
  20
10.545579
  0
VERTEX
  5
102
  8
Layer_2
  10
13.102487
  20
10.553274
  0
VERTEX
  5
103
  8
Layer_2
  10
13.094792
  20
10.5626
  0
VERTEX
  5
104
  8
Layer_2
  10
13.088983
  20
10.573305
  0
VERTEX
  5
105
  8
Layer_2
  10
13.085311
  20
10.585135
  0
VERTEX
  5
106
  8
Layer_2
  10
13.08403
  20
10.597835
  0
VERTEX
  5
107
  8
Layer_2
  10
13.085311
  20
10.610535
  0
VERTEX
  5
108
  8
Layer_2
  10
13.088983
  20
10.622363
  0
VERTEX
  5
109
  8
Layer_2
  10
13.094792
  20
10.633067
  0
VERTEX
  5
10a
  8
Layer_2
  10
13.102487
  20
10.642394
  0
VERTEX
  5
10b
  8
Layer_2
  10
13.111813
  20
10.650089
  0
VERTEX
  5
10c
  8
Layer_2
  10
13.122518
  20
10.6559
  0
VERTEX
  5
10d
  8
Layer_2
  10
13.134348
  20
10.659572
  0
VERTEX
  5
10e
  8
Layer_2
  10
13.147047
  20
10.660851
  0
VERTEX
  5
10f
  8
Layer_2
  10
13.159747
  20
10.659572
  0
VERTEX
  5
110
  8
Layer_2
  10
13.171576
  20
10.6559
  0
VERTEX
  5
111
  8
Layer_2
  10
13.182281
  20
10.650089
  0
VERTEX
  5
112
  8
Layer_2
  10
13.191607
  20
10.642394
  0
VERTEX
  5
113
  8
Layer_2
  10
13.199302
  20
10.633067
  0
VERTEX
  5
114
  8
Layer_2
  10
13.205112
  20
10.622363
  0
VERTEX
  5
115
  8
Layer_2
  10
13.208784
  20
10.610535
  0
VERTEX
  5
116
  8
Layer_2
  10
13.210065
  20
10.597835
  0
SEQEND
  0
POLYLINE
  5
118
  8
Layer_2
  62
0
  70
1
  66
1
  10
0
  20
0
  30
0
  0
VERTEX
  5
118
  8
Layer_2
  10
11.806571
  20
11.70748
  0
VERTEX
  5
119
  8
Layer_2
  10
11.805595
  20
11.688151
  0
VERTEX
  5
11a
  8
Layer_2
  10
11.802732
  20
11.669379
  0
VERTEX
  5
11b
  8
Layer_2
  10
11.798072
  20
11.651262
  0
VERTEX
  5
11c
  8
Layer_2
  10
11.791716
  20
11.633893
  0
VERTEX
  5
11d
  8
Layer_2
  10
11.783755
  20
11.617367
  0
VERTEX
  5
11e
  8
Layer_2
  10
11.774285
  20
11.60178
  0
VERTEX
  5
11f
  8
Layer_2
  10
11.763402
  20
11.587227
  0
VERTEX
  5
120
  8
Layer_2
  10
11.7512
  20
11.573801
  0
VERTEX
  5
121
  8
Layer_2
  10
11.737775
  20
11.561599
  0
VERTEX
  5
122
  8
Layer_2
  10
11.723221
  20
11.550716
  0
VERTEX
  5
123
  8
Layer_2
  10
11.707634
  20
11.541246
  0
VERTEX
  5
124
  8
Layer_2
  10
11.691108
  20
11.533285
  0
VERTEX
  5
125
  8
Layer_2
  10
11.673738
  20
11.526928
  0
VERTEX
  5
126
  8
Layer_2
  10
11.655621
  20
11.52227
  0
VERTEX
  5
127
  8
Layer_2
  10
11.63685
  20
11.519405
  0
VERTEX
  5
128
  8
Layer_2
  10
11.61752
  20
11.518429
  0
VERTEX
  5
129
  8
Layer_2
  10
11.598191
  20
11.519405
  0
VERTEX
  5
12a
  8
Layer_2
  10
11.579419
  20
11.52227
  0
VERTEX
  5
12b
  8
Layer_2
  10
11.561302
  20
11.526928
  0
VERTEX
  5
12c
  8
Layer_2
  10
11.543933
  20
11.533285
  0
VERTEX
  5
12d
  8
Layer_2
  10
11.527406
  20
11.541246
  0
VERTEX
  5
12e
  8
Layer_2
  10
11.51182
  20
11.550716
  0
VERTEX
  5
12f
  8
Layer_2
  10
11.497265
  20
11.561599
  0
VERTEX
  5
130
  8
Layer_2
  10
11.483841
  20
11.573801
  0
VERTEX
  5
131
  8
Layer_2
  10
11.471639
  20
11.587227
  0
VERTEX
  5
132
  8
Layer_2
  10
11.460755
  20
11.60178
  0
VERTEX
  5
133
  8
Layer_2
  10
11.451286
  20
11.617367
  0
VERTEX
  5
134
  8
Layer_2
  10
11.443325
  20
11.633893
  0
VERTEX
  5
135
  8
Layer_2
  10
11.436967
  20
11.651262
  0
VERTEX
  5
136
  8
Layer_2
  10
11.432309
  20
11.669379
  0
VERTEX
  5
137
  8
Layer_2
  10
11.429444
  20
11.688151
  0
VERTEX
  5
138
  8
Layer_2
  10
11.428468
  20
11.70748
  0
VERTEX
  5
139
  8
Layer_2
  10
11.429444
  20
11.72681
  0
VERTEX
  5
13a
  8
Layer_2
  10
11.432309
  20
11.745582
  0
VERTEX
  5
13b
  8
Layer_2
  10
11.436967
  20
11.763699
  0
VERTEX
  5
13c
  8
Layer_2
  10
11.443325
  20
11.781067
  0
VERTEX
  5
13d
  8
Layer_2
  10
11.451286
  20
11.797594
  0
VERTEX
  5
13e
  8
Layer_2
  10
11.460755
  20
11.813181
  0
VERTEX
  5
13f
  8
Layer_2
  10
11.471639
  20
11.827734
  0
VERTEX
  5
140
  8
Layer_2
  10
11.483841
  20
11.841159
  0
VERTEX
  5
141
  8
Layer_2
  10
11.497265
  20
11.853361
  0
VERTEX
  5
142
  8
Layer_2
  10
11.51182
  20
11.864244
  0
VERTEX
  5
143
  8
Layer_2
  10
11.527406
  20
11.873714
  0
VERTEX
  5
144
  8
Layer_2
  10
11.543933
  20
11.881676
  0
VERTEX
  5
145
  8
Layer_2
  10
11.561302
  20
11.888033
  0
VERTEX
  5
146
  8
Layer_2
  10
11.579419
  20
11.892691
  0
VERTEX
  5
147
  8
Layer_2
  10
11.598191
  20
11.895555
  0
VERTEX
  5
148
  8
Layer_2
  10
11.61752
  20
11.896532
  0
VERTEX
  5
149
  8
Layer_2
  10
11.63685
  20
11.895555
  0
VERTEX
  5
14a
  8
Layer_2
  10
11.655621
  20
11.892691
  0
VERTEX
  5
14b
  8
Layer_2
  10
11.673738
  20
11.888033
  0
VERTEX
  5
14c
  8
Layer_2
  10
11.691108
  20
11.881676
  0
VERTEX
  5
14d
  8
Layer_2
  10
11.707634
  20
11.873714
  0
VERTEX
  5
14e
  8
Layer_2
  10
11.723221
  20
11.864244
  0
VERTEX
  5
14f
  8
Layer_2
  10
11.737775
  20
11.853361
  0
VERTEX
  5
150
  8
Layer_2
  10
11.7512
  20
11.841159
  0
VERTEX
  5
151
  8
Layer_2
  10
11.763402
  20
11.827734
  0
VERTEX
  5
152
  8
Layer_2
  10
11.774285
  20
11.813181
  0
VERTEX
  5
153
  8
Layer_2
  10
11.783755
  20
11.797594
  0
VERTEX
  5
154
  8
Layer_2
  10
11.791716
  20
11.781067
  0
VERTEX
  5
155
  8
Layer_2
  10
11.798072
  20
11.763699
  0
VERTEX
  5
156
  8
Layer_2
  10
11.802732
  20
11.745582
  0
VERTEX
  5
157
  8
Layer_2
  10
11.805595
  20
11.72681
  0
VERTEX
  5
158
  8
Layer_2
  10
11.806571
  20
11.70748
  0
SEQEND
  0
POLYLINE
  5
15a
  8
Layer_2
  62
0
  70
1
  66
1
  10
0
  20
0
  30
0
  0
VERTEX
  5
15a
  8
Layer_2
  10
10.982517
  20
10.153031
  0
VERTEX
  5
15b
  8
Layer_2
  10
10.981541
  20
10.1337
  0
VERTEX
  5
15c
  8
Layer_2
  10
10.978676
  20
10.114931
  0
VERTEX
  5
15d
  8
Layer_2
  10
10.974018
  20
10.096813
  0
VERTEX
  5
15e
  8
Layer_2
  10
10.96766
  20
10.079444
  0
VERTEX
  5
15f
  8
Layer_2
  10
10.959699
  20
10.062918
  0
VERTEX
  5
160
  8
Layer_2
  10
10.95023
  20
10.047331
  0
VERTEX
  5
161
  8
Layer_2
  10
10.939347
  20
10.032777
  0
VERTEX
  5
162
  8
Layer_2
  10
10.927145
  20
10.019352
  0
VERTEX
  5
163
  8
Layer_2
  10
10.91372
  20
10.00715
  0
VERTEX
  5
164
  8
Layer_2
  10
10.899166
  20
9.9962664
  0
VERTEX
  5
165
  8
Layer_2
  10
10.883579
  20
9.9867973
  0
VERTEX
  5
166
  8
Layer_2
  10
10.867053
  20
9.9788361
  0
VERTEX
  5
167
  8
Layer_2
  10
10.849683
  20
9.9724789
  0
VERTEX
  5
168
  8
Layer_2
  10
10.831566
  20
9.9678211
  0
VERTEX
  5
169
  8
Layer_2
  10
10.812794
  20
9.9649563
  0
VERTEX
  5
16a
  8
Layer_2
  10
10.793465
  20
9.9639797
  0
VERTEX
  5
16b
  8
Layer_2
  10
10.774135
  20
9.9649563
  0
VERTEX
  5
16c
  8
Layer_2
  10
10.755364
  20
9.9678211
  0
VERTEX
  5
16d
  8
Layer_2
  10
10.737247
  20
9.9724789
  0
VERTEX
  5
16e
  8
Layer_2
  10
10.719877
  20
9.9788361
  0
VERTEX
  5
16f
  8
Layer_2
  10
10.703351
  20
9.9867973
  0
VERTEX
  5
170
  8
Layer_2
  10
10.687764
  20
9.9962664
  0
VERTEX
  5
171
  8
Layer_2
  10
10.673211
  20
10.00715
  0
VERTEX
  5
172
  8
Layer_2
  10
10.659785
  20
10.019352
  0
VERTEX
  5
173
  8
Layer_2
  10
10.647583
  20
10.032777
  0
VERTEX
  5
174
  8
Layer_2
  10
10.636701
  20
10.047331
  0
VERTEX
  5
175
  8
Layer_2
  10
10.62723
  20
10.062918
  0
VERTEX
  5
176
  8
Layer_2
  10
10.619269
  20
10.079444
  0
VERTEX
  5
177
  8
Layer_2
  10
10.612913
  20
10.096813
  0
VERTEX
  5
178
  8
Layer_2
  10
10.608253
  20
10.114931
  0
VERTEX
  5
179
  8
Layer_2
  10
10.60539
  20
10.1337
  0
VERTEX
  5
17a
  8
Layer_2
  10
10.604414
  20
10.153031
  0
VERTEX
  5
17b
  8
Layer_2
  10
10.60539
  20
10.172362
  0
VERTEX
  5
17c
  8
Layer_2
  10
10.608253
  20
10.191132
  0
VERTEX
  5
17d
  8
Layer_2
  10
10.612913
  20
10.209249
  0
VERTEX
  5
17e
  8
Layer_2
  10
10.619269
  20
10.226619
  0
VERTEX
  5
17f
  8
Layer_2
  10
10.62723
  20
10.243145
  0
VERTEX
  5
180
  8
Layer_2
  10
10.636701
  20
10.258732
  0
VERTEX
  5
181
  8
Layer_2
  10
10.647583
  20
10.273286
  0
VERTEX
  5
182
  8
Layer_2
  10
10.659785
  20
10.286712
  0
VERTEX
  5
183
  8
Layer_2
  10
10.673211
  20
10.298913
  0
VERTEX
  5
184
  8
Layer_2
  10
10.687764
  20
10.309797
  0
VERTEX
  5
185
  8
Layer_2
  10
10.703351
  20
10.319265
  0
VERTEX
  5
186
  8
Layer_2
  10
10.719877
  20
10.327227
  0
VERTEX
  5
187
  8
Layer_2
  10
10.737247
  20
10.333584
  0
VERTEX
  5
188
  8
Layer_2
  10
10.755364
  20
10.338242
  0
VERTEX
  5
189
  8
Layer_2
  10
10.774135
  20
10.341107
  0
VERTEX
  5
18a
  8
Layer_2
  10
10.793465
  20
10.342083
  0
VERTEX
  5
18b
  8
Layer_2
  10
10.812794
  20
10.341107
  0
VERTEX
  5
18c
  8
Layer_2
  10
10.831566
  20
10.338242
  0
VERTEX
  5
18d
  8
Layer_2
  10
10.849683
  20
10.333584
  0
VERTEX
  5
18e
  8
Layer_2
  10
10.867053
  20
10.327227
  0
VERTEX
  5
18f
  8
Layer_2
  10
10.883579
  20
10.319265
  0
VERTEX
  5
190
  8
Layer_2
  10
10.899166
  20
10.309797
  0
VERTEX
  5
191
  8
Layer_2
  10
10.91372
  20
10.298913
  0
VERTEX
  5
192
  8
Layer_2
  10
10.927145
  20
10.286712
  0
VERTEX
  5
193
  8
Layer_2
  10
10.939347
  20
10.273286
  0
VERTEX
  5
194
  8
Layer_2
  10
10.95023
  20
10.258732
  0
VERTEX
  5
195
  8
Layer_2
  10
10.959699
  20
10.243145
  0
VERTEX
  5
196
  8
Layer_2
  10
10.96766
  20
10.226619
  0
VERTEX
  5
197
  8
Layer_2
  10
10.974018
  20
10.209249
  0
VERTEX
  5
198
  8
Layer_2
  10
10.978676
  20
10.191132
  0
VERTEX
  5
199
  8
Layer_2
  10
10.981541
  20
10.172362
  0
VERTEX
  5
19a
  8
Layer_2
  10
10.982517
  20
10.153031
  0
SEQEND
  0
POLYLINE
  5
19c
  8
Layer_2
  62
0
  70
1
  66
1
  10
0
  20
0
  30
0
  0
VERTEX
  5
19c
  8
Layer_2
  10
9.8284616
  20
8.8214169
  0
VERTEX
  5
19d
  8
Layer_2
  10
9.8274841
  20
8.8020868
  0
VERTEX
  5
19e
  8
Layer_2
  10
9.8246202
  20
8.7833166
  0
VERTEX
  5
19f
  8
Layer_2
  10
9.8199606
  20
8.7651987
  0
VERTEX
  5
1a0
  8
Layer_2
  10
9.8136053
  20
8.7478304
  0
VERTEX
  5
1a1
  8
Layer_2
  10
9.805644
  20
8.7313042
  0
VERTEX
  5
1a2
  8
Layer_2
  10
9.796174
  20
8.7157173
  0
VERTEX
  5
1a3
  8
Layer_2
  10
9.7852907
  20
8.7011633
  0
VERTEX
  5
1a4
  8
Layer_2
  10
9.7730885
  20
8.6877375
  0
VERTEX
  5
1a5
  8
Layer_2
  10
9.7596636
  20
8.6755362
  0
VERTEX
  5
1a6
  8
Layer_2
  10
9.7451096
  20
8.6646528
  0
VERTEX
  5
1a7
  8
Layer_2
  10
9.7295227
  20
8.6551828
  0
VERTEX
  5
1a8
  8
Layer_2
  10
9.7129965
  20
8.6472216
  0
VERTEX
  5
1a9
  8
Layer_2
  10
9.6956272
  20
8.6408653
  0
VERTEX
  5
1aa
  8
Layer_2
  10
9.6775103
  20
8.6362066
  0
VERTEX
  5
1ab
  8
Layer_2
  10
9.6587391
  20
8.6333418
  0
VERTEX
  5
1ac
  8
Layer_2
  10
9.63941
  20
8.6323652
  0
VERTEX
  5
1ad
  8
Layer_2
  10
9.62008
  20
8.6333418
  0
VERTEX
  5
1ae
  8
Layer_2
  10
9.6013098
  20
8.6362066
  0
VERTEX
  5
1af
  8
Layer_2
  10
9.5831928
  20
8.6408653
  0
VERTEX
  5
1b0
  8
Layer_2
  10
9.5658226
  20
8.6472216
  0
VERTEX
  5
1b1
  8
Layer_2
  10
9.5492964
  20
8.6551828
  0
VERTEX
  5
1b2
  8
Layer_2
  10
9.5337095
  20
8.6646528
  0
VERTEX
  5
1b3
  8
Layer_2
  10
9.5191565
  20
8.6755362
  0
VERTEX
  5
1b4
  8
Layer_2
  10
9.5057306
  20
8.6877375
  0
VERTEX
  5
1b5
  8
Layer_2
  10
9.4935284
  20
8.7011633
  0
VERTEX
  5
1b6
  8
Layer_2
  10
9.482645
  20
8.7157173
  0
VERTEX
  5
1b7
  8
Layer_2
  10
9.473175
  20
8.7313042
  0
VERTEX
  5
1b8
  8
Layer_2
  10
9.4652147
  20
8.7478304
  0
VERTEX
  5
1b9
  8
Layer_2
  10
9.4588585
  20
8.7651987
  0
VERTEX
  5
1ba
  8
Layer_2
  10
9.4541988
  20
8.7833166
  0
VERTEX
  5
1bb
  8
Layer_2
  10
9.451335
  20
8.8020868
  0
VERTEX
  5
1bc
  8
Layer_2
  10
9.4503584
  20
8.8214169
  0
VERTEX
  5
1bd
  8
Layer_2
  10
9.451335
  20
8.8407469
  0
VERTEX
  5
1be
  8
Layer_2
  10
9.4541988
  20
8.8595181
  0
VERTEX
  5
1bf
  8
Layer_2
  10
9.4588585
  20
8.877636
  0
VERTEX
  5
1c0
  8
Layer_2
  10
9.4652147
  20
8.8950043
  0
VERTEX
  5
1c1
  8
Layer_2
  10
9.473175
  20
8.9115305
  0
VERTEX
  5
1c2
  8
Layer_2
  10
9.482645
  20
8.9271173
  0
VERTEX
  5
1c3
  8
Layer_2
  10
9.4935284
  20
8.9416714
  0
VERTEX
  5
1c4
  8
Layer_2
  10
9.5057306
  20
8.9550972
  0
VERTEX
  5
1c5
  8
Layer_2
  10
9.5191565
  20
8.9672985
  0
VERTEX
  5
1c6
  8
Layer_2
  10
9.5337095
  20
8.9781818
  0
VERTEX
  5
1c7
  8
Layer_2
  10
9.5492964
  20
8.9876518
  0
VERTEX
  5
1c8
  8
Layer_2
  10
9.5658226
  20
8.9956121
  0
VERTEX
  5
1c9
  8
Layer_2
  10
9.5831928
  20
9.0019693
  0
VERTEX
  5
1ca
  8
Layer_2
  10
9.6013098
  20
9.006628
  0
VERTEX
  5
1cb
  8
Layer_2
  10
9.62008
  20
9.0094929
  0
VERTEX
  5
1cc
  8
Layer_2
  10
9.63941
  20
9.0104685
  0
VERTEX
  5
1cd
  8
Layer_2
  10
9.6587391
  20
9.0094929
  0
VERTEX
  5
1ce
  8
Layer_2
  10
9.6775103
  20
9.006628
  0
VERTEX
  5
1cf
  8
Layer_2
  10
9.6956272
  20
9.0019693
  0
VERTEX
  5
1d0
  8
Layer_2
  10
9.7129965
  20
8.9956121
  0
VERTEX
  5
1d1
  8
Layer_2
  10
9.7295227
  20
8.9876518
  0
VERTEX
  5
1d2
  8
Layer_2
  10
9.7451096
  20
8.9781818
  0
VERTEX
  5
1d3
  8
Layer_2
  10
9.7596636
  20
8.9672985
  0
VERTEX
  5
1d4
  8
Layer_2
  10
9.7730885
  20
8.9550972
  0
VERTEX
  5
1d5
  8
Layer_2
  10
9.7852907
  20
8.9416714
  0
VERTEX
  5
1d6
  8
Layer_2
  10
9.796174
  20
8.9271173
  0
VERTEX
  5
1d7
  8
Layer_2
  10
9.805644
  20
8.9115305
  0
VERTEX
  5
1d8
  8
Layer_2
  10
9.8136053
  20
8.8950043
  0
VERTEX
  5
1d9
  8
Layer_2
  10
9.8199606
  20
8.877636
  0
VERTEX
  5
1da
  8
Layer_2
  10
9.8246202
  20
8.8595181
  0
VERTEX
  5
1db
  8
Layer_2
  10
9.8274841
  20
8.8407469
  0
VERTEX
  5
1dc
  8
Layer_2
  10
9.8284616
  20
8.8214169
  0
SEQEND
  0
POLYLINE
  5
1de
  8
Layer_2
  62
0
  70
1
  66
1
  10
0
  20
0
  30
0
  0
VERTEX
  5
1de
  8
Layer_2
  10
14.314792
  20
12.330354
  0
VERTEX
  5
1df
  8
Layer_2
  10
14.313515
  20
12.317685
  0
VERTEX
  5
1e0
  8
Layer_2
  10
14.309852
  20
12.305884
  0
VERTEX
  5
1e1
  8
Layer_2
  10
14.304055
  20
12.295207
  0
VERTEX
  5
1e2
  8
Layer_2
  10
14.29638
  20
12.285904
  0
VERTEX
  5
1e3
  8
Layer_2
  10
14.287076
  20
12.278228
  0
VERTEX
  5
1e4
  8
Layer_2
  10
14.276397
  20
12.272431
  0
VERTEX
  5
1e5
  8
Layer_2
  10
14.264599
  20
12.268768
  0
VERTEX
  5
1e6
  8
Layer_2
  10
14.251929
  20
12.267491
  0
VERTEX
  5
1e7
  8
Layer_2
  10
14.23926
  20
12.268768
  0
VERTEX
  5
1e8
  8
Layer_2
  10
14.227461
  20
12.272431
  0
VERTEX
  5
1e9
  8
Layer_2
  10
14.216783
  20
12.278228
  0
VERTEX
  5
1ea
  8
Layer_2
  10
14.207478
  20
12.285904
  0
VERTEX
  5
1eb
  8
Layer_2
  10
14.199803
  20
12.295207
  0
VERTEX
  5
1ec
  8
Layer_2
  10
14.194007
  20
12.305884
  0
VERTEX
  5
1ed
  8
Layer_2
  10
14.190344
  20
12.317685
  0
VERTEX
  5
1ee
  8
Layer_2
  10
14.189067
  20
12.330354
  0
VERTEX
  5
1ef
  8
Layer_2
  10
14.190344
  20
12.343023
  0
VERTEX
  5
1f0
  8
Layer_2
  10
14.194007
  20
12.354823
  0
VERTEX
  5
1f1
  8
Layer_2
  10
14.199803
  20
12.365501
  0
VERTEX
  5
1f2
  8
Layer_2
  10
14.207478
  20
12.374804
  0
VERTEX
  5
1f3
  8
Layer_2
  10
14.216783
  20
12.382481
  0
VERTEX
  5
1f4
  8
Layer_2
  10
14.227461
  20
12.388277
  0
VERTEX
  5
1f5
  8
Layer_2
  10
14.23926
  20
12.391939
  0
VERTEX
  5
1f6
  8
Layer_2
  10
14.251929
  20
12.393216
  0
VERTEX
  5
1f7
  8
Layer_2
  10
14.264599
  20
12.391939
  0
VERTEX
  5
1f8
  8
Layer_2
  10
14.276397
  20
12.388277
  0
VERTEX
  5
1f9
  8
Layer_2
  10
14.287076
  20
12.382481
  0
VERTEX
  5
1fa
  8
Layer_2
  10
14.29638
  20
12.374804
  0
VERTEX
  5
1fb
  8
Layer_2
  10
14.304055
  20
12.365501
  0
VERTEX
  5
1fc
  8
Layer_2
  10
14.309852
  20
12.354823
  0
VERTEX
  5
1fd
  8
Layer_2
  10
14.313515
  20
12.343023
  0
VERTEX
  5
1fe
  8
Layer_2
  10
14.314792
  20
12.330354
  0
SEQEND
  0
POLYLINE
  5
200
  8
Layer_2
  62
0
  70
1
  66
1
  10
0
  20
0
  30
0
  0
VERTEX
  5
200
  8
Layer_2
  10
10.600001
  20
12.193244
  0
VERTEX
  5
201
  8
Layer_2
  10
10.598722
  20
12.180557
  0
VERTEX
  5
202
  8
Layer_2
  10
10.595055
  20
12.168739
  0
VERTEX
  5
203
  8
Layer_2
  10
10.589249
  20
12.158046
  0
VERTEX
  5
204
  8
Layer_2
  10
10.581562
  20
12.148728
  0
VERTEX
  5
205
  8
Layer_2
  10
10.572245
  20
12.14104
  0
VERTEX
  5
206
  8
Layer_2
  10
10.561551
  20
12.135236
  0
VERTEX
  5
207
  8
Layer_2
  10
10.549733
  20
12.131568
  0
VERTEX
  5
208
  8
Layer_2
  10
10.537045
  20
12.130288
  0
VERTEX
  5
209
  8
Layer_2
  10
10.524358
  20
12.131568
  0
VERTEX
  5
20a
  8
Layer_2
  10
10.512541
  20
12.135236
  0
VERTEX
  5
20b
  8
Layer_2
  10
10.501847
  20
12.14104
  0
VERTEX
  5
20c
  8
Layer_2
  10
10.49253
  20
12.148728
  0
VERTEX
  5
20d
  8
Layer_2
  10
10.484842
  20
12.158046
  0
VERTEX
  5
20e
  8
Layer_2
  10
10.479037
  20
12.168739
  0
VERTEX
  5
20f
  8
Layer_2
  10
10.47537
  20
12.180557
  0
VERTEX
  5
210
  8
Layer_2
  10
10.474091
  20
12.193244
  0
VERTEX
  5
211
  8
Layer_2
  10
10.47537
  20
12.205932
  0
VERTEX
  5
212
  8
Layer_2
  10
10.479037
  20
12.217749
  0
VERTEX
  5
213
  8
Layer_2
  10
10.484842
  20
12.228443
  0
VERTEX
  5
214
  8
Layer_2
  10
10.49253
  20
12.237761
  0
VERTEX
  5
215
  8
Layer_2
  10
10.501847
  20
12.245447
  0
VERTEX
  5
216
  8
Layer_2
  10
10.512541
  20
12.251252
  0
VERTEX
  5
217
  8
Layer_2
  10
10.524358
  20
12.25492
  0
VERTEX
  5
218
  8
Layer_2
  10
10.537045
  20
12.2562
  0
VERTEX
  5
219
  8
Layer_2
  10
10.549733
  20
12.25492
  0
VERTEX
  5
21a
  8
Layer_2
  10
10.561551
  20
12.251252
  0
VERTEX
  5
21b
  8
Layer_2
  10
10.572245
  20
12.245447
  0
VERTEX
  5
21c
  8
Layer_2
  10
10.581562
  20
12.237761
  0
VERTEX
  5
21d
  8
Layer_2
  10
10.589249
  20
12.228443
  0
VERTEX
  5
21e
  8
Layer_2
  10
10.595055
  20
12.217749
  0
VERTEX
  5
21f
  8
Layer_2
  10
10.598722
  20
12.205932
  0
VERTEX
  5
220
  8
Layer_2
  10
10.600001
  20
12.193244
  0
SEQEND
  0
POLYLINE
  5
222
  8
Layer_2
  62
0
  70
1
  66
1
  10
0
  20
0
  30
0
  0
VERTEX
  5
222
  8
Layer_2
  10
8.9554558
  20
8.5770445
  0
VERTEX
  5
223
  8
Layer_2
  10
8.9541769
  20
8.5643568
  0
VERTEX
  5
224
  8
Layer_2
  10
8.9505081
  20
8.5525398
  0
VERTEX
  5
225
  8
Layer_2
  10
8.9447031
  20
8.5418463
  0
VERTEX
  5
226
  8
Layer_2
  10
8.9370165
  20
8.5325289
  0
VERTEX
  5
227
  8
Layer_2
  10
8.9276991
  20
8.5248413
  0
VERTEX
  5
228
  8
Layer_2
  10
8.9170055
  20
8.5190363
  0
VERTEX
  5
229
  8
Layer_2
  10
8.9051895
  20
8.5153685
  0
VERTEX
  5
22a
  8
Layer_2
  10
8.8925009
  20
8.5140896
  0
VERTEX
  5
22b
  8
Layer_2
  10
8.8798113
  20
8.5153685
  0
VERTEX
  5
22c
  8
Layer_2
  10
8.8679953
  20
8.5190363
  0
VERTEX
  5
22d
  8
Layer_2
  10
8.8573017
  20
8.5248413
  0
VERTEX
  5
22e
  8
Layer_2
  10
8.8479843
  20
8.5325289
  0
VERTEX
  5
22f
  8
Layer_2
  10
8.8402977
  20
8.5418463
  0
VERTEX
  5
230
  8
Layer_2
  10
8.8344927
  20
8.5525398
  0
VERTEX
  5
231
  8
Layer_2
  10
8.8308239
  20
8.5643568
  0
VERTEX
  5
232
  8
Layer_2
  10
8.829545
  20
8.5770445
  0
VERTEX
  5
233
  8
Layer_2
  10
8.8308239
  20
8.5897322
  0
VERTEX
  5
234
  8
Layer_2
  10
8.8344927
  20
8.6015501
  0
VERTEX
  5
235
  8
Layer_2
  10
8.8402977
  20
8.6122437
  0
VERTEX
  5
236
  8
Layer_2
  10
8.8479843
  20
8.6215611
  0
VERTEX
  5
237
  8
Layer_2
  10
8.8573017
  20
8.6292486
  0
VERTEX
  5
238
  8
Layer_2
  10
8.8679953
  20
8.6350527
  0
VERTEX
  5
239
  8
Layer_2
  10
8.8798113
  20
8.6387205
  0
VERTEX
  5
23a
  8
Layer_2
  10
8.8925009
  20
8.6400003
  0
VERTEX
  5
23b
  8
Layer_2
  10
8.9051895
  20
8.6387205
  0
VERTEX
  5
23c
  8
Layer_2
  10
8.9170055
  20
8.6350527
  0
VERTEX
  5
23d
  8
Layer_2
  10
8.9276991
  20
8.6292486
  0
VERTEX
  5
23e
  8
Layer_2
  10
8.9370165
  20
8.6215611
  0
VERTEX
  5
23f
  8
Layer_2
  10
8.9447031
  20
8.6122437
  0
VERTEX
  5
240
  8
Layer_2
  10
8.9505081
  20
8.6015501
  0
VERTEX
  5
241
  8
Layer_2
  10
8.9541769
  20
8.5897322
  0
VERTEX
  5
242
  8
Layer_2
  10
8.9554558
  20
8.5770445
  0
SEQEND
  0
POLYLINE
  5
244
  8
Layer_2
  62
0
  70
1
  66
1
  10
0
  20
0
  30
0
  0
VERTEX
  5
244
  8
Layer_2
  10
11.262955
  20
8.9814444
  0
VERTEX
  5
245
  8
Layer_2
  10
11.261676
  20
8.9687567
  0
VERTEX
  5
246
  8
Layer_2
  10
11.258008
  20
8.9569397
  0
VERTEX
  5
247
  8
Layer_2
  10
11.252204
  20
8.9462461
  0
VERTEX
  5
248
  8
Layer_2
  10
11.244516
  20
8.9369287
  0
VERTEX
  5
249
  8
Layer_2
  10
11.235199
  20
8.9292412
  0
VERTEX
  5
24a
  8
Layer_2
  10
11.224504
  20
8.9234371
  0
VERTEX
  5
24b
  8
Layer_2
  10
11.212687
  20
8.9197683
  0
VERTEX
  5
24c
  8
Layer_2
  10
11.2
  20
8.9184895
  0
VERTEX
  5
24d
  8
Layer_2
  10
11.187312
  20
8.9197683
  0
VERTEX
  5
24e
  8
Layer_2
  10
11.175494
  20
8.9234371
  0
VERTEX
  5
24f
  8
Layer_2
  10
11.164801
  20
8.9292412
  0
VERTEX
  5
250
  8
Layer_2
  10
11.155483
  20
8.9369287
  0
VERTEX
  5
251
  8
Layer_2
  10
11.147797
  20
8.9462461
  0
VERTEX
  5
252
  8
Layer_2
  10
11.141992
  20
8.9569397
  0
VERTEX
  5
253
  8
Layer_2
  10
11.138324
  20
8.9687567
  0
VERTEX
  5
254
  8
Layer_2
  10
11.137044
  20
8.9814444
  0
VERTEX
  5
255
  8
Layer_2
  10
11.138324
  20
8.994132
  0
VERTEX
  5
256
  8
Layer_2
  10
11.141992
  20
9.00595
  0
VERTEX
  5
257
  8
Layer_2
  10
11.147797
  20
9.0166435
  0
VERTEX
  5
258
  8
Layer_2
  10
11.155483
  20
9.0259609
  0
VERTEX
  5
259
  8
Layer_2
  10
11.164801
  20
9.0336485
  0
VERTEX
  5
25a
  8
Layer_2
  10
11.175494
  20
9.0394526
  0
VERTEX
  5
25b
  8
Layer_2
  10
11.187312
  20
9.0431213
  0
VERTEX
  5
25c
  8
Layer_2
  10
11.2
  20
9.0444002
  0
VERTEX
  5
25d
  8
Layer_2
  10
11.212687
  20
9.0431213
  0
VERTEX
  5
25e
  8
Layer_2
  10
11.224504
  20
9.0394526
  0
VERTEX
  5
25f
  8
Layer_2
  10
11.235199
  20
9.0336485
  0
VERTEX
  5
260
  8
Layer_2
  10
11.244516
  20
9.0259609
  0
VERTEX
  5
261
  8
Layer_2
  10
11.252204
  20
9.0166435
  0
VERTEX
  5
262
  8
Layer_2
  10
11.258008
  20
9.00595
  0
VERTEX
  5
263
  8
Layer_2
  10
11.261676
  20
8.994132
  0
VERTEX
  5
264
  8
Layer_2
  10
11.262955
  20
8.9814444
  0
SEQEND
  0
POLYLINE
  5
266
  8
Layer_2
  62
0
  70
1
  66
1
  10
0
  20
0
  30
0
  0
VERTEX
  5
266
  8
Layer_2
  10
14.132955
  20
10.099999
  0
VERTEX
  5
267
  8
Layer_2
  10
14.131677
  20
10.087312
  0
VERTEX
  5
268
  8
Layer_2
  10
14.128009
  20
10.075495
  0
VERTEX
  5
269
  8
Layer_2
  10
14.122204
  20
10.064801
  0
VERTEX
  5
26a
  8
Layer_2
  10
14.114517
  20
10.055483
  0
VERTEX
  5
26b
  8
Layer_2
  10
14.1052
  20
10.047796
  0
VERTEX
  5
26c
  8
Layer_2
  10
14.094505
  20
10.041992
  0
VERTEX
  5
26d
  8
Layer_2
  10
14.082687
  20
10.038323
  0
VERTEX
  5
26e
  8
Layer_2
  10
14.07
  20
10.037045
  0
VERTEX
  5
26f
  8
Layer_2
  10
14.057312
  20
10.038323
  0
VERTEX
  5
270
  8
Layer_2
  10
14.045494
  20
10.041992
  0
VERTEX
  5
271
  8
Layer_2
  10
14.034801
  20
10.047796
  0
VERTEX
  5
272
  8
Layer_2
  10
14.025484
  20
10.055483
  0
VERTEX
  5
273
  8
Layer_2
  10
14.017797
  20
10.064801
  0
VERTEX
  5
274
  8
Layer_2
  10
14.011992
  20
10.075495
  0
VERTEX
  5
275
  8
Layer_2
  10
14.008325
  20
10.087312
  0
VERTEX
  5
276
  8
Layer_2
  10
14.007045
  20
10.099999
  0
VERTEX
  5
277
  8
Layer_2
  10
14.008325
  20
10.112687
  0
VERTEX
  5
278
  8
Layer_2
  10
14.011992
  20
10.124505
  0
VERTEX
  5
279
  8
Layer_2
  10
14.017797
  20
10.135199
  0
VERTEX
  5
27a
  8
Layer_2
  10
14.025484
  20
10.144517
  0
VERTEX
  5
27b
  8
Layer_2
  10
14.034801
  20
10.152204
  0
VERTEX
  5
27c
  8
Layer_2
  10
14.045494
  20
10.158008
  0
VERTEX
  5
27d
  8
Layer_2
  10
14.057312
  20
10.161676
  0
VERTEX
  5
27e
  8
Layer_2
  10
14.07
  20
10.162954
  0
VERTEX
  5
27f
  8
Layer_2
  10
14.082687
  20
10.161676
  0
VERTEX
  5
280
  8
Layer_2
  10
14.094505
  20
10.158008
  0
VERTEX
  5
281
  8
Layer_2
  10
14.1052
  20
10.152204
  0
VERTEX
  5
282
  8
Layer_2
  10
14.114517
  20
10.144517
  0
VERTEX
  5
283
  8
Layer_2
  10
14.122204
  20
10.135199
  0
VERTEX
  5
284
  8
Layer_2
  10
14.128009
  20
10.124505
  0
VERTEX
  5
285
  8
Layer_2
  10
14.131677
  20
10.112687
  0
VERTEX
  5
286
  8
Layer_2
  10
14.132955
  20
10.099999
  0
SEQEND
  0
POLYLINE
  5
288
  8
Layer_2
  62
0
  70
1
  66
1
  10
0
  20
0
  30
0
  0
VERTEX
  5
288
  8
Layer_2
  10
19.152956
  20
9.2315445
  0
VERTEX
  5
289
  8
Layer_2
  10
19.151676
  20
9.2188568
  0
VERTEX
  5
28a
  8
Layer_2
  10
19.148008
  20
9.2070389
  0
VERTEX
  5
28b
  8
Layer_2
  10
19.142204
  20
9.1963463
  0
VERTEX
  5
28c
  8
Layer_2
  10
19.134518
  20
9.1870289
  0
VERTEX
  5
28d
  8
Layer_2
  10
19.1252
  20
9.1793413
  0
VERTEX
  5
28e
  8
Layer_2
  10
19.114506
  20
9.1735363
  0
VERTEX
  5
28f
  8
Layer_2
  10
19.102688
  20
9.1698685
  0
VERTEX
  5
290
  8
Layer_2
  10
19.09
  20
9.1685896
  0
VERTEX
  5
291
  8
Layer_2
  10
19.077312
  20
9.1698685
  0
VERTEX
  5
292
  8
Layer_2
  10
19.065496
  20
9.1735363
  0
VERTEX
  5
293
  8
Layer_2
  10
19.054802
  20
9.1793413
  0
VERTEX
  5
294
  8
Layer_2
  10
19.045485
  20
9.1870289
  0
VERTEX
  5
295
  8
Layer_2
  10
19.037796
  20
9.1963463
  0
VERTEX
  5
296
  8
Layer_2
  10
19.031992
  20
9.2070389
  0
VERTEX
  5
297
  8
Layer_2
  10
19.028324
  20
9.2188568
  0
VERTEX
  5
298
  8
Layer_2
  10
19.027044
  20
9.2315445
  0
VERTEX
  5
299
  8
Layer_2
  10
19.028324
  20
9.2442322
  0
VERTEX
  5
29a
  8
Layer_2
  10
19.031992
  20
9.2560501
  0
VERTEX
  5
29b
  8
Layer_2
  10
19.037796
  20
9.2667437
  0
VERTEX
  5
29c
  8
Layer_2
  10
19.045485
  20
9.2760611
  0
VERTEX
  5
29d
  8
Layer_2
  10
19.054802
  20
9.2837486
  0
VERTEX
  5
29e
  8
Layer_2
  10
19.065496
  20
9.2895527
  0
VERTEX
  5
29f
  8
Layer_2
  10
19.077312
  20
9.2932205
  0
VERTEX
  5
2a0
  8
Layer_2
  10
19.09
  20
9.2944994
  0
VERTEX
  5
2a1
  8
Layer_2
  10
19.102688
  20
9.2932205
  0
VERTEX
  5
2a2
  8
Layer_2
  10
19.114506
  20
9.2895527
  0
VERTEX
  5
2a3
  8
Layer_2
  10
19.1252
  20
9.2837486
  0
VERTEX
  5
2a4
  8
Layer_2
  10
19.134518
  20
9.2760611
  0
VERTEX
  5
2a5
  8
Layer_2
  10
19.142204
  20
9.2667437
  0
VERTEX
  5
2a6
  8
Layer_2
  10
19.148008
  20
9.2560501
  0
VERTEX
  5
2a7
  8
Layer_2
  10
19.151676
  20
9.2442322
  0
VERTEX
  5
2a8
  8
Layer_2
  10
19.152956
  20
9.2315445
  0
SEQEND
  0
POLYLINE
  5
2aa
  8
Layer_2
  62
0
  70
1
  66
1
  10
0
  20
0
  30
0
  0
VERTEX
  5
2aa
  8
Layer_2
  10
17.379156
  20
12.496144
  0
VERTEX
  5
2ab
  8
Layer_2
  10
17.377876
  20
12.483457
  0
VERTEX
  5
2ac
  8
Layer_2
  10
17.374208
  20
12.47164
  0
VERTEX
  5
2ad
  8
Layer_2
  10
17.368404
  20
12.460946
  0
VERTEX
  5
2ae
  8
Layer_2
  10
17.360716
  20
12.451629
  0
VERTEX
  5
2af
  8
Layer_2
  10
17.351398
  20
12.44394
  0
VERTEX
  5
2b0
  8
Layer_2
  10
17.340706
  20
12.438136
  0
VERTEX
  5
2b1
  8
Layer_2
  10
17.328888
  20
12.434469
  0
VERTEX
  5
2b2
  8
Layer_2
  10
17.3162
  20
12.433189
  0
VERTEX
  5
2b3
  8
Layer_2
  10
17.303513
  20
12.434469
  0
VERTEX
  5
2b4
  8
Layer_2
  10
17.291695
  20
12.438136
  0
VERTEX
  5
2b5
  8
Layer_2
  10
17.281002
  20
12.44394
  0
VERTEX
  5
2b6
  8
Layer_2
  10
17.271685
  20
12.451629
  0
VERTEX
  5
2b7
  8
Layer_2
  10
17.263996
  20
12.460946
  0
VERTEX
  5
2b8
  8
Layer_2
  10
17.258192
  20
12.47164
  0
VERTEX
  5
2b9
  8
Layer_2
  10
17.254524
  20
12.483457
  0
VERTEX
  5
2ba
  8
Layer_2
  10
17.253244
  20
12.496144
  0
VERTEX
  5
2bb
  8
Layer_2
  10
17.254524
  20
12.508832
  0
VERTEX
  5
2bc
  8
Layer_2
  10
17.258192
  20
12.52065
  0
VERTEX
  5
2bd
  8
Layer_2
  10
17.263996
  20
12.531343
  0
VERTEX
  5
2be
  8
Layer_2
  10
17.271685
  20
12.540661
  0
VERTEX
  5
2bf
  8
Layer_2
  10
17.281002
  20
12.548349
  0
VERTEX
  5
2c0
  8
Layer_2
  10
17.291695
  20
12.554153
  0
VERTEX
  5
2c1
  8
Layer_2
  10
17.303513
  20
12.55782
  0
VERTEX
  5
2c2
  8
Layer_2
  10
17.3162
  20
12.5591
  0
VERTEX
  5
2c3
  8
Layer_2
  10
17.328888
  20
12.55782
  0
VERTEX
  5
2c4
  8
Layer_2
  10
17.340706
  20
12.554153
  0
VERTEX
  5
2c5
  8
Layer_2
  10
17.351398
  20
12.548349
  0
VERTEX
  5
2c6
  8
Layer_2
  10
17.360716
  20
12.540661
  0
VERTEX
  5
2c7
  8
Layer_2
  10
17.368404
  20
12.531343
  0
VERTEX
  5
2c8
  8
Layer_2
  10
17.374208
  20
12.52065
  0
VERTEX
  5
2c9
  8
Layer_2
  10
17.377876
  20
12.508832
  0
VERTEX
  5
2ca
  8
Layer_2
  10
17.379156
  20
12.496144
  0
SEQEND
  0
POLYLINE
  5
2cc
  8
Layer_2
  62
0
  70
1
  66
1
  10
0
  20
0
  30
0
  0
VERTEX
  5
2cc
  8
Layer_2
  10
12.672956
  20
16.535
  0
VERTEX
  5
2cd
  8
Layer_2
  10
12.671678
  20
16.522312
  0
VERTEX
  5
2ce
  8
Layer_2
  10
12.668008
  20
16.510494
  0
VERTEX
  5
2cf
  8
Layer_2
  10
12.662205
  20
16.499802
  0
VERTEX
  5
2d0
  8
Layer_2
  10
12.654516
  20
16.490484
  0
VERTEX
  5
2d1
  8
Layer_2
  10
12.645199
  20
16.482796
  0
VERTEX
  5
2d2
  8
Layer_2
  10
12.634506
  20
16.476992
  0
VERTEX
  5
2d3
  8
Layer_2
  10
12.622688
  20
16.473324
  0
VERTEX
  5
2d4
  8
Layer_2
  10
12.610001
  20
16.472044
  0
VERTEX
  5
2d5
  8
Layer_2
  10
12.597313
  20
16.473324
  0
VERTEX
  5
2d6
  8
Layer_2
  10
12.585495
  20
16.476992
  0
VERTEX
  5
2d7
  8
Layer_2
  10
12.574801
  20
16.482796
  0
VERTEX
  5
2d8
  8
Layer_2
  10
12.565484
  20
16.490484
  0
VERTEX
  5
2d9
  8
Layer_2
  10
12.557796
  20
16.499802
  0
VERTEX
  5
2da
  8
Layer_2
  10
12.551993
  20
16.510494
  0
VERTEX
  5
2db
  8
Layer_2
  10
12.548324
  20
16.522312
  0
VERTEX
  5
2dc
  8
Layer_2
  10
12.547046
  20
16.535
  0
VERTEX
  5
2dd
  8
Layer_2
  10
12.548324
  20
16.547688
  0
VERTEX
  5
2de
  8
Layer_2
  10
12.551993
  20
16.559505
  0
VERTEX
  5
2df
  8
Layer_2
  10
12.557796
  20
16.570198
  0
VERTEX
  5
2e0
  8
Layer_2
  10
12.565484
  20
16.579515
  0
VERTEX
  5
2e1
  8
Layer_2
  10
12.574801
  20
16.587204
  0
VERTEX
  5
2e2
  8
Layer_2
  10
12.585495
  20
16.593008
  0
VERTEX
  5
2e3
  8
Layer_2
  10
12.597313
  20
16.596676
  0
VERTEX
  5
2e4
  8
Layer_2
  10
12.610001
  20
16.597954
  0
VERTEX
  5
2e5
  8
Layer_2
  10
12.622688
  20
16.596676
  0
VERTEX
  5
2e6
  8
Layer_2
  10
12.634506
  20
16.593008
  0
VERTEX
  5
2e7
  8
Layer_2
  10
12.645199
  20
16.587204
  0
VERTEX
  5
2e8
  8
Layer_2
  10
12.654516
  20
16.579515
  0
VERTEX
  5
2e9
  8
Layer_2
  10
12.662205
  20
16.570198
  0
VERTEX
  5
2ea
  8
Layer_2
  10
12.668008
  20
16.559505
  0
VERTEX
  5
2eb
  8
Layer_2
  10
12.671678
  20
16.547688
  0
VERTEX
  5
2ec
  8
Layer_2
  10
12.672956
  20
16.535
  0
SEQEND
  0
POLYLINE
  5
2ee
  8
Layer_2
  62
0
  70
1
  66
1
  10
0
  20
0
  30
0
  0
VERTEX
  5
2ee
  8
Layer_2
  10
15.182956
  20
15.628845
  0
VERTEX
  5
2ef
  8
Layer_2
  10
15.181676
  20
15.616158
  0
VERTEX
  5
2f0
  8
Layer_2
  10
15.178008
  20
15.60434
  0
VERTEX
  5
2f1
  8
Layer_2
  10
15.172203
  20
15.593645
  0
VERTEX
  5
2f2
  8
Layer_2
  10
15.164516
  20
15.584328
  0
VERTEX
  5
2f3
  8
Layer_2
  10
15.155199
  20
15.576641
  0
VERTEX
  5
2f4
  8
Layer_2
  10
15.144505
  20
15.570836
  0
VERTEX
  5
2f5
  8
Layer_2
  10
15.132688
  20
15.567168
  0
VERTEX
  5
2f6
  8
Layer_2
  10
15.120001
  20
15.56589
  0
VERTEX
  5
2f7
  8
Layer_2
  10
15.107313
  20
15.567168
  0
VERTEX
  5
2f8
  8
Layer_2
  10
15.095495
  20
15.570836
  0
VERTEX
  5
2f9
  8
Layer_2
  10
15.084802
  20
15.576641
  0
VERTEX
  5
2fa
  8
Layer_2
  10
15.075484
  20
15.584328
  0
VERTEX
  5
2fb
  8
Layer_2
  10
15.067796
  20
15.593645
  0
VERTEX
  5
2fc
  8
Layer_2
  10
15.061992
  20
15.60434
  0
VERTEX
  5
2fd
  8
Layer_2
  10
15.058324
  20
15.616158
  0
VERTEX
  5
2fe
  8
Layer_2
  10
15.057044
  20
15.628845
  0
VERTEX
  5
2ff
  8
Layer_2
  10
15.058324
  20
15.641533
  0
VERTEX
  5
300
  8
Layer_2
  10
15.061992
  20
15.653349
  0
VERTEX
  5
301
  8
Layer_2
  10
15.067796
  20
15.664043
  0
VERTEX
  5
302
  8
Layer_2
  10
15.075484
  20
15.673361
  0
VERTEX
  5
303
  8
Layer_2
  10
15.084802
  20
15.681048
  0
VERTEX
  5
304
  8
Layer_2
  10
15.095495
  20
15.686852
  0
VERTEX
  5
305
  8
Layer_2
  10
15.107313
  20
15.69052
  0
VERTEX
  5
306
  8
Layer_2
  10
15.120001
  20
15.6918
  0
VERTEX
  5
307
  8
Layer_2
  10
15.132688
  20
15.69052
  0
VERTEX
  5
308
  8
Layer_2
  10
15.144505
  20
15.686852
  0
VERTEX
  5
309
  8
Layer_2
  10
15.155199
  20
15.681048
  0
VERTEX
  5
30a
  8
Layer_2
  10
15.164516
  20
15.673361
  0
VERTEX
  5
30b
  8
Layer_2
  10
15.172203
  20
15.664043
  0
VERTEX
  5
30c
  8
Layer_2
  10
15.178008
  20
15.653349
  0
VERTEX
  5
30d
  8
Layer_2
  10
15.181676
  20
15.641533
  0
VERTEX
  5
30e
  8
Layer_2
  10
15.182956
  20
15.628845
  0
SEQEND
  0
POLYLINE
  5
310
  8
Layer_2
  62
0
  70
1
  66
1
  10
0
  20
0
  30
0
  0
VERTEX
  5
310
  8
Layer_2
  10
10.66697
  20
15.867123
  0
VERTEX
  5
311
  8
Layer_2
  10
10.665692
  20
15.854435
  0
VERTEX
  5
312
  8
Layer_2
  10
10.662024
  20
15.842617
  0
VERTEX
  5
313
  8
Layer_2
  10
10.656219
  20
15.831923
  0
VERTEX
  5
314
  8
Layer_2
  10
10.648532
  20
15.822605
  0
VERTEX
  5
315
  8
Layer_2
  10
10.639215
  20
15.814919
  0
VERTEX
  5
316
  8
Layer_2
  10
10.628521
  20
15.809114
  0
VERTEX
  5
317
  8
Layer_2
  10
10.616703
  20
15.805446
  0
VERTEX
  5
318
  8
Layer_2
  10
10.604015
  20
15.804166
  0
VERTEX
  5
319
  8
Layer_2
  10
10.591328
  20
15.805446
  0
VERTEX
  5
31a
  8
Layer_2
  10
10.57951
  20
15.809114
  0
VERTEX
  5
31b
  8
Layer_2
  10
10.568816
  20
15.814919
  0
VERTEX
  5
31c
  8
Layer_2
  10
10.559499
  20
15.822605
  0
VERTEX
  5
31d
  8
Layer_2
  10
10.551812
  20
15.831923
  0
VERTEX
  5
31e
  8
Layer_2
  10
10.546008
  20
15.842617
  0
VERTEX
  5
31f
  8
Layer_2
  10
10.542339
  20
15.854435
  0
VERTEX
  5
320
  8
Layer_2
  10
10.54106
  20
15.867123
  0
VERTEX
  5
321
  8
Layer_2
  10
10.542339
  20
15.87981
  0
VERTEX
  5
322
  8
Layer_2
  10
10.546008
  20
15.891626
  0
VERTEX
  5
323
  8
Layer_2
  10
10.551812
  20
15.902321
  0
VERTEX
  5
324
  8
Layer_2
  10
10.559499
  20
15.911638
  0
VERTEX
  5
325
  8
Layer_2
  10
10.568816
  20
15.919326
  0
VERTEX
  5
326
  8
Layer_2
  10
10.57951
  20
15.92513
  0
VERTEX
  5
327
  8
Layer_2
  10
10.591328
  20
15.928798
  0
VERTEX
  5
328
  8
Layer_2
  10
10.604015
  20
15.930078
  0
VERTEX
  5
329
  8
Layer_2
  10
10.616703
  20
15.928798
  0
VERTEX
  5
32a
  8
Layer_2
  10
10.628521
  20
15.92513
  0
VERTEX
  5
32b
  8
Layer_2
  10
10.639215
  20
15.919326
  0
VERTEX
  5
32c
  8
Layer_2
  10
10.648532
  20
15.911638
  0
VERTEX
  5
32d
  8
Layer_2
  10
10.656219
  20
15.902321
  0
VERTEX
  5
32e
  8
Layer_2
  10
10.662024
  20
15.891626
  0
VERTEX
  5
32f
  8
Layer_2
  10
10.665692
  20
15.87981
  0
VERTEX
  5
330
  8
Layer_2
  10
10.66697
  20
15.867123
  0
SEQEND
  0
POLYLINE
  5
332
  8
Layer_2
  62
0
  70
1
  66
1
  10
0
  20
0
  30
0
  0
VERTEX
  5
332
  8
Layer_2
  10
18.75625
  20
15.70466
  0
VERTEX
  5
333
  8
Layer_2
  10
18.754972
  20
15.691973
  0
VERTEX
  5
334
  8
Layer_2
  10
18.751305
  20
15.680157
  0
VERTEX
  5
335
  8
Layer_2
  10
18.745499
  20
15.669462
  0
VERTEX
  5
336
  8
Layer_2
  10
18.737812
  20
15.660145
  0
VERTEX
  5
337
  8
Layer_2
  10
18.728495
  20
15.652457
  0
VERTEX
  5
338
  8
Layer_2
  10
18.7178
  20
15.646653
  0
VERTEX
  5
339
  8
Layer_2
  10
18.705982
  20
15.642985
  0
VERTEX
  5
33a
  8
Layer_2
  10
18.693295
  20
15.641706
  0
VERTEX
  5
33b
  8
Layer_2
  10
18.680607
  20
15.642985
  0
VERTEX
  5
33c
  8
Layer_2
  10
18.668791
  20
15.646653
  0
VERTEX
  5
33d
  8
Layer_2
  10
18.658096
  20
15.652457
  0
VERTEX
  5
33e
  8
Layer_2
  10
18.648779
  20
15.660145
  0
VERTEX
  5
33f
  8
Layer_2
  10
18.641092
  20
15.669462
  0
VERTEX
  5
340
  8
Layer_2
  10
18.635288
  20
15.680157
  0
VERTEX
  5
341
  8
Layer_2
  10
18.63162
  20
15.691973
  0
VERTEX
  5
342
  8
Layer_2
  10
18.630341
  20
15.70466
  0
VERTEX
  5
343
  8
Layer_2
  10
18.63162
  20
15.717348
  0
VERTEX
  5
344
  8
Layer_2
  10
18.635288
  20
15.729166
  0
VERTEX
  5
345
  8
Layer_2
  10
18.641092
  20
15.739861
  0
VERTEX
  5
346
  8
Layer_2
  10
18.648779
  20
15.749177
  0
VERTEX
  5
347
  8
Layer_2
  10
18.658096
  20
15.756865
  0
VERTEX
  5
348
  8
Layer_2
  10
18.668791
  20
15.76267
  0
VERTEX
  5
349
  8
Layer_2
  10
18.680607
  20
15.766337
  0
VERTEX
  5
34a
  8
Layer_2
  10
18.693295
  20
15.767616
  0
VERTEX
  5
34b
  8
Layer_2
  10
18.705982
  20
15.766337
  0
VERTEX
  5
34c
  8
Layer_2
  10
18.7178
  20
15.76267
  0
VERTEX
  5
34d
  8
Layer_2
  10
18.728495
  20
15.756865
  0
VERTEX
  5
34e
  8
Layer_2
  10
18.737812
  20
15.749177
  0
VERTEX
  5
34f
  8
Layer_2
  10
18.745499
  20
15.739861
  0
VERTEX
  5
350
  8
Layer_2
  10
18.751305
  20
15.729166
  0
VERTEX
  5
351
  8
Layer_2
  10
18.754972
  20
15.717348
  0
VERTEX
  5
352
  8
Layer_2
  10
18.75625
  20
15.70466
  0
SEQEND
  0
POLYLINE
  5
354
  8
Layer_2
  62
0
  70
1
  66
1
  10
0
  20
0
  30
0
  0
VERTEX
  5
354
  8
Layer_2
  10
16.934456
  20
9.5370445
  0
VERTEX
  5
355
  8
Layer_2
  10
16.933176
  20
9.5243568
  0
VERTEX
  5
356
  8
Layer_2
  10
16.929508
  20
9.5125389
  0
VERTEX
  5
357
  8
Layer_2
  10
16.923704
  20
9.5018454
  0
VERTEX
  5
358
  8
Layer_2
  10
16.916016
  20
9.492528
  0
VERTEX
  5
359
  8
Layer_2
  10
16.906698
  20
9.4848404
  0
VERTEX
  5
35a
  8
Layer_2
  10
16.896006
  20
9.4790363
  0
VERTEX
  5
35b
  8
Layer_2
  10
16.884188
  20
9.4753685
  0
VERTEX
  5
35c
  8
Layer_2
  10
16.8715
  20
9.4740896
  0
VERTEX
  5
35d
  8
Layer_2
  10
16.858812
  20
9.4753685
  0
VERTEX
  5
35e
  8
Layer_2
  10
16.846994
  20
9.4790363
  0
VERTEX
  5
35f
  8
Layer_2
  10
16.836302
  20
9.4848404
  0
VERTEX
  5
360
  8
Layer_2
  10
16.826984
  20
9.492528
  0
VERTEX
  5
361
  8
Layer_2
  10
16.819296
  20
9.5018454
  0
VERTEX
  5
362
  8
Layer_2
  10
16.813492
  20
9.5125389
  0
VERTEX
  5
363
  8
Layer_2
  10
16.809824
  20
9.5243568
  0
VERTEX
  5
364
  8
Layer_2
  10
16.808546
  20
9.5370445
  0
VERTEX
  5
365
  8
Layer_2
  10
16.809824
  20
9.5497322
  0
VERTEX
  5
366
  8
Layer_2
  10
16.813492
  20
9.5615492
  0
VERTEX
  5
367
  8
Layer_2
  10
16.819296
  20
9.5722437
  0
VERTEX
  5
368
  8
Layer_2
  10
16.826984
  20
9.5815611
  0
VERTEX
  5
369
  8
Layer_2
  10
16.836302
  20
9.5892477
  0
VERTEX
  5
36a
  8
Layer_2
  10
16.846994
  20
9.5950527
  0
VERTEX
  5
36b
  8
Layer_2
  10
16.858812
  20
9.5987206
  0
VERTEX
  5
36c
  8
Layer_2
  10
16.8715
  20
9.5999994
  0
VERTEX
  5
36d
  8
Layer_2
  10
16.884188
  20
9.5987206
  0
VERTEX
  5
36e
  8
Layer_2
  10
16.896006
  20
9.5950527
  0
VERTEX
  5
36f
  8
Layer_2
  10
16.906698
  20
9.5892477
  0
VERTEX
  5
370
  8
Layer_2
  10
16.916016
  20
9.5815611
  0
VERTEX
  5
371
  8
Layer_2
  10
16.923704
  20
9.5722437
  0
VERTEX
  5
372
  8
Layer_2
  10
16.929508
  20
9.5615492
  0
VERTEX
  5
373
  8
Layer_2
  10
16.933176
  20
9.5497322
  0
VERTEX
  5
374
  8
Layer_2
  10
16.934456
  20
9.5370445
  0
SEQEND
  0
POLYLINE
  5
376
  8
Layer_2
  62
0
  66
1
  10
0
  20
0
  30
0
  0
VERTEX
  5
376
  8
Layer_2
  10
19.871088
  20
9.4080248
  0
VERTEX
  5
377
  8
Layer_2
  10
19.868328
  20
9.4094515
  0
SEQEND
  0
POLYLINE
  5
379
  8
Layer_1
  62
6
  70
1
  66
1
  10
0
  20
0
  30
0
  0
VERTEX
  5
379
  8
Layer_1
  10
17.11849
  20
12.636229
  0
VERTEX
  5
37a
  8
Layer_1
  10
17.11849
  20
15.125271
  0
VERTEX
  5
37b
  8
Layer_1
  10
17.117401
  20
15.147607
  0
VERTEX
  5
37c
  8
Layer_1
  10
17.114172
  20
15.169648
  0
VERTEX
  5
37d
  8
Layer_1
  10
17.10885
  20
15.191369
  0
VERTEX
  5
37e
  8
Layer_1
  10
17.101496
  20
15.212743
  0
VERTEX
  5
37f
  8
Layer_1
  10
17.092155
  20
15.233742
  0
VERTEX
  5
380
  8
Layer_1
  10
17.080885
  20
15.254338
  0
VERTEX
  5
381
  8
Layer_1
  10
17.067734
  20
15.274505
  0
VERTEX
  5
382
  8
Layer_1
  10
17.052757
  20
15.294215
  0
VERTEX
  5
383
  8
Layer_1
  10
17.036007
  20
15.313439
  0
VERTEX
  5
384
  8
Layer_1
  10
17.017534
  20
15.332155
  0
VERTEX
  5
385
  8
Layer_1
  10
16.997395
  20
15.35033
  0
VERTEX
  5
386
  8
Layer_1
  10
16.975636
  20
15.36794
  0
VERTEX
  5
387
  8
Layer_1
  10
16.952316
  20
15.384956
  0
VERTEX
  5
388
  8
Layer_1
  10
16.927485
  20
15.401353
  0
VERTEX
  5
389
  8
Layer_1
  10
16.901196
  20
15.417102
  0
VERTEX
  5
38a
  8
Layer_1
  10
16.873499
  20
15.432176
  0
VERTEX
  5
38b
  8
Layer_1
  10
16.844448
  20
15.446547
  0
VERTEX
  5
38c
  8
Layer_1
  10
16.8141
  20
15.460189
  0
VERTEX
  5
38d
  8
Layer_1
  10
16.782501
  20
15.473073
  0
VERTEX
  5
38e
  8
Layer_1
  10
16.749706
  20
15.485174
  0
VERTEX
  5
38f
  8
Layer_1
  10
16.715769
  20
15.496464
  0
VERTEX
  5
390
  8
Layer_1
  10
16.680742
  20
15.506914
  0
VERTEX
  5
391
  8
Layer_1
  10
16.644676
  20
15.5165
  0
VERTEX
  5
392
  8
Layer_1
  10
16.607622
  20
15.525191
  0
VERTEX
  5
393
  8
Layer_1
  10
16.569639
  20
15.532964
  0
VERTEX
  5
394
  8
Layer_1
  10
16.530773
  20
15.539786
  0
VERTEX
  5
395
  8
Layer_1
  10
16.491081
  20
15.545635
  0
VERTEX
  5
396
  8
Layer_1
  10
16.450613
  20
15.550482
  0
VERTEX
  5
397
  8
Layer_1
  10
16.409422
  20
15.554299
  0
VERTEX
  5
398
  8
Layer_1
  10
16.367561
  20
15.557059
  0
VERTEX
  5
399
  8
Layer_1
  10
16.325083
  20
15.558735
  0
VERTEX
  5
39a
  8
Layer_1
  10
16.28204
  20
15.559299
  0
VERTEX
  5
39b
  8
Layer_1
  10
16.238995
  20
15.558735
  0
VERTEX
  5
39c
  8
Layer_1
  10
16.196516
  20
15.557059
  0
VERTEX
  5
39d
  8
Layer_1
  10
16.154655
  20
15.554299
  0
VERTEX
  5
39e
  8
Layer_1
  10
16.113464
  20
15.550482
  0
VERTEX
  5
39f
  8
Layer_1
  10
16.072996
  20
15.545635
  0
VERTEX
  5
3a0
  8
Layer_1
  10
16.033304
  20
15.539786
  0
VERTEX
  5
3a1
  8
Layer_1
  10
15.994438
  20
15.532964
  0
VERTEX
  5
3a2
  8
Layer_1
  10
15.956455
  20
15.525191
  0
VERTEX
  5
3a3
  8
Layer_1
  10
15.919402
  20
15.5165
  0
VERTEX
  5
3a4
  8
Layer_1
  10
15.883336
  20
15.506914
  0
VERTEX
  5
3a5
  8
Layer_1
  10
15.848309
  20
15.496464
  0
VERTEX
  5
3a6
  8
Layer_1
  10
15.814371
  20
15.485174
  0
VERTEX
  5
3a7
  8
Layer_1
  10
15.781577
  20
15.473073
  0
VERTEX
  5
3a8
  8
Layer_1
  10
15.749978
  20
15.460189
  0
VERTEX
  5
3a9
  8
Layer_1
  10
15.719628
  20
15.446547
  0
VERTEX
  5
3aa
  8
Layer_1
  10
15.690579
  20
15.432176
  0
VERTEX
  5
3ab
  8
Layer_1
  10
15.662883
  20
15.417102
  0
VERTEX
  5
3ac
  8
Layer_1
  10
15.636593
  20
15.401353
  0
VERTEX
  5
3ad
  8
Layer_1
  10
15.611762
  20
15.384956
  0
VERTEX
  5
3ae
  8
Layer_1
  10
15.588442
  20
15.36794
  0
VERTEX
  5
3af
  8
Layer_1
  10
15.566684
  20
15.35033
  0
VERTEX
  5
3b0
  8
Layer_1
  10
15.546544
  20
15.332155
  0
VERTEX
  5
3b1
  8
Layer_1
  10
15.52807
  20
15.313439
  0
VERTEX
  5
3b2
  8
Layer_1
  10
15.511321
  20
15.294215
  0
VERTEX
  5
3b3
  8
Layer_1
  10
15.496344
  20
15.274505
  0
VERTEX
  5
3b4
  8
Layer_1
  10
15.483193
  20
15.254338
  0
VERTEX
  5
3b5
  8
Layer_1
  10
15.471922
  20
15.233742
  0
VERTEX
  5
3b6
  8
Layer_1
  10
15.462582
  20
15.212743
  0
VERTEX
  5
3b7
  8
Layer_1
  10
15.455226
  20
15.191369
  0
VERTEX
  5
3b8
  8
Layer_1
  10
15.449906
  20
15.169648
  0
VERTEX
  5
3b9
  8
Layer_1
  10
15.446676
  20
15.147607
  0
VERTEX
  5
3ba
  8
Layer_1
  10
15.445588
  20
15.125271
  0
VERTEX
  5
3bb
  8
Layer_1
  10
15.445588
  20
12.636229
  0
VERTEX
  5
3bc
  8
Layer_1
  10
15.446676
  20
12.613894
  0
VERTEX
  5
3bd
  8
Layer_1
  10
15.449906
  20
12.591851
  0
VERTEX
  5
3be
  8
Layer_1
  10
15.455226
  20
12.570129
  0
VERTEX
  5
3bf
  8
Layer_1
  10
15.462582
  20
12.548757
  0
VERTEX
  5
3c0
  8
Layer_1
  10
15.471922
  20
12.527758
  0
VERTEX
  5
3c1
  8
Layer_1
  10
15.483193
  20
12.507161
  0
VERTEX
  5
3c2
  8
Layer_1
  10
15.496344
  20
12.486996
  0
VERTEX
  5
3c3
  8
Layer_1
  10
15.511321
  20
12.467285
  0
VERTEX
  5
3c4
  8
Layer_1
  10
15.52807
  20
12.448059
  0
VERTEX
  5
3c5
  8
Layer_1
  10
15.546544
  20
12.429345
  0
VERTEX
  5
3c6
  8
Layer_1
  10
15.566684
  20
12.411169
  0
VERTEX
  5
3c7
  8
Layer_1
  10
15.588442
  20
12.393559
  0
VERTEX
  5
3c8
  8
Layer_1
  10
15.611762
  20
12.376542
  0
VERTEX
  5
3c9
  8
Layer_1
  10
15.636593
  20
12.360146
  0
VERTEX
  5
3ca
  8
Layer_1
  10
15.662883
  20
12.344398
  0
VERTEX
  5
3cb
  8
Layer_1
  10
15.690579
  20
12.329324
  0
VERTEX
  5
3cc
  8
Layer_1
  10
15.719628
  20
12.314953
  0
VERTEX
  5
3cd
  8
Layer_1
  10
15.749978
  20
12.301311
  0
VERTEX
  5
3ce
  8
Layer_1
  10
15.781577
  20
12.288426
  0
VERTEX
  5
3cf
  8
Layer_1
  10
15.814371
  20
12.276325
  0
VERTEX
  5
3d0
  8
Layer_1
  10
15.848309
  20
12.265037
  0
VERTEX
  5
3d1
  8
Layer_1
  10
15.883336
  20
12.254586
  0
VERTEX
  5
3d2
  8
Layer_1
  10
15.919402
  20
12.245001
  0
VERTEX
  5
3d3
  8
Layer_1
  10
15.956455
  20
12.236309
  0
VERTEX
  5
3d4
  8
Layer_1
  10
15.994438
  20
12.228538
  0
VERTEX
  5
3d5
  8
Layer_1
  10
16.033304
  20
12.221713
  0
VERTEX
  5
3d6
  8
Layer_1
  10
16.072996
  20
12.215865
  0
VERTEX
  5
3d7
  8
Layer_1
  10
16.113464
  20
12.211018
  0
VERTEX
  5
3d8
  8
Layer_1
  10
16.154655
  20
12.207201
  0
VERTEX
  5
3d9
  8
Layer_1
  10
16.196516
  20
12.204441
  0
VERTEX
  5
3da
  8
Layer_1
  10
16.238995
  20
12.202765
  0
VERTEX
  5
3db
  8
Layer_1
  10
16.28204
  20
12.2022
  0
VERTEX
  5
3dc
  8
Layer_1
  10
16.325083
  20
12.202765
  0
VERTEX
  5
3dd
  8
Layer_1
  10
16.367561
  20
12.204441
  0
VERTEX
  5
3de
  8
Layer_1
  10
16.409422
  20
12.207201
  0
VERTEX
  5
3df
  8
Layer_1
  10
16.450613
  20
12.211018
  0
VERTEX
  5
3e0
  8
Layer_1
  10
16.491081
  20
12.215865
  0
VERTEX
  5
3e1
  8
Layer_1
  10
16.530773
  20
12.221713
  0
VERTEX
  5
3e2
  8
Layer_1
  10
16.569639
  20
12.228538
  0
VERTEX
  5
3e3
  8
Layer_1
  10
16.607622
  20
12.236309
  0
VERTEX
  5
3e4
  8
Layer_1
  10
16.644676
  20
12.245001
  0
VERTEX
  5
3e5
  8
Layer_1
  10
16.680742
  20
12.254586
  0
VERTEX
  5
3e6
  8
Layer_1
  10
16.715769
  20
12.265037
  0
VERTEX
  5
3e7
  8
Layer_1
  10
16.749706
  20
12.276325
  0
VERTEX
  5
3e8
  8
Layer_1
  10
16.782501
  20
12.288426
  0
VERTEX
  5
3e9
  8
Layer_1
  10
16.8141
  20
12.301311
  0
VERTEX
  5
3ea
  8
Layer_1
  10
16.844448
  20
12.314953
  0
VERTEX
  5
3eb
  8
Layer_1
  10
16.873499
  20
12.329324
  0
VERTEX
  5
3ec
  8
Layer_1
  10
16.901196
  20
12.344398
  0
VERTEX
  5
3ed
  8
Layer_1
  10
16.927485
  20
12.360146
  0
VERTEX
  5
3ee
  8
Layer_1
  10
16.952316
  20
12.376542
  0
VERTEX
  5
3ef
  8
Layer_1
  10
16.975636
  20
12.393559
  0
VERTEX
  5
3f0
  8
Layer_1
  10
16.997395
  20
12.411169
  0
VERTEX
  5
3f1
  8
Layer_1
  10
17.017534
  20
12.429345
  0
VERTEX
  5
3f2
  8
Layer_1
  10
17.036007
  20
12.448059
  0
VERTEX
  5
3f3
  8
Layer_1
  10
17.052757
  20
12.467285
  0
VERTEX
  5
3f4
  8
Layer_1
  10
17.067734
  20
12.486996
  0
VERTEX
  5
3f5
  8
Layer_1
  10
17.080885
  20
12.507161
  0
VERTEX
  5
3f6
  8
Layer_1
  10
17.092155
  20
12.527758
  0
VERTEX
  5
3f7
  8
Layer_1
  10
17.101496
  20
12.548757
  0
VERTEX
  5
3f8
  8
Layer_1
  10
17.10885
  20
12.570129
  0
VERTEX
  5
3f9
  8
Layer_1
  10
17.114172
  20
12.591851
  0
VERTEX
  5
3fa
  8
Layer_1
  10
17.117401
  20
12.613894
  0
VERTEX
  5
3fb
  8
Layer_1
  10
17.11849
  20
12.636229
  0
SEQEND
  0
POLYLINE
  5
3fd
  8
Layer_2
  62
0
  70
1
  66
1
  10
0
  20
0
  30
0
  0
VERTEX
  5
3fd
  8
Layer_2
  10
12.190768
  20
9.6779013
  0
VERTEX
  5
3fe
  8
Layer_2
  10
12.93378
  20
10.359482
  0
VERTEX
  5
3ff
  8
Layer_2
  10
12.938026
  20
10.364245
  0
VERTEX
  5
400
  8
Layer_2
  10
12.941144
  20
10.369596
  0
VERTEX
  5
401
  8
Layer_2
  10
12.943124
  20
10.375356
  0
VERTEX
  5
402
  8
Layer_2
  10
12.943959
  20
10.381344
  0
VERTEX
  5
403
  8
Layer_2
  10
12.943642
  20
10.387382
  0
VERTEX
  5
404
  8
Layer_2
  10
12.942165
  20
10.393289
  0
VERTEX
  5
405
  8
Layer_2
  10
12.939521
  20
10.398888
  0
VERTEX
  5
406
  8
Layer_2
  10
12.935699
  20
10.404
  0
VERTEX
  5
407
  8
Layer_2
  10
12.930935
  20
10.408246
  0
VERTEX
  5
408
  8
Layer_2
  10
12.925584
  20
10.411364
  0
VERTEX
  5
409
  8
Layer_2
  10
12.919825
  20
10.413344
  0
VERTEX
  5
40a
  8
Layer_2
  10
12.913837
  20
10.41418
  0
VERTEX
  5
40b
  8
Layer_2
  10
12.907801
  20
10.413863
  0
VERTEX
  5
40c
  8
Layer_2
  10
12.901893
  20
10.412386
  0
VERTEX
  5
40d
  8
Layer_2
  10
12.896294
  20
10.40974
  0
VERTEX
  5
40e
  8
Layer_2
  10
12.89118
  20
10.40592
  0
VERTEX
  5
40f
  8
Layer_2
  10
12.148169
  20
9.7243395
  0
VERTEX
  5
410
  8
Layer_2
  10
12.143921
  20
9.7195759
  0
VERTEX
  5
411
  8
Layer_2
  10
12.140803
  20
9.7142248
  0
VERTEX
  5
412
  8
Layer_2
  10
12.138824
  20
9.7084656
  0
VERTEX
  5
413
  8
Layer_2
  10
12.137988
  20
9.7024784
  0
VERTEX
  5
414
  8
Layer_2
  10
12.138306
  20
9.6964417
  0
VERTEX
  5
415
  8
Layer_2
  10
12.139782
  20
9.6905327
  0
VERTEX
  5
416
  8
Layer_2
  10
12.142427
  20
9.6849337
  0
VERTEX
  5
417
  8
Layer_2
  10
12.146249
  20
9.679821
  0
VERTEX
  5
418
  8
Layer_2
  10
12.151013
  20
9.6755753
  0
VERTEX
  5
419
  8
Layer_2
  10
12.156363
  20
9.6724577
  0
VERTEX
  5
41a
  8
Layer_2
  10
12.162123
  20
9.6704779
  0
VERTEX
  5
41b
  8
Layer_2
  10
12.168111
  20
9.6696415
  0
VERTEX
  5
41c
  8
Layer_2
  10
12.174147
  20
9.6699581
  0
VERTEX
  5
41d
  8
Layer_2
  10
12.180056
  20
9.6714354
  0
VERTEX
  5
41e
  8
Layer_2
  10
12.185655
  20
9.6740808
  0
VERTEX
  5
41f
  8
Layer_2
  10
12.190768
  20
9.6779013
  0
SEQEND
  0
POLYLINE
  5
421
  8
Layer_3
  62
1
  66
1
  10
0
  20
0
  30
0
  0
VERTEX
  5
421
  8
Layer_3
  10
13.890264
  20
12.834797
  0
VERTEX
  5
422
  8
Layer_3
  10
13.889392
  20
12.836068
  0
SEQEND
  0
POLYLINE
  5
424
  8
Layer_3
  62
1
  66
1
  10
0
  20
0
  30
0
  0
VERTEX
  5
424
  8
Layer_3
  10
14.613566
  20
12.834797
  0
VERTEX
  5
425
  8
Layer_3
  10
14.614471
  20
12.836068
  0
SEQEND
  0
POLYLINE
  5
427
  8
Layer_3
  62
1
  66
1
  10
0
  20
0
  30
0
  0
VERTEX
  5
427
  8
Layer_3
  10
13.890264
  20
14.91477
  0
VERTEX
  5
428
  8
Layer_3
  10
13.889392
  20
14.921154
  0
SEQEND
  0
POLYLINE
  5
42a
  8
Layer_3
  62
1
  66
1
  10
0
  20
0
  30
0
  0
VERTEX
  5
42a
  8
Layer_3
  10
14.613566
  20
14.91477
  0
VERTEX
  5
42b
  8
Layer_3
  10
14.614471
  20
14.921154
  0
SEQEND
  0
POLYLINE
  5
42d
  8
Layer_1
  62
6
  70
1
  66
1
  10
0
  20
0
  30
0
  0
VERTEX
  5
42d
  8
Layer_1
  10
11.278543
  20
14.795276
  0
VERTEX
  5
42e
  8
Layer_1
  10
11.280479
  20
14.833617
  0
VERTEX
  5
42f
  8
Layer_1
  10
11.286162
  20
14.870851
  0
VERTEX
  5
430
  8
Layer_1
  10
11.295402
  20
14.90679
  0
VERTEX
  5
431
  8
Layer_1
  10
11.308012
  20
14.941242
  0
VERTEX
  5
432
  8
Layer_1
  10
11.323804
  20
14.974022
  0
VERTEX
  5
433
  8
Layer_1
  10
11.342587
  20
15.004941
  0
VERTEX
  5
434
  8
Layer_1
  10
11.364176
  20
15.03381
  0
VERTEX
  5
435
  8
Layer_1
  10
11.388378
  20
15.060441
  0
VERTEX
  5
436
  8
Layer_1
  10
11.415009
  20
15.084643
  0
VERTEX
  5
437
  8
Layer_1
  10
11.443878
  20
15.106232
  0
VERTEX
  5
438
  8
Layer_1
  10
11.474797
  20
15.125015
  0
VERTEX
  5
439
  8
Layer_1
  10
11.507577
  20
15.140806
  0
VERTEX
  5
43a
  8
Layer_1
  10
11.54203
  20
15.153416
  0
VERTEX
  5
43b
  8
Layer_1
  10
11.577968
  20
15.162657
  0
VERTEX
  5
43c
  8
Layer_1
  10
11.615202
  20
15.16834
  0
VERTEX
  5
43d
  8
Layer_1
  10
11.653543
  20
15.170275
  0
VERTEX
  5
43e
  8
Layer_1
  10
11.691885
  20
15.16834
  0
VERTEX
  5
43f
  8
Layer_1
  10
11.729119
  20
15.162657
  0
VERTEX
  5
440
  8
Layer_1
  10
11.765057
  20
15.153416
  0
VERTEX
  5
441
  8
Layer_1
  10
11.79951
  20
15.140806
  0
VERTEX
  5
442
  8
Layer_1
  10
11.83229
  20
15.125015
  0
VERTEX
  5
443
  8
Layer_1
  10
11.863209
  20
15.106232
  0
VERTEX
  5
444
  8
Layer_1
  10
11.892078
  20
15.084643
  0
VERTEX
  5
445
  8
Layer_1
  10
11.918709
  20
15.060441
  0
VERTEX
  5
446
  8
Layer_1
  10
11.942911
  20
15.03381
  0
VERTEX
  5
447
  8
Layer_1
  10
11.964499
  20
15.004941
  0
VERTEX
  5
448
  8
Layer_1
  10
11.983283
  20
14.974022
  0
VERTEX
  5
449
  8
Layer_1
  10
11.999075
  20
14.941242
  0
VERTEX
  5
44a
  8
Layer_1
  10
12.011685
  20
14.90679
  0
VERTEX
  5
44b
  8
Layer_1
  10
12.020925
  20
14.870851
  0
VERTEX
  5
44c
  8
Layer_1
  10
12.026608
  20
14.833617
  0
VERTEX
  5
44d
  8
Layer_1
  10
12.028543
  20
14.795276
  0
VERTEX
  5
44e
  8
Layer_1
  10
12.026608
  20
14.756934
  0
VERTEX
  5
44f
  8
Layer_1
  10
12.020925
  20
14.7197
  0
VERTEX
  5
450
  8
Layer_1
  10
12.011685
  20
14.683762
  0
VERTEX
  5
451
  8
Layer_1
  10
11.999075
  20
14.649309
  0
VERTEX
  5
452
  8
Layer_1
  10
11.983283
  20
14.616529
  0
VERTEX
  5
453
  8
Layer_1
  10
11.964499
  20
14.58561
  0
VERTEX
  5
454
  8
Layer_1
  10
11.942911
  20
14.556741
  0
VERTEX
  5
455
  8
Layer_1
  10
11.918709
  20
14.53011
  0
VERTEX
  5
456
  8
Layer_1
  10
11.892078
  20
14.505907
  0
VERTEX
  5
457
  8
Layer_1
  10
11.863209
  20
14.48432
  0
VERTEX
  5
458
  8
Layer_1
  10
11.83229
  20
14.465536
  0
VERTEX
  5
459
  8
Layer_1
  10
11.79951
  20
14.449744
  0
VERTEX
  5
45a
  8
Layer_1
  10
11.765057
  20
14.437135
  0
VERTEX
  5
45b
  8
Layer_1
  10
11.729119
  20
14.427895
  0
VERTEX
  5
45c
  8
Layer_1
  10
11.691885
  20
14.422211
  0
VERTEX
  5
45d
  8
Layer_1
  10
11.653543
  20
14.420276
  0
VERTEX
  5
45e
  8
Layer_1
  10
11.615202
  20
14.422211
  0
VERTEX
  5
45f
  8
Layer_1
  10
11.577968
  20
14.427895
  0
VERTEX
  5
460
  8
Layer_1
  10
11.54203
  20
14.437135
  0
VERTEX
  5
461
  8
Layer_1
  10
11.507577
  20
14.449744
  0
VERTEX
  5
462
  8
Layer_1
  10
11.474797
  20
14.465536
  0
VERTEX
  5
463
  8
Layer_1
  10
11.443878
  20
14.48432
  0
VERTEX
  5
464
  8
Layer_1
  10
11.415009
  20
14.505907
  0
VERTEX
  5
465
  8
Layer_1
  10
11.388378
  20
14.53011
  0
VERTEX
  5
466
  8
Layer_1
  10
11.364176
  20
14.556741
  0
VERTEX
  5
467
  8
Layer_1
  10
11.342587
  20
14.58561
  0
VERTEX
  5
468
  8
Layer_1
  10
11.323804
  20
14.616529
  0
VERTEX
  5
469
  8
Layer_1
  10
11.308012
  20
14.649309
  0
VERTEX
  5
46a
  8
Layer_1
  10
11.295402
  20
14.683762
  0
VERTEX
  5
46b
  8
Layer_1
  10
11.286162
  20
14.7197
  0
VERTEX
  5
46c
  8
Layer_1
  10
11.280479
  20
14.756934
  0
VERTEX
  5
46d
  8
Layer_1
  10
11.278543
  20
14.795276
  0
SEQEND
  0
POLYLINE
  5
46f
  8
Layer_0
  62
4
  70
1
  66
1
  10
0
  20
0
  30
0
  0
VERTEX
  5
46f
  8
Layer_0
  10
12.518354
  20
12.30156
  0
VERTEX
  5
470
  8
Layer_0
  10
12.508906
  20
12.298043
  0
VERTEX
  5
471
  8
Layer_0
  10
12.507361
  20
12.289304
  0
VERTEX
  5
472
  8
Layer_0
  10
12.513261
  20
12.287865
  0
VERTEX
  5
473
  8
Layer_0
  10
12.519332
  20
12.287852
  0
VERTEX
  5
474
  8
Layer_0
  10
12.519522
  20
12.294755
  0
VERTEX
  5
475
  8
Layer_0
  10
12.518354
  20
12.30156
  0
SEQEND
  0
POLYLINE
  5
477
  8
Layer_0
  62
4
  70
1
  66
1
  10
0
  20
0
  30
0
  0
VERTEX
  5
477
  8
Layer_0
  10
13.488704
  20
14.936697
  0
VERTEX
  5
478
  8
Layer_0
  10
13.474678
  20
14.960182
  0
VERTEX
  5
479
  8
Layer_0
  10
13.452387
  20
14.977512
  0
VERTEX
  5
47a
  8
Layer_0
  10
13.439548
  20
14.990361
  0
VERTEX
  5
47b
  8
Layer_0
  10
13.410337
  20
15.007819
  0
VERTEX
  5
47c
  8
Layer_0
  10
13.385828
  20
15.013347
  0
VERTEX
  5
47d
  8
Layer_0
  10
13.360271
  20
15.027103
  0
VERTEX
  5
47e
  8
Layer_0
  10
13.333693
  20
15.038764
  0
VERTEX
  5
47f
  8
Layer_0
  10
13.307882
  20
15.04047
  0
VERTEX
  5
480
  8
Layer_0
  10
13.286986
  20
15.033318
  0
VERTEX
  5
481
  8
Layer_0
  10
13.276829
  20
15.024736
  0
VERTEX
  5
482
  8
Layer_0
  10
13.252975
  20
15.035153
  0
VERTEX
  5
483
  8
Layer_0
  10
13.228258
  20
15.04332
  0
VERTEX
  5
484
  8
Layer_0
  10
13.209237
  20
15.052219
  0
VERTEX
  5
485
  8
Layer_0
  10
13.189874
  20
15.060328
  0
VERTEX
  5
486
  8
Layer_0
  10
13.170195
  20
15.067636
  0
VERTEX
  5
487
  8
Layer_0
  10
13.150227
  20
15.074137
  0
VERTEX
  5
488
  8
Layer_0
  10
13.125998
  20
15.08658
  0
VERTEX
  5
489
  8
Layer_0
  10
13.104741
  20
15.093277
  0
VERTEX
  5
48a
  8
Layer_0
  10
13.093086
  20
15.103491
  0
VERTEX
  5
48b
  8
Layer_0
  10
13.100793
  20
15.112731
  0
VERTEX
  5
48c
  8
Layer_0
  10
13.121701
  20
15.128805
  0
VERTEX
  5
48d
  8
Layer_0
  10
13.151396
  20
15.137641
  0
VERTEX
  5
48e
  8
Layer_0
  10
13.19943
  20
15.142378
  0
VERTEX
  5
48f
  8
Layer_0
  10
13.247138
  20
15.14972
  0
VERTEX
  5
490
  8
Layer_0
  10
13.278928
  20
15.15901
  0
VERTEX
  5
491
  8
Layer_0
  10
13.311415
  20
15.165456
  0
VERTEX
  5
492
  8
Layer_0
  10
13.363584
  20
15.180123
  0
VERTEX
  5
493
  8
Layer_0
  10
13.41621
  20
15.193059
  0
VERTEX
  5
494
  8
Layer_0
  10
13.439634
  20
15.203856
  0
VERTEX
  5
495
  8
Layer_0
  10
13.452442
  20
15.214387
  0
VERTEX
  5
496
  8
Layer_0
  10
13.452743
  20
15.230685
  0
VERTEX
  5
497
  8
Layer_0
  10
13.44172
  20
15.25027
  0
VERTEX
  5
498
  8
Layer_0
  10
13.41456
  20
15.269506
  0
VERTEX
  5
499
  8
Layer_0
  10
13.388466
  20
15.290166
  0
VERTEX
  5
49a
  8
Layer_0
  10
13.365317
  20
15.294437
  0
VERTEX
  5
49b
  8
Layer_0
  10
13.356761
  20
15.305823
  0
VERTEX
  5
49c
  8
Layer_0
  10
13.33871
  20
15.311232
  0
VERTEX
  5
49d
  8
Layer_0
  10
13.250813
  20
15.349305
  0
VERTEX
  5
49e
  8
Layer_0
  10
13.232515
  20
15.349642
  0
VERTEX
  5
49f
  8
Layer_0
  10
13.2047
  20
15.367689
  0
VERTEX
  5
4a0
  8
Layer_0
  10
13.186379
  20
15.366796
  0
VERTEX
  5
4a1
  8
Layer_0
  10
13.158528
  20
15.382998
  0
VERTEX
  5
4a2
  8
Layer_0
  10
13.127848
  20
15.387409
  0
VERTEX
  5
4a3
  8
Layer_0
  10
13.052294
  20
15.410795
  0
VERTEX
  5
4a4
  8
Layer_0
  10
12.988219
  20
15.414437
  0
VERTEX
  5
4a5
  8
Layer_0
  10
12.983352
  20
15.425756
  0
VERTEX
  5
4a6
  8
Layer_0
  10
12.956709
  20
15.440704
  0
VERTEX
  5
4a7
  8
Layer_0
  10
12.904108
  20
15.44921
  0
VERTEX
  5
4a8
  8
Layer_0
  10
12.879521
  20
15.442125
  0
VERTEX
  5
4a9
  8
Layer_0
  10
12.868491
  20
15.427871
  0
VERTEX
  5
4aa
  8
Layer_0
  10
12.859358
  20
15.408043
  0
VERTEX
  5
4ab
  8
Layer_0
  10
12.860027
  20
15.381048
  0
VERTEX
  5
4ac
  8
Layer_0
  10
12.859594
  20
15.354049
  0
VERTEX
  5
4ad
  8
Layer_0
  10
12.862986
  20
15.329376
  0
VERTEX
  5
4ae
  8
Layer_0
  10
12.882972
  20
15.314881
  0
VERTEX
  5
4af
  8
Layer_0
  10
12.903852
  20
15.301706
  0
VERTEX
  5
4b0
  8
Layer_0
  10
12.927186
  20
15.307583
  0
VERTEX
  5
4b1
  8
Layer_0
  10
12.954271
  20
15.308314
  0
VERTEX
  5
4b2
  8
Layer_0
  10
12.967088
  20
15.319306
  0
VERTEX
  5
4b3
  8
Layer_0
  10
13.003353
  20
15.317409
  0
VERTEX
  5
4b4
  8
Layer_0
  10
13.070929
  20
15.303551
  0
VERTEX
  5
4b5
  8
Layer_0
  10
13.1274
  20
15.296358
  0
VERTEX
  5
4b6
  8
Layer_0
  10
13.143085
  20
15.296069
  0
VERTEX
  5
4b7
  8
Layer_0
  10
13.184912
  20
15.287147
  0
VERTEX
  5
4b8
  8
Layer_0
  10
13.258225
  20
15.275645
  0
VERTEX
  5
4b9
  8
Layer_0
  10
13.289484
  20
15.264328
  0
VERTEX
  5
4ba
  8
Layer_0
  10
13.320556
  20
15.252501
  0
VERTEX
  5
4bb
  8
Layer_0
  10
13.337484
  20
15.244653
  0
VERTEX
  5
4bc
  8
Layer_0
  10
13.33036
  20
15.230347
  0
VERTEX
  5
4bd
  8
Layer_0
  10
13.321897
  20
15.216791
  0
VERTEX
  5
4be
  8
Layer_0
  10
13.298326
  20
15.206458
  0
VERTEX
  5
4bf
  8
Layer_0
  10
13.270049
  20
15.199442
  0
VERTEX
  5
4c0
  8
Layer_0
  10
13.238451
  20
15.187565
  0
VERTEX
  5
4c1
  8
Layer_0
  10
13.207048
  20
15.180681
  0
VERTEX
  5
4c2
  8
Layer_0
  10
13.175318
  20
15.175499
  0
VERTEX
  5
4c3
  8
Layer_0
  10
13.11356
  20
15.162793
  0
VERTEX
  5
4c4
  8
Layer_0
  10
13.086454
  20
15.152679
  0
VERTEX
  5
4c5
  8
Layer_0
  10
13.06247
  20
15.137327
  0
VERTEX
  5
4c6
  8
Layer_0
  10
13.038066
  20
15.122655
  0
VERTEX
  5
4c7
  8
Layer_0
  10
13.030219
  20
15.105878
  0
VERTEX
  5
4c8
  8
Layer_0
  10
13.036314
  20
15.094383
  0
VERTEX
  5
4c9
  8
Layer_0
  10
13.046279
  20
15.084203
  0
VERTEX
  5
4ca
  8
Layer_0
  10
13.065476
  20
15.074311
  0
VERTEX
  5
4cb
  8
Layer_0
  10
13.137813
  20
15.04991
  0
VERTEX
  5
4cc
  8
Layer_0
  10
13.210248
  20
15.025809
  0
VERTEX
  5
4cd
  8
Layer_0
  10
13.247037
  20
15.010673
  0
VERTEX
  5
4ce
  8
Layer_0
  10
13.278709
  20
14.99317
  0
VERTEX
  5
4cf
  8
Layer_0
  10
13.304196
  20
14.973935
  0
VERTEX
  5
4d0
  8
Layer_0
  10
13.320798
  20
14.95671
  0
VERTEX
  5
4d1
  8
Layer_0
  10
13.314853
  20
14.942976
  0
VERTEX
  5
4d2
  8
Layer_0
  10
13.302111
  20
14.927521
  0
VERTEX
  5
4d3
  8
Layer_0
  10
13.27429
  20
14.926961
  0
VERTEX
  5
4d4
  8
Layer_0
  10
13.246664
  20
14.92362
  0
VERTEX
  5
4d5
  8
Layer_0
  10
13.222067
  20
14.91592
  0
VERTEX
  5
4d6
  8
Layer_0
  10
13.200229
  20
14.924476
  0
VERTEX
  5
4d7
  8
Layer_0
  10
13.160805
  20
14.930277
  0
VERTEX
  5
4d8
  8
Layer_0
  10
13.120646
  20
14.929633
  0
VERTEX
  5
4d9
  8
Layer_0
  10
13.092286
  20
14.926464
  0
VERTEX
  5
4da
  8
Layer_0
  10
13.074585
  20
14.917407
  0
VERTEX
  5
4db
  8
Layer_0
  10
13.021867
  20
14.919608
  0
VERTEX
  5
4dc
  8
Layer_0
  10
12.995872
  20
14.911319
  0
VERTEX
  5
4dd
  8
Layer_0
  10
12.964505
  20
14.911897
  0
VERTEX
  5
4de
  8
Layer_0
  10
12.926032
  20
14.902454
  0
VERTEX
  5
4df
  8
Layer_0
  10
12.905055
  20
14.890996
  0
VERTEX
  5
4e0
  8
Layer_0
  10
12.868081
  20
14.887833
  0
VERTEX
  5
4e1
  8
Layer_0
  10
12.825238
  20
14.879273
  0
VERTEX
  5
4e2
  8
Layer_0
  10
12.782824
  20
14.868792
  0
VERTEX
  5
4e3
  8
Layer_0
  10
12.731374
  20
14.864663
  0
VERTEX
  5
4e4
  8
Layer_0
  10
12.683276
  20
14.850475
  0
VERTEX
  5
4e5
  8
Layer_0
  10
12.633103
  20
14.848938
  0
VERTEX
  5
4e6
  8
Layer_0
  10
12.624339
  20
14.849099
  0
VERTEX
  5
4e7
  8
Layer_0
  10
12.609733
  20
14.841063
  0
VERTEX
  5
4e8
  8
Layer_0
  10
12.576205
  20
14.832911
  0
VERTEX
  5
4e9
  8
Layer_0
  10
12.55913
  20
14.824459
  0
VERTEX
  5
4ea
  8
Layer_0
  10
12.564669
  20
14.816205
  0
VERTEX
  5
4eb
  8
Layer_0
  10
12.570927
  20
14.813629
  0
VERTEX
  5
4ec
  8
Layer_0
  10
12.622284
  20
14.812682
  0
VERTEX
  5
4ed
  8
Layer_0
  10
12.691337
  20
14.818216
  0
VERTEX
  5
4ee
  8
Layer_0
  10
12.760191
  20
14.825831
  0
VERTEX
  5
4ef
  8
Layer_0
  10
12.806651
  20
14.826206
  0
VERTEX
  5
4f0
  8
Layer_0
  10
12.820475
  20
14.833489
  0
VERTEX
  5
4f1
  8
Layer_0
  10
12.889052
  20
14.832226
  0
VERTEX
  5
4f2
  8
Layer_0
  10
12.922404
  20
14.839149
  0
VERTEX
  5
4f3
  8
Layer_0
  10
12.939179
  20
14.831303
  0
VERTEX
  5
4f4
  8
Layer_0
  10
12.981239
  20
14.826683
  0
VERTEX
  5
4f5
  8
Layer_0
  10
13.040536
  20
14.824845
  0
VERTEX
  5
4f6
  8
Layer_0
  10
13.099724
  20
14.820809
  0
VERTEX
  5
4f7
  8
Layer_0
  10
13.134297
  20
14.818942
  0
VERTEX
  5
4f8
  8
Layer_0
  10
13.204774
  20
14.828873
  0
VERTEX
  5
4f9
  8
Layer_0
  10
13.259774
  20
14.828138
  0
VERTEX
  5
4fa
  8
Layer_0
  10
13.314763
  20
14.829461
  0
VERTEX
  5
4fb
  8
Layer_0
  10
13.347957
  20
14.827612
  0
VERTEX
  5
4fc
  8
Layer_0
  10
13.381142
  20
14.825624
  0
VERTEX
  5
4fd
  8
Layer_0
  10
13.395988
  20
14.82547
  0
VERTEX
  5
4fe
  8
Layer_0
  10
13.410813
  20
14.826084
  0
VERTEX
  5
4ff
  8
Layer_0
  10
13.425588
  20
14.827465
  0
VERTEX
  5
500
  8
Layer_0
  10
13.440279
  20
14.829611
  0
VERTEX
  5
501
  8
Layer_0
  10
13.460073
  20
14.843704
  0
VERTEX
  5
502
  8
Layer_0
  10
13.476068
  20
14.860331
  0
VERTEX
  5
503
  8
Layer_0
  10
13.488916
  20
14.881474
  0
VERTEX
  5
504
  8
Layer_0
  10
13.49194
  20
14.902311
  0
VERTEX
  5
505
  8
Layer_0
  10
13.497213
  20
14.922697
  0
VERTEX
  5
506
  8
Layer_0
  10
13.488704
  20
14.936697
  0
SEQEND
  0
POLYLINE
  5
508
  8
Layer_0
  62
4
  70
1
  66
1
  10
0
  20
0
  30
0
  0
VERTEX
  5
508
  8
Layer_0
  10
12.515495
  20
11.737111
  0
VERTEX
  5
509
  8
Layer_0
  10
12.511628
  20
11.73595
  0
VERTEX
  5
50a
  8
Layer_0
  10
12.510645
  20
11.733399
  0
VERTEX
  5
50b
  8
Layer_0
  10
12.510532
  20
11.730738
  0
VERTEX
  5
50c
  8
Layer_0
  10
12.511269
  20
11.728177
  0
VERTEX
  5
50d
  8
Layer_0
  10
12.512829
  20
11.725931
  0
VERTEX
  5
50e
  8
Layer_0
  10
12.517773
  20
11.727071
  0
VERTEX
  5
50f
  8
Layer_0
  10
12.519118
  20
11.733353
  0
VERTEX
  5
510
  8
Layer_0
  10
12.515495
  20
11.737111
  0
SEQEND
  0
POLYLINE
  5
512
  8
Layer_0
  62
4
  70
1
  66
1
  10
0
  20
0
  30
0
  0
VERTEX
  5
512
  8
Layer_0
  10
13.41807
  20
14.032948
  0
VERTEX
  5
513
  8
Layer_0
  10
13.40395
  20
14.051359
  0
VERTEX
  5
514
  8
Layer_0
  10
13.401035
  20
14.093557
  0
VERTEX
  5
515
  8
Layer_0
  10
13.391292
  20
14.115733
  0
VERTEX
  5
516
  8
Layer_0
  10
13.394357
  20
14.140133
  0
VERTEX
  5
517
  8
Layer_0
  10
13.384542
  20
14.158463
  0
VERTEX
  5
518
  8
Layer_0
  10
13.365659
  20
14.176342
  0
VERTEX
  5
519
  8
Layer_0
  10
13.347529
  20
14.194985
  0
VERTEX
  5
51a
  8
Layer_0
  10
13.324624
  20
14.212326
  0
VERTEX
  5
51b
  8
Layer_0
  10
13.298179
  20
14.238039
  0
VERTEX
  5
51c
  8
Layer_0
  10
13.280668
  20
14.247745
  0
VERTEX
  5
51d
  8
Layer_0
  10
13.262803
  20
14.263147
  0
VERTEX
  5
51e
  8
Layer_0
  10
13.240837
  20
14.27597
  0
VERTEX
  5
51f
  8
Layer_0
  10
13.218471
  20
14.288062
  0
VERTEX
  5
520
  8
Layer_0
  10
13.195722
  20
14.299418
  0
VERTEX
  5
521
  8
Layer_0
  10
13.172607
  20
14.31003
  0
VERTEX
  5
522
  8
Layer_0
  10
13.138824
  20
14.313113
  0
VERTEX
  5
523
  8
Layer_0
  10
13.102975
  20
14.312543
  0
VERTEX
  5
524
  8
Layer_0
  10
13.078429
  20
14.30886
  0
VERTEX
  5
525
  8
Layer_0
  10
13.053786
  20
14.305913
  0
VERTEX
  5
526
  8
Layer_0
  10
13.021942
  20
14.314034
  0
VERTEX
  5
527
  8
Layer_0
  10
12.972965
  20
14.315708
  0
VERTEX
  5
528
  8
Layer_0
  10
12.923972
  20
14.31461
  0
VERTEX
  5
529
  8
Layer_0
  10
12.902682
  20
14.311156
  0
VERTEX
  5
52a
  8
Layer_0
  10
12.877918
  20
14.302844
  0
VERTEX
  5
52b
  8
Layer_0
  10
12.867113
  20
14.29243
  0
VERTEX
  5
52c
  8
Layer_0
  10
12.851951
  20
14.287634
  0
VERTEX
  5
52d
  8
Layer_0
  10
12.840914
  20
14.26461
  0
VERTEX
  5
52e
  8
Layer_0
  10
12.829489
  20
14.262361
  0
VERTEX
  5
52f
  8
Layer_0
  10
12.815722
  20
14.233082
  0
VERTEX
  5
530
  8
Layer_0
  10
12.798592
  20
14.188175
  0
VERTEX
  5
531
  8
Layer_0
  10
12.797089
  20
14.166452
  0
VERTEX
  5
532
  8
Layer_0
  10
12.794102
  20
14.144882
  0
VERTEX
  5
533
  8
Layer_0
  10
12.804356
  20
14.091934
  0
VERTEX
  5
534
  8
Layer_0
  10
12.815598
  20
14.073228
  0
VERTEX
  5
535
  8
Layer_0
  10
12.825649
  20
14.053857
  0
VERTEX
  5
536
  8
Layer_0
  10
12.812149
  20
14.039032
  0
VERTEX
  5
537
  8
Layer_0
  10
12.791892
  20
14.024947
  0
VERTEX
  5
538
  8
Layer_0
  10
12.764786
  20
14.022985
  0
VERTEX
  5
539
  8
Layer_0
  10
12.736227
  20
14.013996
  0
VERTEX
  5
53a
  8
Layer_0
  10
12.707404
  20
14.005891
  0
VERTEX
  5
53b
  8
Layer_0
  10
12.68011
  20
13.99378
  0
VERTEX
  5
53c
  8
Layer_0
  10
12.657242
  20
13.979744
  0
VERTEX
  5
53d
  8
Layer_0
  10
12.623229
  20
13.970372
  0
VERTEX
  5
53e
  8
Layer_0
  10
12.599989
  20
13.969569
  0
VERTEX
  5
53f
  8
Layer_0
  10
12.590906
  20
13.960815
  0
VERTEX
  5
540
  8
Layer_0
  10
12.572716
  20
13.95869
  0
VERTEX
  5
541
  8
Layer_0
  10
12.556222
  20
13.94838
  0
VERTEX
  5
542
  8
Layer_0
  10
12.552169
  20
13.937073
  0
VERTEX
  5
543
  8
Layer_0
  10
12.558322
  20
13.928807
  0
VERTEX
  5
544
  8
Layer_0
  10
12.566994
  20
13.923571
  0
VERTEX
  5
545
  8
Layer_0
  10
12.578988
  20
13.923349
  0
VERTEX
  5
546
  8
Layer_0
  10
12.597678
  20
13.919315
  0
VERTEX
  5
547
  8
Layer_0
  10
12.609788
  20
13.925398
  0
VERTEX
  5
548
  8
Layer_0
  10
12.637384
  20
13.928396
  0
VERTEX
  5
549
  8
Layer_0
  10
12.665093
  20
13.930071
  0
VERTEX
  5
54a
  8
Layer_0
  10
12.703543
  20
13.93813
  0
VERTEX
  5
54b
  8
Layer_0
  10
12.73054
  20
13.93875
  0
VERTEX
  5
54c
  8
Layer_0
  10
12.757541
  20
13.938626
  0
VERTEX
  5
54d
  8
Layer_0
  10
12.784528
  20
13.937757
  0
VERTEX
  5
54e
  8
Layer_0
  10
12.811483
  20
13.936142
  0
VERTEX
  5
54f
  8
Layer_0
  10
12.847926
  20
13.935471
  0
VERTEX
  5
550
  8
Layer_0
  10
12.878585
  20
13.929831
  0
VERTEX
  5
551
  8
Layer_0
  10
12.91004
  20
13.930521
  0
VERTEX
  5
552
  8
Layer_0
  10
12.941497
  20
13.929902
  0
VERTEX
  5
553
  8
Layer_0
  10
12.966883
  20
13.938478
  0
VERTEX
  5
554
  8
Layer_0
  10
12.991972
  20
13.947891
  0
VERTEX
  5
555
  8
Layer_0
  10
13.02168
  20
13.952107
  0
VERTEX
  5
556
  8
Layer_0
  10
13.051212
  20
13.957414
  0
VERTEX
  5
557
  8
Layer_0
  10
13.0758
  20
13.964498
  0
VERTEX
  5
558
  8
Layer_0
  10
13.089405
  20
13.985012
  0
VERTEX
  5
559
  8
Layer_0
  10
13.090994
  20
14.004364
  0
VERTEX
  5
55a
  8
Layer_0
  10
13.086106
  20
14.014606
  0
VERTEX
  5
55b
  8
Layer_0
  10
13.077198
  20
14.022037
  0
VERTEX
  5
55c
  8
Layer_0
  10
13.068228
  20
14.029393
  0
VERTEX
  5
55d
  8
Layer_0
  10
13.056302
  20
14.033304
  0
VERTEX
  5
55e
  8
Layer_0
  10
13.028096
  20
14.030132
  0
VERTEX
  5
55f
  8
Layer_0
  10
13.014419
  20
14.039152
  0
VERTEX
  5
560
  8
Layer_0
  10
12.986264
  20
14.047208
  0
VERTEX
  5
561
  8
Layer_0
  10
12.957455
  20
14.051183
  0
VERTEX
  5
562
  8
Layer_0
  10
12.928742
  20
14.055804
  0
VERTEX
  5
563
  8
Layer_0
  10
12.885996
  20
14.056591
  0
VERTEX
  5
564
  8
Layer_0
  10
12.865045
  20
14.072848
  0
VERTEX
  5
565
  8
Layer_0
  10
12.845871
  20
14.09117
  0
VERTEX
  5
566
  8
Layer_0
  10
12.837909
  20
14.101468
  0
VERTEX
  5
567
  8
Layer_0
  10
12.838149
  20
14.114539
  0
VERTEX
  5
568
  8
Layer_0
  10
12.834782
  20
14.140441
  0
VERTEX
  5
569
  8
Layer_0
  10
12.841743
  20
14.175998
  0
VERTEX
  5
56a
  8
Layer_0
  10
12.855231
  20
14.204123
  0
VERTEX
  5
56b
  8
Layer_0
  10
12.866026
  20
14.233385
  0
VERTEX
  5
56c
  8
Layer_0
  10
12.884505
  20
14.251195
  0
VERTEX
  5
56d
  8
Layer_0
  10
12.91187
  20
14.267149
  0
VERTEX
  5
56e
  8
Layer_0
  10
12.950329
  20
14.275825
  0
VERTEX
  5
56f
  8
Layer_0
  10
12.98288
  20
14.27261
  0
VERTEX
  5
570
  8
Layer_0
  10
13.01679
  20
14.26605
  0
VERTEX
  5
571
  8
Layer_0
  10
13.050448
  20
14.258291
  0
VERTEX
  5
572
  8
Layer_0
  10
13.077511
  20
14.257792
  0
VERTEX
  5
573
  8
Layer_0
  10
13.110652
  20
14.253336
  0
VERTEX
  5
574
  8
Layer_0
  10
13.140679
  20
14.240662
  0
VERTEX
  5
575
  8
Layer_0
  10
13.171115
  20
14.228996
  0
VERTEX
  5
576
  8
Layer_0
  10
13.207035
  20
14.204656
  0
VERTEX
  5
577
  8
Layer_0
  10
13.241868
  20
14.178781
  0
VERTEX
  5
578
  8
Layer_0
  10
13.254589
  20
14.159627
  0
VERTEX
  5
579
  8
Layer_0
  10
13.269552
  20
14.15366
  0
VERTEX
  5
57a
  8
Layer_0
  10
13.287815
  20
14.126277
  0
VERTEX
  5
57b
  8
Layer_0
  10
13.306231
  20
14.098995
  0
VERTEX
  5
57c
  8
Layer_0
  10
13.321942
  20
14.066712
  0
VERTEX
  5
57d
  8
Layer_0
  10
13.328411
  20
14.042136
  0
VERTEX
  5
57e
  8
Layer_0
  10
13.321549
  20
14.020555
  0
VERTEX
  5
57f
  8
Layer_0
  10
13.314542
  20
13.999017
  0
VERTEX
  5
580
  8
Layer_0
  10
13.313918
  20
13.965188
  0
VERTEX
  5
581
  8
Layer_0
  10
13.321106
  20
13.946136
  0
VERTEX
  5
582
  8
Layer_0
  10
13.333863
  20
13.928982
  0
VERTEX
  5
583
  8
Layer_0
  10
13.342511
  20
13.922516
  0
VERTEX
  5
584
  8
Layer_0
  10
13.352022
  20
13.92111
  0
VERTEX
  5
585
  8
Layer_0
  10
13.369597
  20
13.923247
  0
VERTEX
  5
586
  8
Layer_0
  10
13.381754
  20
13.931945
  0
VERTEX
  5
587
  8
Layer_0
  10
13.398192
  20
13.939179
  0
VERTEX
  5
588
  8
Layer_0
  10
13.414165
  20
13.954574
  0
VERTEX
  5
589
  8
Layer_0
  10
13.423263
  20
13.972557
  0
VERTEX
  5
58a
  8
Layer_0
  10
13.428836
  20
13.999526
  0
VERTEX
  5
58b
  8
Layer_0
  10
13.41807
  20
14.032948
  0
SEQEND
  0
POLYLINE
  5
58d
  8
Layer_0
  62
4
  70
1
  66
1
  10
0
  20
0
  30
0
  0
VERTEX
  5
58d
  8
Layer_0
  10
13.453143
  20
11.469276
  0
VERTEX
  5
58e
  8
Layer_0
  10
13.449772
  20
11.495025
  0
VERTEX
  5
58f
  8
Layer_0
  10
13.432127
  20
11.522421
  0
VERTEX
  5
590
  8
Layer_0
  10
13.430165
  20
11.549529
  0
VERTEX
  5
591
  8
Layer_0
  10
13.41205
  20
11.559862
  0
VERTEX
  5
592
  8
Layer_0
  10
13.39213
  20
11.563919
  0
VERTEX
  5
593
  8
Layer_0
  10
13.367343
  20
11.554379
  0
VERTEX
  5
594
  8
Layer_0
  10
13.34422
  20
11.559879
  0
VERTEX
  5
595
  8
Layer_0
  10
13.322138
  20
11.555211
  0
VERTEX
  5
596
  8
Layer_0
  10
13.299638
  20
11.563454
  0
VERTEX
  5
597
  8
Layer_0
  10
13.277385
  20
11.572339
  0
VERTEX
  5
598
  8
Layer_0
  10
13.247894
  20
11.574022
  0
VERTEX
  5
599
  8
Layer_0
  10
13.218363
  20
11.574656
  0
VERTEX
  5
59a
  8
Layer_0
  10
13.172976
  20
11.583876
  0
VERTEX
  5
59b
  8
Layer_0
  10
13.127648
  20
11.593401
  0
VERTEX
  5
59c
  8
Layer_0
  10
13.096507
  20
11.59514
  0
VERTEX
  5
59d
  8
Layer_0
  10
13.065619
  20
11.599464
  0
VERTEX
  5
59e
  8
Layer_0
  10
13.038541
  20
11.599902
  0
VERTEX
  5
59f
  8
Layer_0
  10
13.011518
  20
11.601692
  0
VERTEX
  5
5a0
  8
Layer_0
  10
12.990414
  20
11.608387
  0
VERTEX
  5
5a1
  8
Layer_0
  10
12.956469
  20
11.611012
  0
VERTEX
  5
5a2
  8
Layer_0
  10
12.941338
  20
11.614655
  0
VERTEX
  5
5a3
  8
Layer_0
  10
12.926049
  20
11.617522
  0
VERTEX
  5
5a4
  8
Layer_0
  10
12.910635
  20
11.619608
  0
VERTEX
  5
5a5
  8
Layer_0
  10
12.895126
  20
11.620909
  0
VERTEX
  5
5a6
  8
Layer_0
  10
12.868333
  20
11.627709
  0
VERTEX
  5
5a7
  8
Layer_0
  10
12.848353
  20
11.629212
  0
VERTEX
  5
5a8
  8
Layer_0
  10
12.828753
  20
11.633361
  0
VERTEX
  5
5a9
  8
Layer_0
  10
12.810678
  20
11.637539
  0
VERTEX
  5
5aa
  8
Layer_0
  10
12.779927
  20
11.638105
  0
VERTEX
  5
5ab
  8
Layer_0
  10
12.759798
  20
11.642577
  0
VERTEX
  5
5ac
  8
Layer_0
  10
12.739967
  20
11.648223
  0
VERTEX
  5
5ad
  8
Layer_0
  10
12.690752
  20
11.651366
  0
VERTEX
  5
5ae
  8
Layer_0
  10
12.64145
  20
11.652499
  0
VERTEX
  5
5af
  8
Layer_0
  10
12.609882
  20
11.65062
  0
VERTEX
  5
5b0
  8
Layer_0
  10
12.591766
  20
11.640084
  0
VERTEX
  5
5b1
  8
Layer_0
  10
12.573805
  20
11.629288
  0
VERTEX
  5
5b2
  8
Layer_0
  10
12.566111
  20
11.620663
  0
VERTEX
  5
5b3
  8
Layer_0
  10
12.563275
  20
11.608718
  0
VERTEX
  5
5b4
  8
Layer_0
  10
12.568142
  20
11.5974
  0
VERTEX
  5
5b5
  8
Layer_0
  10
12.572061
  20
11.593926
  0
VERTEX
  5
5b6
  8
Layer_0
  10
12.576442
  20
11.59112
  0
VERTEX
  5
5b7
  8
Layer_0
  10
12.581205
  20
11.589023
  0
VERTEX
  5
5b8
  8
Layer_0
  10
12.586267
  20
11.587683
  0
VERTEX
  5
5b9
  8
Layer_0
  10
12.602668
  20
11.592918
  0
VERTEX
  5
5ba
  8
Layer_0
  10
12.61316
  20
11.60178
  0
VERTEX
  5
5bb
  8
Layer_0
  10
12.624956
  20
11.608812
  0
VERTEX
  5
5bc
  8
Layer_0
  10
12.637411
  20
11.608582
  0
VERTEX
  5
5bd
  8
Layer_0
  10
12.690084
  20
11.603921
  0
VERTEX
  5
5be
  8
Layer_0
  10
12.720566
  20
11.603122
  0
VERTEX
  5
5bf
  8
Layer_0
  10
12.750929
  20
11.60034
  0
VERTEX
  5
5c0
  8
Layer_0
  10
12.816114
  20
11.590217
  0
VERTEX
  5
5c1
  8
Layer_0
  10
12.840438
  20
11.583002
  0
VERTEX
  5
5c2
  8
Layer_0
  10
12.868706
  20
11.581097
  0
VERTEX
  5
5c3
  8
Layer_0
  10
12.915003
  20
11.572707
  0
VERTEX
  5
5c4
  8
Layer_0
  10
12.944364
  20
11.563399
  0
VERTEX
  5
5c5
  8
Layer_0
  10
12.962485
  20
11.561834
  0
VERTEX
  5
5c6
  8
Layer_0
  10
12.961965
  20
11.533542
  0
VERTEX
  5
5c7
  8
Layer_0
  10
12.944507
  20
11.504331
  0
VERTEX
  5
5c8
  8
Layer_0
  10
12.920792
  20
11.47785
  0
VERTEX
  5
5c9
  8
Layer_0
  10
12.891012
  20
11.454329
  0
VERTEX
  5
5ca
  8
Layer_0
  10
12.860869
  20
11.431271
  0
VERTEX
  5
5cb
  8
Layer_0
  10
12.825999
  20
11.408687
  0
VERTEX
  5
5cc
  8
Layer_0
  10
12.793121
  20
11.381469
  0
VERTEX
  5
5cd
  8
Layer_0
  10
12.759038
  20
11.355777
  0
VERTEX
  5
5ce
  8
Layer_0
  10
12.73118
  20
11.326563
  0
VERTEX
  5
5cf
  8
Layer_0
  10
12.702752
  20
11.297903
  0
VERTEX
  5
5d0
  8
Layer_0
  10
12.674472
  20
11.276138
  0
VERTEX
  5
5d1
  8
Layer_0
  10
12.647773
  20
11.252463
  0
VERTEX
  5
5d2
  8
Layer_0
  10
12.633783
  20
11.245111
  0
VERTEX
  5
5d3
  8
Layer_0
  10
12.620206
  20
11.237043
  0
VERTEX
  5
5d4
  8
Layer_0
  10
12.607068
  20
11.22828
  0
VERTEX
  5
5d5
  8
Layer_0
  10
12.594395
  20
11.218838
  0
VERTEX
  5
5d6
  8
Layer_0
  10
12.56319
  20
11.194956
  0
VERTEX
  5
5d7
  8
Layer_0
  10
12.54216
  20
11.172116
  0
VERTEX
  5
5d8
  8
Layer_0
  10
12.516943
  20
11.139203
  0
VERTEX
  5
5d9
  8
Layer_0
  10
12.51009
  20
11.127939
  0
VERTEX
  5
5da
  8
Layer_0
  10
12.50406
  20
11.116214
  0
VERTEX
  5
5db
  8
Layer_0
  10
12.503888
  20
11.106834
  0
VERTEX
  5
5dc
  8
Layer_0
  10
12.506279
  20
11.1031
  0
VERTEX
  5
5dd
  8
Layer_0
  10
12.515067
  20
11.104168
  0
VERTEX
  5
5de
  8
Layer_0
  10
12.526637
  20
11.111794
  0
VERTEX
  5
5df
  8
Layer_0
  10
12.537744
  20
11.120063
  0
VERTEX
  5
5e0
  8
Layer_0
  10
12.54836
  20
11.12895
  0
VERTEX
  5
5e1
  8
Layer_0
  10
12.558459
  20
11.138438
  0
VERTEX
  5
5e2
  8
Layer_0
  10
12.582131
  20
11.162613
  0
VERTEX
  5
5e3
  8
Layer_0
  10
12.606946
  20
11.182153
  0
VERTEX
  5
5e4
  8
Layer_0
  10
12.630827
  20
11.196343
  0
VERTEX
  5
5e5
  8
Layer_0
  10
12.654542
  20
11.210808
  0
VERTEX
  5
5e6
  8
Layer_0
  10
12.680024
  20
11.221364
  0
VERTEX
  5
5e7
  8
Layer_0
  10
12.706412
  20
11.229387
  0
VERTEX
  5
5e8
  8
Layer_0
  10
12.731172
  20
11.245851
  0
VERTEX
  5
5e9
  8
Layer_0
  10
12.758857
  20
11.258776
  0
VERTEX
  5
5ea
  8
Layer_0
  10
12.785818
  20
11.273147
  0
VERTEX
  5
5eb
  8
Layer_0
  10
12.809876
  20
11.283017
  0
VERTEX
  5
5ec
  8
Layer_0
  10
12.832683
  20
11.295509
  0
VERTEX
  5
5ed
  8
Layer_0
  10
12.878385
  20
11.321586
  0
VERTEX
  5
5ee
  8
Layer_0
  10
12.921917
  20
11.338472
  0
VERTEX
  5
5ef
  8
Layer_0
  10
12.941252
  20
11.342718
  0
VERTEX
  5
5f0
  8
Layer_0
  10
12.959806
  20
11.349619
  0
VERTEX
  5
5f1
  8
Layer_0
  10
12.978835
  20
11.355575
  0
VERTEX
  5
5f2
  8
Layer_0
  10
13.003284
  20
11.355124
  0
VERTEX
  5
5f3
  8
Layer_0
  10
13.014855
  20
11.336915
  0
VERTEX
  5
5f4
  8
Layer_0
  10
13.02459
  20
11.317662
  0
VERTEX
  5
5f5
  8
Layer_0
  10
13.039126
  20
11.299099
  0
VERTEX
  5
5f6
  8
Layer_0
  10
13.052188
  20
11.279469
  0
VERTEX
  5
5f7
  8
Layer_0
  10
13.073701
  20
11.261538
  0
VERTEX
  5
5f8
  8
Layer_0
  10
13.100542
  20
11.249046
  0
VERTEX
  5
5f9
  8
Layer_0
  10
13.122438
  20
11.243721
  0
VERTEX
  5
5fa
  8
Layer_0
  10
13.142216
  20
11.242455
  0
VERTEX
  5
5fb
  8
Layer_0
  10
13.161878
  20
11.240095
  0
VERTEX
  5
5fc
  8
Layer_0
  10
13.181378
  20
11.236651
  0
VERTEX
  5
5fd
  8
Layer_0
  10
13.200672
  20
11.232128
  0
VERTEX
  5
5fe
  8
Layer_0
  10
13.228908
  20
11.228532
  0
VERTEX
  5
5ff
  8
Layer_0
  10
13.242803
  20
11.231352
  0
VERTEX
  5
600
  8
Layer_0
  10
13.271072
  20
11.229602
  0
VERTEX
  5
601
  8
Layer_0
  10
13.295731
  20
11.240529
  0
VERTEX
  5
602
  8
Layer_0
  10
13.316335
  20
11.240149
  0
VERTEX
  5
603
  8
Layer_0
  10
13.348678
  20
11.250782
  0
VERTEX
  5
604
  8
Layer_0
  10
13.372727
  20
11.263224
  0
VERTEX
  5
605
  8
Layer_0
  10
13.396818
  20
11.275582
  0
VERTEX
  5
606
  8
Layer_0
  10
13.414868
  20
11.293847
  0
VERTEX
  5
607
  8
Layer_0
  10
13.43075
  20
11.314027
  0
VERTEX
  5
608
  8
Layer_0
  10
13.438721
  20
11.333123
  0
VERTEX
  5
609
  8
Layer_0
  10
13.447139
  20
11.352025
  0
VERTEX
  5
60a
  8
Layer_0
  10
13.450736
  20
11.381206
  0
VERTEX
  5
60b
  8
Layer_0
  10
13.452937
  20
11.410508
  0
VERTEX
  5
60c
  8
Layer_0
  10
13.453741
  20
11.439882
  0
VERTEX
  5
60d
  8
Layer_0
  10
13.453143
  20
11.469276
  0
SEQEND
  0
POLYLINE
  5
60f
  8
Layer_0
  62
4
  70
1
  66
1
  10
0
  20
0
  30
0
  0
VERTEX
  5
60f
  8
Layer_0
  10
13.464358
  20
12.078178
  0
VERTEX
  5
610
  8
Layer_0
  10
13.454469
  20
12.084051
  0
VERTEX
  5
611
  8
Layer_0
  10
13.453223
  20
12.091611
  0
VERTEX
  5
612
  8
Layer_0
  10
13.442868
  20
12.105646
  0
VERTEX
  5
613
  8
Layer_0
  10
13.443019
  20
12.113795
  0
VERTEX
  5
614
  8
Layer_0
  10
13.426787
  20
12.117785
  0
VERTEX
  5
615
  8
Layer_0
  10
13.41727
  20
12.110424
  0
VERTEX
  5
616
  8
Layer_0
  10
13.396559
  20
12.11342
  0
VERTEX
  5
617
  8
Layer_0
  10
13.376244
  20
12.104412
  0
VERTEX
  5
618
  8
Layer_0
  10
13.359375
  20
12.107183
  0
VERTEX
  5
619
  8
Layer_0
  10
13.351769
  20
12.103478
  0
VERTEX
  5
61a
  8
Layer_0
  10
13.34123
  20
12.107517
  0
VERTEX
  5
61b
  8
Layer_0
  10
13.330003
  20
12.115876
  0
VERTEX
  5
61c
  8
Layer_0
  10
13.313157
  20
12.119879
  0
VERTEX
  5
61d
  8
Layer_0
  10
13.304603
  20
12.131419
  0
VERTEX
  5
61e
  8
Layer_0
  10
13.28436
  20
12.142179
  0
VERTEX
  5
61f
  8
Layer_0
  10
13.263442
  20
12.151557
  0
VERTEX
  5
620
  8
Layer_0
  10
13.235352
  20
12.15469
  0
VERTEX
  5
621
  8
Layer_0
  10
13.203906
  20
12.152536
  0
VERTEX
  5
622
  8
Layer_0
  10
13.172391
  20
12.152003
  0
VERTEX
  5
623
  8
Layer_0
  10
13.162491
  20
12.157261
  0
VERTEX
  5
624
  8
Layer_0
  10
13.140548
  20
12.160127
  0
VERTEX
  5
625
  8
Layer_0
  10
13.101844
  20
12.171607
  0
VERTEX
  5
626
  8
Layer_0
  10
13.070469
  20
12.177235
  0
VERTEX
  5
627
  8
Layer_0
  10
13.039315
  20
12.183987
  0
VERTEX
  5
628
  8
Layer_0
  10
13.027682
  20
12.182951
  0
VERTEX
  5
629
  8
Layer_0
  10
13.016097
  20
12.184415
  0
VERTEX
  5
62a
  8
Layer_0
  10
12.998485
  20
12.188584
  0
VERTEX
  5
62b
  8
Layer_0
  10
12.975894
  20
12.204888
  0
VERTEX
  5
62c
  8
Layer_0
  10
12.952615
  20
12.220193
  0
VERTEX
  5
62d
  8
Layer_0
  10
12.94097
  20
12.23102
  0
VERTEX
  5
62e
  8
Layer_0
  10
12.933436
  20
12.231159
  0
VERTEX
  5
62f
  8
Layer_0
  10
12.910566
  20
12.2505
  0
VERTEX
  5
630
  8
Layer_0
  10
12.903451
  20
12.250333
  0
VERTEX
  5
631
  8
Layer_0
  10
12.89668
  20
12.24814
  0
VERTEX
  5
632
  8
Layer_0
  10
12.891675
  20
12.252077
  0
VERTEX
  5
633
  8
Layer_0
  10
12.870933
  20
12.250888
  0
VERTEX
  5
634
  8
Layer_0
  10
12.850244
  20
12.248996
  0
VERTEX
  5
635
  8
Layer_0
  10
12.826404
  20
12.241217
  0
VERTEX
  5
636
  8
Layer_0
  10
12.80346
  20
12.231092
  0
VERTEX
  5
637
  8
Layer_0
  10
12.787008
  20
12.231395
  0
VERTEX
  5
638
  8
Layer_0
  10
12.76142
  20
12.236787
  0
VERTEX
  5
639
  8
Layer_0
  10
12.74446
  20
12.234639
  0
VERTEX
  5
63a
  8
Layer_0
  10
12.740733
  20
12.241014
  0
VERTEX
  5
63b
  8
Layer_0
  10
12.715122
  20
12.245178
  0
VERTEX
  5
63c
  8
Layer_0
  10
12.692092
  20
12.255754
  0
VERTEX
  5
63d
  8
Layer_0
  10
12.687212
  20
12.266457
  0
VERTEX
  5
63e
  8
Layer_0
  10
12.67395
  20
12.273163
  0
VERTEX
  5
63f
  8
Layer_0
  10
12.660537
  20
12.279561
  0
VERTEX
  5
640
  8
Layer_0
  10
12.65445
  20
12.291517
  0
VERTEX
  5
641
  8
Layer_0
  10
12.642457
  20
12.291739
  0
VERTEX
  5
642
  8
Layer_0
  10
12.638906
  20
12.29934
  0
VERTEX
  5
643
  8
Layer_0
  10
12.630212
  20
12.303346
  0
VERTEX
  5
644
  8
Layer_0
  10
12.615735
  20
12.302382
  0
VERTEX
  5
645
  8
Layer_0
  10
12.599552
  20
12.308987
  0
VERTEX
  5
646
  8
Layer_0
  10
12.573721
  20
12.309463
  0
VERTEX
  5
647
  8
Layer_0
  10
12.564224
  20
12.30333
  0
VERTEX
  5
648
  8
Layer_0
  10
12.551616
  20
12.303563
  0
VERTEX
  5
649
  8
Layer_0
  10
12.546579
  20
12.297349
  0
VERTEX
  5
64a
  8
Layer_0
  10
12.535654
  20
12.288782
  0
VERTEX
  5
64b
  8
Layer_0
  10
12.535433
  20
12.27679
  0
VERTEX
  5
64c
  8
Layer_0
  10
12.530243
  20
12.270577
  0
VERTEX
  5
64d
  8
Layer_0
  10
12.532575
  20
12.249169
  0
VERTEX
  5
64e
  8
Layer_0
  10
12.535764
  20
12.22787
  0
VERTEX
  5
64f
  8
Layer_0
  10
12.556092
  20
12.204269
  0
VERTEX
  5
650
  8
Layer_0
  10
12.572752
  20
12.19012
  0
VERTEX
  5
651
  8
Layer_0
  10
12.593904
  20
12.177732
  0
VERTEX
  5
652
  8
Layer_0
  10
12.606723
  20
12.173418
  0
VERTEX
  5
653
  8
Layer_0
  10
12.619778
  20
12.169939
  0
VERTEX
  5
654
  8
Layer_0
  10
12.63303
  20
12.167311
  0
VERTEX
  5
655
  8
Layer_0
  10
12.646439
  20
12.165536
  0
VERTEX
  5
656
  8
Layer_0
  10
12.684178
  20
12.168532
  0
VERTEX
  5
657
  8
Layer_0
  10
12.695303
  20
12.166068
  0
VERTEX
  5
658
  8
Layer_0
  10
12.70657
  20
12.164488
  0
VERTEX
  5
659
  8
Layer_0
  10
12.717924
  20
12.163801
  0
VERTEX
  5
65a
  8
Layer_0
  10
12.729317
  20
12.164009
  0
VERTEX
  5
65b
  8
Layer_0
  10
12.739147
  20
12.154906
  0
VERTEX
  5
65c
  8
Layer_0
  10
12.757446
  20
12.15457
  0
VERTEX
  5
65d
  8
Layer_0
  10
12.785493
  20
12.149132
  0
VERTEX
  5
65e
  8
Layer_0
  10
12.7929
  20
12.142074
  0
VERTEX
  5
65f
  8
Layer_0
  10
12.812844
  20
12.105866
  0
VERTEX
  5
660
  8
Layer_0
  10
12.824988
  20
12.088724
  0
VERTEX
  5
661
  8
Layer_0
  10
12.835504
  20
12.083454
  0
VERTEX
  5
662
  8
Layer_0
  10
12.846324
  20
12.061258
  0
VERTEX
  5
663
  8
Layer_0
  10
12.866501
  20
12.037662
  0
VERTEX
  5
664
  8
Layer_0
  10
12.874871
  20
12.016128
  0
VERTEX
  5
665
  8
Layer_0
  10
12.879198
  20
11.986894
  0
VERTEX
  5
666
  8
Layer_0
  10
12.88256
  20
11.957535
  0
VERTEX
  5
667
  8
Layer_0
  10
12.876987
  20
11.930566
  0
VERTEX
  5
668
  8
Layer_0
  10
12.861527
  20
11.909624
  0
VERTEX
  5
669
  8
Layer_0
  10
12.844509
  20
11.904246
  0
VERTEX
  5
66a
  8
Layer_0
  10
12.814641
  20
11.877726
  0
VERTEX
  5
66b
  8
Layer_0
  10
12.804287
  20
11.866689
  0
VERTEX
  5
66c
  8
Layer_0
  10
12.780956
  20
11.852658
  0
VERTEX
  5
66d
  8
Layer_0
  10
12.757554
  20
11.843091
  0
VERTEX
  5
66e
  8
Layer_0
  10
12.741637
  20
11.830772
  0
VERTEX
  5
66f
  8
Layer_0
  10
12.696911
  20
11.815907
  0
VERTEX
  5
670
  8
Layer_0
  10
12.684756
  20
11.807363
  0
VERTEX
  5
671
  8
Layer_0
  10
12.66283
  20
11.802844
  0
VERTEX
  5
672
  8
Layer_0
  10
12.631835
  20
11.790188
  0
VERTEX
  5
673
  8
Layer_0
  10
12.599518
  20
11.772632
  0
VERTEX
  5
674
  8
Layer_0
  10
12.591524
  20
11.766305
  0
VERTEX
  5
675
  8
Layer_0
  10
12.58302
  20
11.760717
  0
VERTEX
  5
676
  8
Layer_0
  10
12.574055
  20
11.755905
  0
VERTEX
  5
677
  8
Layer_0
  10
12.564681
  20
11.751894
  0
VERTEX
  5
678
  8
Layer_0
  10
12.557015
  20
11.746312
  0
VERTEX
  5
679
  8
Layer_0
  10
12.548801
  20
11.741573
  0
VERTEX
  5
67a
  8
Layer_0
  10
12.552459
  20
11.731354
  0
VERTEX
  5
67b
  8
Layer_0
  10
12.558673
  20
11.726317
  0
VERTEX
  5
67c
  8
Layer_0
  10
12.575677
  20
11.730926
  0
VERTEX
  5
67d
  8
Layer_0
  10
12.582097
  20
11.737114
  0
VERTEX
  5
67e
  8
Layer_0
  10
12.592708
  20
11.736919
  0
VERTEX
  5
67f
  8
Layer_0
  10
12.610595
  20
11.745449
  0
VERTEX
  5
680
  8
Layer_0
  10
12.628845
  20
11.753173
  0
VERTEX
  5
681
  8
Layer_0
  10
12.632653
  20
11.75941
  0
VERTEX
  5
682
  8
Layer_0
  10
12.667957
  20
11.763835
  0
VERTEX
  5
683
  8
Layer_0
  10
12.693374
  20
11.773289
  0
VERTEX
  5
684
  8
Layer_0
  10
12.717875
  20
11.784911
  0
VERTEX
  5
685
  8
Layer_0
  10
12.741017
  20
11.793614
  0
VERTEX
  5
686
  8
Layer_0
  10
12.764623
  20
11.80097
  0
VERTEX
  5
687
  8
Layer_0
  10
12.78534
  20
11.808643
  0
VERTEX
  5
688
  8
Layer_0
  10
12.806416
  20
11.815274
  0
VERTEX
  5
689
  8
Layer_0
  10
12.824063
  20
11.824914
  0
VERTEX
  5
68a
  8
Layer_0
  10
12.842577
  20
11.832759
  0
VERTEX
  5
68b
  8
Layer_0
  10
12.860792
  20
11.836268
  0
VERTEX
  5
68c
  8
Layer_0
  10
12.875861
  20
11.835991
  0
VERTEX
  5
68d
  8
Layer_0
  10
12.883849
  20
11.827076
  0
VERTEX
  5
68e
  8
Layer_0
  10
12.893439
  20
11.804903
  0
VERTEX
  5
68f
  8
Layer_0
  10
12.896923
  20
11.785305
  0
VERTEX
  5
690
  8
Layer_0
  10
12.903136
  20
11.780269
  0
VERTEX
  5
691
  8
Layer_0
  10
12.904122
  20
11.767022
  0
VERTEX
  5
692
  8
Layer_0
  10
12.914549
  20
11.756832
  0
VERTEX
  5
693
  8
Layer_0
  10
12.920403
  20
11.753226
  0
VERTEX
  5
694
  8
Layer_0
  10
12.924533
  20
11.747727
  0
VERTEX
  5
695
  8
Layer_0
  10
12.930752
  20
11.752673
  0
VERTEX
  5
696
  8
Layer_0
  10
12.937766
  20
11.756405
  0
VERTEX
  5
697
  8
Layer_0
  10
12.943269
  20
11.77953
  0
VERTEX
  5
698
  8
Layer_0
  10
12.943692
  20
11.803377
  0
VERTEX
  5
699
  8
Layer_0
  10
12.942916
  20
11.827219
  0
VERTEX
  5
69a
  8
Layer_0
  10
12.949592
  20
11.847246
  0
VERTEX
  5
69b
  8
Layer_0
  10
12.961128
  20
11.863954
  0
VERTEX
  5
69c
  8
Layer_0
  10
12.976928
  20
11.869968
  0
VERTEX
  5
69d
  8
Layer_0
  10
12.998961
  20
11.872023
  0
VERTEX
  5
69e
  8
Layer_0
  10
13.027392
  20
11.880015
  0
VERTEX
  5
69f
  8
Layer_0
  10
13.055858
  20
11.887896
  0
VERTEX
  5
6a0
  8
Layer_0
  10
13.072887
  20
11.893888
  0
VERTEX
  5
6a1
  8
Layer_0
  10
13.084113
  20
11.893681
  0
VERTEX
  5
6a2
  8
Layer_0
  10
13.110645
  20
11.899636
  0
VERTEX
  5
6a3
  8
Layer_0
  10
13.137096
  20
11.905933
  0
VERTEX
  5
6a4
  8
Layer_0
  10
13.167917
  20
11.909058
  0
VERTEX
  5
6a5
  8
Layer_0
  10
13.186403
  20
11.918869
  0
VERTEX
  5
6a6
  8
Layer_0
  10
13.208503
  20
11.924614
  0
VERTEX
  5
6a7
  8
Layer_0
  10
13.221087
  20
11.931304
  0
VERTEX
  5
6a8
  8
Layer_0
  10
13.231259
  20
11.932502
  0
VERTEX
  5
6a9
  8
Layer_0
  10
13.254685
  20
11.943298
  0
VERTEX
  5
6aa
  8
Layer_0
  10
13.270346
  20
11.941779
  0
VERTEX
  5
6ab
  8
Layer_0
  10
13.286863
  20
11.95332
  0
VERTEX
  5
6ac
  8
Layer_0
  10
13.300202
  20
11.95938
  0
VERTEX
  5
6ad
  8
Layer_0
  10
13.311614
  20
11.969321
  0
VERTEX
  5
6ae
  8
Layer_0
  10
13.322248
  20
11.970357
  0
VERTEX
  5
6af
  8
Layer_0
  10
13.34204
  20
11.98445
  0
VERTEX
  5
6b0
  8
Layer_0
  10
13.367311
  20
11.995213
  0
VERTEX
  5
6b1
  8
Layer_0
  10
13.389393
  20
11.999882
  0
VERTEX
  5
6b2
  8
Layer_0
  10
13.41101
  20
12.0104
  0
VERTEX
  5
6b3
  8
Layer_0
  10
13.432543
  20
12.021083
  0
VERTEX
  5
6b4
  8
Layer_0
  10
13.436349
  20
12.02732
  0
VERTEX
  5
6b5
  8
Layer_0
  10
13.458602
  20
12.041215
  0
VERTEX
  5
6b6
  8
Layer_0
  10
13.466451
  20
12.058145
  0
VERTEX
  5
6b7
  8
Layer_0
  10
13.464358
  20
12.078178
  0
SEQEND
  0
POLYLINE
  5
6b9
  8
Layer_0
  62
4
  70
1
  66
1
  10
0
  20
0
  30
0
  0
VERTEX
  5
6b9
  8
Layer_0
  10
13.48269
  20
13.073488
  0
VERTEX
  5
6ba
  8
Layer_0
  10
13.477997
  20
13.094339
  0
VERTEX
  5
6bb
  8
Layer_0
  10
13.465182
  20
13.108418
  0
VERTEX
  5
6bc
  8
Layer_0
  10
13.443717
  20
13.103739
  0
VERTEX
  5
6bd
  8
Layer_0
  10
13.431862
  20
13.111493
  0
VERTEX
  5
6be
  8
Layer_0
  10
13.409873
  20
13.111899
  0
VERTEX
  5
6bf
  8
Layer_0
  10
13.390975
  20
13.10471
  0
VERTEX
  5
6c0
  8
Layer_0
  10
13.381235
  20
13.106133
  0
VERTEX
  5
6c1
  8
Layer_0
  10
13.371448
  20
13.10507
  0
VERTEX
  5
6c2
  8
Layer_0
  10
13.358318
  20
13.110388
  0
VERTEX
  5
6c3
  8
Layer_0
  10
13.343249
  20
13.110664
  0
VERTEX
  5
6c4
  8
Layer_0
  10
13.3439
  20
13.141737
  0
VERTEX
  5
6c5
  8
Layer_0
  10
13.345777
  20
13.172759
  0
VERTEX
  5
6c6
  8
Layer_0
  10
13.346414
  20
13.207356
  0
VERTEX
  5
6c7
  8
Layer_0
  10
13.350576
  20
13.232966
  0
VERTEX
  5
6c8
  8
Layer_0
  10
13.350854
  20
13.248035
  0
VERTEX
  5
6c9
  8
Layer_0
  10
13.355288
  20
13.257982
  0
VERTEX
  5
6ca
  8
Layer_0
  10
13.359003
  20
13.268205
  0
VERTEX
  5
6cb
  8
Layer_0
  10
13.361987
  20
13.278663
  0
VERTEX
  5
6cc
  8
Layer_0
  10
13.364226
  20
13.289319
  0
VERTEX
  5
6cd
  8
Layer_0
  10
13.358258
  20
13.307579
  0
VERTEX
  5
6ce
  8
Layer_0
  10
13.347041
  20
13.316553
  0
VERTEX
  5
6cf
  8
Layer_0
  10
13.328967
  20
13.320732
  0
VERTEX
  5
6d0
  8
Layer_0
  10
13.315012
  20
13.314683
  0
VERTEX
  5
6d1
  8
Layer_0
  10
13.306664
  20
13.304069
  0
VERTEX
  5
6d2
  8
Layer_0
  10
13.298763
  20
13.284219
  0
VERTEX
  5
6d3
  8
Layer_0
  10
13.29838
  20
13.263461
  0
VERTEX
  5
6d4
  8
Layer_0
  10
13.301751
  20
13.237711
  0
VERTEX
  5
6d5
  8
Layer_0
  10
13.307822
  20
13.224987
  0
VERTEX
  5
6d6
  8
Layer_0
  10
13.307556
  20
13.210533
  0
VERTEX
  5
6d7
  8
Layer_0
  10
13.315988
  20
13.15885
  0
VERTEX
  5
6d8
  8
Layer_0
  10
13.315699
  20
13.143166
  0
VERTEX
  5
6d9
  8
Layer_0
  10
13.318929
  20
13.125338
  0
VERTEX
  5
6da
  8
Layer_0
  10
13.31996
  20
13.107248
  0
VERTEX
  5
6db
  8
Layer_0
  10
13.296858
  20
13.11398
  0
VERTEX
  5
6dc
  8
Layer_0
  10
13.276163
  20
13.109439
  0
VERTEX
  5
6dd
  8
Layer_0
  10
13.210813
  20
13.110642
  0
VERTEX
  5
6de
  8
Layer_0
  10
13.16303
  20
13.105217
  0
VERTEX
  5
6df
  8
Layer_0
  10
13.146346
  20
13.117982
  0
VERTEX
  5
6e0
  8
Layer_0
  10
13.134829
  20
13.110658
  0
VERTEX
  5
6e1
  8
Layer_0
  10
13.020582
  20
13.112761
  0
VERTEX
  5
6e2
  8
Layer_0
  10
12.980359
  20
13.108581
  0
VERTEX
  5
6e3
  8
Layer_0
  10
12.963933
  20
13.109125
  0
VERTEX
  5
6e4
  8
Layer_0
  10
12.947519
  20
13.10866
  0
VERTEX
  5
6e5
  8
Layer_0
  10
12.931165
  20
13.107187
  0
VERTEX
  5
6e6
  8
Layer_0
  10
12.914917
  20
13.10471
  0
VERTEX
  5
6e7
  8
Layer_0
  10
12.89423
  20
13.108936
  0
VERTEX
  5
6e8
  8
Layer_0
  10
12.87483
  20
13.107909
  0
VERTEX
  5
6e9
  8
Layer_0
  10
12.844103
  20
13.109859
  0
VERTEX
  5
6ea
  8
Layer_0
  10
12.82079
  20
13.105213
  0
VERTEX
  5
6eb
  8
Layer_0
  10
12.803085
  20
13.104308
  0
VERTEX
  5
6ec
  8
Layer_0
  10
12.774842
  20
13.099137
  0
VERTEX
  5
6ed
  8
Layer_0
  10
12.764184
  20
13.105025
  0
VERTEX
  5
6ee
  8
Layer_0
  10
12.763092
  20
13.112581
  0
VERTEX
  5
6ef
  8
Layer_0
  10
12.752097
  20
13.125244
  0
VERTEX
  5
6f0
  8
Layer_0
  10
12.749749
  20
13.139746
  0
VERTEX
  5
6f1
  8
Layer_0
  10
12.750247
  20
13.166808
  0
VERTEX
  5
6f2
  8
Layer_0
  10
12.738951
  20
13.196548
  0
VERTEX
  5
6f3
  8
Layer_0
  10
12.720928
  20
13.21715
  0
VERTEX
  5
6f4
  8
Layer_0
  10
12.703886
  20
13.238571
  0
VERTEX
  5
6f5
  8
Layer_0
  10
12.686042
  20
13.255204
  0
VERTEX
  5
6f6
  8
Layer_0
  10
12.662973
  20
13.263781
  0
VERTEX
  5
6f7
  8
Layer_0
  10
12.635878
  20
13.262435
  0
VERTEX
  5
6f8
  8
Layer_0
  10
12.623085
  20
13.252672
  0
VERTEX
  5
6f9
  8
Layer_0
  10
12.612221
  20
13.239029
  0
VERTEX
  5
6fa
  8
Layer_0
  10
12.597047
  20
13.233616
  0
VERTEX
  5
6fb
  8
Layer_0
  10
12.584731
  20
13.216309
  0
VERTEX
  5
6fc
  8
Layer_0
  10
12.578269
  20
13.199509
  0
VERTEX
  5
6fd
  8
Layer_0
  10
12.577931
  20
13.181211
  0
VERTEX
  5
6fe
  8
Layer_0
  10
12.583667
  20
13.158494
  0
VERTEX
  5
6ff
  8
Layer_0
  10
12.591481
  20
13.140199
  0
VERTEX
  5
700
  8
Layer_0
  10
12.600307
  20
13.129261
  0
VERTEX
  5
701
  8
Layer_0
  10
12.610012
  20
13.119094
  0
VERTEX
  5
702
  8
Layer_0
  10
12.61539
  20
13.102075
  0
VERTEX
  5
703
  8
Layer_0
  10
12.613927
  20
13.089489
  0
VERTEX
  5
704
  8
Layer_0
  10
12.601821
  20
13.083559
  0
VERTEX
  5
705
  8
Layer_0
  10
12.59663
  20
13.077349
  0
VERTEX
  5
706
  8
Layer_0
  10
12.596524
  20
13.071659
  0
VERTEX
  5
707
  8
Layer_0
  10
12.601483
  20
13.065262
  0
VERTEX
  5
708
  8
Layer_0
  10
12.608972
  20
13.062663
  0
VERTEX
  5
709
  8
Layer_0
  10
12.626587
  20
13.064474
  0
VERTEX
  5
70a
  8
Layer_0
  10
12.644252
  20
13.065703
  0
VERTEX
  5
70b
  8
Layer_0
  10
12.659208
  20
13.059276
  0
VERTEX
  5
70c
  8
Layer_0
  10
12.670755
  20
13.043221
  0
VERTEX
  5
70d
  8
Layer_0
  10
12.683404
  20
13.007594
  0
VERTEX
  5
70e
  8
Layer_0
  10
12.693888
  20
12.97127
  0
VERTEX
  5
70f
  8
Layer_0
  10
12.698313
  20
12.935965
  0
VERTEX
  5
710
  8
Layer_0
  10
12.697607
  20
12.897677
  0
VERTEX
  5
711
  8
Layer_0
  10
12.703944
  20
12.885317
  0
VERTEX
  5
712
  8
Layer_0
  10
12.712249
  20
12.874182
  0
VERTEX
  5
713
  8
Layer_0
  10
12.722857
  20
12.873987
  0
VERTEX
  5
714
  8
Layer_0
  10
12.728072
  20
12.881428
  0
VERTEX
  5
715
  8
Layer_0
  10
12.730845
  20
12.898449
  0
VERTEX
  5
716
  8
Layer_0
  10
12.728638
  20
12.91218
  0
VERTEX
  5
717
  8
Layer_0
  10
12.740444
  20
12.935188
  0
VERTEX
  5
718
  8
Layer_0
  10
12.747812
  20
12.967815
  0
VERTEX
  5
719
  8
Layer_0
  10
12.749542
  20
12.986549
  0
VERTEX
  5
71a
  8
Layer_0
  10
12.761217
  20
13.010791
  0
VERTEX
  5
71b
  8
Layer_0
  10
12.766696
  20
13.032685
  0
VERTEX
  5
71c
  8
Layer_0
  10
12.768286
  20
13.052191
  0
VERTEX
  5
71d
  8
Layer_0
  10
12.77438
  20
13.074075
  0
VERTEX
  5
71e
  8
Layer_0
  10
12.804536
  20
13.077141
  0
VERTEX
  5
71f
  8
Layer_0
  10
12.834771
  20
13.079268
  0
VERTEX
  5
720
  8
Layer_0
  10
12.861609
  20
13.074928
  0
VERTEX
  5
721
  8
Layer_0
  10
12.947563
  20
13.073346
  0
VERTEX
  5
722
  8
Layer_0
  10
12.982114
  20
13.070249
  0
VERTEX
  5
723
  8
Layer_0
  10
13.009245
  20
13.07344
  0
VERTEX
  5
724
  8
Layer_0
  10
13.033626
  20
13.0693
  0
VERTEX
  5
725
  8
Layer_0
  10
13.061917
  20
13.068778
  0
VERTEX
  5
726
  8
Layer_0
  10
13.075055
  20
13.072228
  0
VERTEX
  5
727
  8
Layer_0
  10
13.09261
  20
13.064984
  0
VERTEX
  5
728
  8
Layer_0
  10
13.121717
  20
13.063338
  0
VERTEX
  5
729
  8
Layer_0
  10
13.150865
  20
13.062679
  0
VERTEX
  5
72a
  8
Layer_0
  10
13.18027
  20
13.055831
  0
VERTEX
  5
72b
  8
Layer_0
  10
13.201167
  20
13.062984
  0
VERTEX
  5
72c
  8
Layer_0
  10
13.217376
  20
13.057763
  0
VERTEX
  5
72d
  8
Layer_0
  10
13.239409
  20
13.059818
  0
VERTEX
  5
72e
  8
Layer_0
  10
13.252655
  20
13.056571
  0
VERTEX
  5
72f
  8
Layer_0
  10
13.266079
  20
13.054269
  0
VERTEX
  5
730
  8
Layer_0
  10
13.279633
  20
13.052917
  0
VERTEX
  5
731
  8
Layer_0
  10
13.293265
  20
13.05252
  0
VERTEX
  5
732
  8
Layer_0
  10
13.314022
  20
13.052137
  0
VERTEX
  5
733
  8
Layer_0
  10
13.323728
  20
13.03627
  0
VERTEX
  5
734
  8
Layer_0
  10
13.327839
  20
13.013402
  0
VERTEX
  5
735
  8
Layer_0
  10
13.330419
  20
12.99031
  0
VERTEX
  5
736
  8
Layer_0
  10
13.329721
  20
12.978343
  0
VERTEX
  5
737
  8
Layer_0
  10
13.329857
  20
12.966372
  0
VERTEX
  5
738
  8
Layer_0
  10
13.330822
  20
12.954438
  0
VERTEX
  5
739
  8
Layer_0
  10
13.332616
  20
12.942587
  0
VERTEX
  5
73a
  8
Layer_0
  10
13.328997
  20
12.91312
  0
VERTEX
  5
73b
  8
Layer_0
  10
13.33319
  20
12.898585
  0
VERTEX
  5
73c
  8
Layer_0
  10
13.33934
  20
12.898471
  0
VERTEX
  5
73d
  8
Layer_0
  10
13.343289
  20
12.90409
  0
VERTEX
  5
73e
  8
Layer_0
  10
13.343672
  20
12.92331
  0
VERTEX
  5
73f
  8
Layer_0
  10
13.346455
  20
12.942332
  0
VERTEX
  5
740
  8
Layer_0
  10
13.347066
  20
12.975545
  0
VERTEX
  5
741
  8
Layer_0
  10
13.352568
  20
12.99867
  0
VERTEX
  5
742
  8
Layer_0
  10
13.352623
  20
13.017232
  0
VERTEX
  5
743
  8
Layer_0
  10
13.354481
  20
13.035704
  0
VERTEX
  5
744
  8
Layer_0
  10
13.363965
  20
13.04122
  0
VERTEX
  5
745
  8
Layer_0
  10
13.376552
  20
13.039758
  0
VERTEX
  5
746
  8
Layer_0
  10
13.393267
  20
13.028683
  0
VERTEX
  5
747
  8
Layer_0
  10
13.411202
  20
13.029584
  0
VERTEX
  5
748
  8
Layer_0
  10
13.429093
  20
13.028023
  0
VERTEX
  5
749
  8
Layer_0
  10
13.444971
  20
13.031848
  0
VERTEX
  5
74a
  8
Layer_0
  10
13.461192
  20
13.033738
  0
VERTEX
  5
74b
  8
Layer_0
  10
13.482032
  20
13.037815
  0
VERTEX
  5
74c
  8
Layer_0
  10
13.484816
  20
13.055299
  0
VERTEX
  5
74d
  8
Layer_0
  10
13.48269
  20
13.073488
  0
SEQEND
  0
POLYLINE
  5
74f
  8
Layer_0
  62
4
  70
1
  66
1
  10
0
  20
0
  30
0
  0
VERTEX
  5
74f
  8
Layer_0
  10
13.327863
  20
12.609357
  0
VERTEX
  5
750
  8
Layer_0
  10
13.312467
  20
12.625329
  0
VERTEX
  5
751
  8
Layer_0
  10
13.298176
  20
12.634359
  0
VERTEX
  5
752
  8
Layer_0
  10
13.278957
  20
12.634623
  0
VERTEX
  5
753
  8
Layer_0
  10
13.259844
  20
12.632605
  0
VERTEX
  5
754
  8
Layer_0
  10
13.238898
  20
12.622838
  0
VERTEX
  5
755
  8
Layer_0
  10
13.224346
  20
12.620115
  0
VERTEX
  5
756
  8
Layer_0
  10
13.209988
  20
12.616556
  0
VERTEX
  5
757
  8
Layer_0
  10
13.195862
  20
12.612169
  0
VERTEX
  5
758
  8
Layer_0
  10
13.182002
  20
12.606967
  0
VERTEX
  5
759
  8
Layer_0
  10
13.154392
  20
12.606307
  0
VERTEX
  5
75a
  8
Layer_0
  10
13.126779
  20
12.606752
  0
VERTEX
  5
75b
  8
Layer_0
  10
13.107497
  20
12.612185
  0
VERTEX
  5
75c
  8
Layer_0
  10
13.087329
  20
12.611171
  0
VERTEX
  5
75d
  8
Layer_0
  10
13.032128
  20
12.612187
  0
VERTEX
  5
75e
  8
Layer_0
  10
12.997298
  20
12.610382
  0
VERTEX
  5
75f
  8
Layer_0
  10
12.962428
  20
12.611011
  0
VERTEX
  5
760
  8
Layer_0
  10
12.943516
  20
12.613461
  0
VERTEX
  5
761
  8
Layer_0
  10
12.9245
  20
12.614513
  0
VERTEX
  5
762
  8
Layer_0
  10
12.905458
  20
12.614162
  0
VERTEX
  5
763
  8
Layer_0
  10
12.886468
  20
12.61241
  0
VERTEX
  5
764
  8
Layer_0
  10
12.859347
  20
12.613029
  0
VERTEX
  5
765
  8
Layer_0
  10
12.832298
  20
12.610946
  0
VERTEX
  5
766
  8
Layer_0
  10
12.809081
  20
12.611374
  0
VERTEX
  5
767
  8
Layer_0
  10
12.788383
  20
12.60668
  0
VERTEX
  5
768
  8
Layer_0
  10
12.724263
  20
12.60786
  0
VERTEX
  5
769
  8
Layer_0
  10
12.707445
  20
12.605089
  0
VERTEX
  5
76a
  8
Layer_0
  10
12.690911
  20
12.600938
  0
VERTEX
  5
76b
  8
Layer_0
  10
12.666487
  20
12.602617
  0
VERTEX
  5
76c
  8
Layer_0
  10
12.651931
  20
12.597349
  0
VERTEX
  5
76d
  8
Layer_0
  10
12.629542
  20
12.598768
  0
VERTEX
  5
76e
  8
Layer_0
  10
12.607418
  20
12.602474
  0
VERTEX
  5
76f
  8
Layer_0
  10
12.598026
  20
12.600453
  0
VERTEX
  5
770
  8
Layer_0
  10
12.589015
  20
12.597123
  0
VERTEX
  5
771
  8
Layer_0
  10
12.597773
  20
12.588194
  0
VERTEX
  5
772
  8
Layer_0
  10
12.624736
  20
12.586467
  0
VERTEX
  5
773
  8
Layer_0
  10
12.651744
  20
12.5872
  0
VERTEX
  5
774
  8
Layer_0
  10
12.680021
  20
12.586618
  0
VERTEX
  5
775
  8
Layer_0
  10
12.708222
  20
12.588775
  0
VERTEX
  5
776
  8
Layer_0
  10
12.73706
  20
12.584398
  0
VERTEX
  5
777
  8
Layer_0
  10
12.769092
  20
12.583857
  0
VERTEX
  5
778
  8
Layer_0
  10
12.800981
  20
12.58076
  0
VERTEX
  5
779
  8
Layer_0
  10
12.82922
  20
12.582622
  0
VERTEX
  5
77a
  8
Layer_0
  10
12.857503
  20
12.583303
  0
VERTEX
  5
77b
  8
Layer_0
  10
12.885788
  20
12.582811
  0
VERTEX
  5
77c
  8
Layer_0
  10
12.914041
  20
12.581139
  0
VERTEX
  5
77d
  8
Layer_0
  10
12.943471
  20
12.575521
  0
VERTEX
  5
77e
  8
Layer_0
  10
12.969351
  20
12.577659
  0
VERTEX
  5
77f
  8
Layer_0
  10
12.994319
  20
12.574254
  0
VERTEX
  5
780
  8
Layer_0
  10
13.019384
  20
12.571661
  0
VERTEX
  5
781
  8
Layer_0
  10
13.043739
  20
12.566136
  0
VERTEX
  5
782
  8
Layer_0
  10
13.064534
  20
12.565701
  0
VERTEX
  5
783
  8
Layer_0
  10
13.085221
  20
12.563527
  0
VERTEX
  5
784
  8
Layer_0
  10
13.101358
  20
12.554463
  0
VERTEX
  5
785
  8
Layer_0
  10
13.115905
  20
12.55927
  0
VERTEX
  5
786
  8
Layer_0
  10
13.125165
  20
12.556042
  0
VERTEX
  5
787
  8
Layer_0
  10
13.134642
  20
12.553585
  0
VERTEX
  5
788
  8
Layer_0
  10
13.144287
  20
12.551911
  0
VERTEX
  5
789
  8
Layer_0
  10
13.154055
  20
12.55103
  0
VERTEX
  5
78a
  8
Layer_0
  10
13.179732
  20
12.550558
  0
VERTEX
  5
78b
  8
Layer_0
  10
13.209185
  20
12.54617
  0
VERTEX
  5
78c
  8
Layer_0
  10
13.232403
  20
12.545743
  0
VERTEX
  5
78d
  8
Layer_0
  10
13.258141
  20
12.540192
  0
VERTEX
  5
78e
  8
Layer_0
  10
13.269241
  20
12.53322
  0
VERTEX
  5
78f
  8
Layer_0
  10
13.291403
  20
12.542195
  0
VERTEX
  5
790
  8
Layer_0
  10
13.308572
  20
12.555722
  0
VERTEX
  5
791
  8
Layer_0
  10
13.323975
  20
12.573588
  0
VERTEX
  5
792
  8
Layer_0
  10
13.329952
  20
12.589168
  0
VERTEX
  5
793
  8
Layer_0
  10
13.327863
  20
12.609357
  0
SEQEND
  0
POLYLINE
  5
795
  8
Layer_0
  62
4
  70
1
  66
1
  10
0
  20
0
  30
0
  0
VERTEX
  5
795
  8
Layer_0
  10
13.469505
  20
15.907011
  0
VERTEX
  5
796
  8
Layer_0
  10
13.462968
  20
15.927896
  0
VERTEX
  5
797
  8
Layer_0
  10
13.448327
  20
15.951392
  0
VERTEX
  5
798
  8
Layer_0
  10
13.427883
  20
15.960536
  0
VERTEX
  5
799
  8
Layer_0
  10
13.399685
  20
15.966131
  0
VERTEX
  5
79a
  8
Layer_0
  10
13.377719
  20
15.967767
  0
VERTEX
  5
79b
  8
Layer_0
  10
13.365088
  20
15.966768
  0
VERTEX
  5
79c
  8
Layer_0
  10
13.347267
  20
15.949181
  0
VERTEX
  5
79d
  8
Layer_0
  10
13.328166
  20
15.932994
  0
VERTEX
  5
79e
  8
Layer_0
  10
13.3049
  20
15.930808
  0
VERTEX
  5
79f
  8
Layer_0
  10
13.292384
  20
15.936113
  0
VERTEX
  5
7a0
  8
Layer_0
  10
13.27035
  20
15.934059
  0
VERTEX
  5
7a1
  8
Layer_0
  10
13.255443
  20
15.943102
  0
VERTEX
  5
7a2
  8
Layer_0
  10
13.232225
  20
15.943529
  0
VERTEX
  5
7a3
  8
Layer_0
  10
13.202633
  20
15.940228
  0
VERTEX
  5
7a4
  8
Layer_0
  10
13.180828
  20
15.950627
  0
VERTEX
  5
7a5
  8
Layer_0
  10
13.160002
  20
15.94732
  0
VERTEX
  5
7a6
  8
Layer_0
  10
13.139524
  20
15.954618
  0
VERTEX
  5
7a7
  8
Layer_0
  10
13.120579
  20
15.953122
  0
VERTEX
  5
7a8
  8
Layer_0
  10
13.113737
  20
15.957554
  0
VERTEX
  5
7a9
  8
Layer_0
  10
13.097266
  20
15.948476
  0
VERTEX
  5
7aa
  8
Layer_0
  10
13.074175
  20
15.955823
  0
VERTEX
  5
7ab
  8
Layer_0
  10
13.03899
  20
15.949549
  0
VERTEX
  5
7ac
  8
Layer_0
  10
13.015071
  20
15.953681
  0
VERTEX
  5
7ad
  8
Layer_0
  10
12.991739
  20
15.947958
  0
VERTEX
  5
7ae
  8
Layer_0
  10
12.955403
  20
15.946012
  0
VERTEX
  5
7af
  8
Layer_0
  10
12.938745
  20
15.93509
  0
VERTEX
  5
7b0
  8
Layer_0
  10
12.907909
  20
15.931197
  0
VERTEX
  5
7b1
  8
Layer_0
  10
12.879493
  20
15.916647
  0
VERTEX
  5
7b2
  8
Layer_0
  10
12.860036
  20
15.920852
  0
VERTEX
  5
7b3
  8
Layer_0
  10
12.831673
  20
15.917528
  0
VERTEX
  5
7b4
  8
Layer_0
  10
12.801396
  20
15.899212
  0
VERTEX
  5
7b5
  8
Layer_0
  10
12.770715
  20
15.881581
  0
VERTEX
  5
7b6
  8
Layer_0
  10
12.756817
  20
15.864206
  0
VERTEX
  5
7b7
  8
Layer_0
  10
12.744368
  20
15.845766
  0
VERTEX
  5
7b8
  8
Layer_0
  10
12.728358
  20
15.828372
  0
VERTEX
  5
7b9
  8
Layer_0
  10
12.721266
  20
15.799187
  0
VERTEX
  5
7ba
  8
Layer_0
  10
12.712831
  20
15.770363
  0
VERTEX
  5
7bb
  8
Layer_0
  10
12.708815
  20
15.752748
  0
VERTEX
  5
7bc
  8
Layer_0
  10
12.709826
  20
15.740884
  0
VERTEX
  5
7bd
  8
Layer_0
  10
12.700587
  20
15.715215
  0
VERTEX
  5
7be
  8
Layer_0
  10
12.697338
  20
15.680819
  0
VERTEX
  5
7bf
  8
Layer_0
  10
12.698781
  20
15.63966
  0
VERTEX
  5
7c0
  8
Layer_0
  10
12.699667
  20
15.598485
  0
VERTEX
  5
7c1
  8
Layer_0
  10
12.695257
  20
15.567802
  0
VERTEX
  5
7c2
  8
Layer_0
  10
12.697605
  20
15.553301
  0
VERTEX
  5
7c3
  8
Layer_0
  10
12.707772
  20
15.549724
  0
VERTEX
  5
7c4
  8
Layer_0
  10
12.718093
  20
15.546617
  0
VERTEX
  5
7c5
  8
Layer_0
  10
12.727044
  20
15.556604
  0
VERTEX
  5
7c6
  8
Layer_0
  10
12.735479
  20
15.605362
  0
VERTEX
  5
7c7
  8
Layer_0
  10
12.741503
  20
15.623401
  0
VERTEX
  5
7c8
  8
Layer_0
  10
12.740655
  20
15.644182
  0
VERTEX
  5
7c9
  8
Layer_0
  10
12.747827
  20
15.67232
  0
VERTEX
  5
7ca
  8
Layer_0
  10
12.753929
  20
15.7007
  0
VERTEX
  5
7cb
  8
Layer_0
  10
12.758956
  20
15.729289
  0
VERTEX
  5
7cc
  8
Layer_0
  10
12.762902
  20
15.758057
  0
VERTEX
  5
7cd
  8
Layer_0
  10
12.778746
  20
15.787958
  0
VERTEX
  5
7ce
  8
Layer_0
  10
12.794765
  20
15.817765
  0
VERTEX
  5
7cf
  8
Layer_0
  10
12.812179
  20
15.844517
  0
VERTEX
  5
7d0
  8
Layer_0
  10
12.834522
  20
15.863486
  0
VERTEX
  5
7d1
  8
Layer_0
  10
12.88531
  20
15.89839
  0
VERTEX
  5
7d2
  8
Layer_0
  10
12.91097
  20
15.907484
  0
VERTEX
  5
7d3
  8
Layer_0
  10
12.937024
  20
15.915328
  0
VERTEX
  5
7d4
  8
Layer_0
  10
12.963426
  20
15.921912
  0
VERTEX
  5
7d5
  8
Layer_0
  10
12.990127
  20
15.927223
  0
VERTEX
  5
7d6
  8
Layer_0
  10
13.017771
  20
15.928921
  0
VERTEX
  5
7d7
  8
Layer_0
  10
13.045409
  20
15.930665
  0
VERTEX
  5
7d8
  8
Layer_0
  10
13.079926
  20
15.925569
  0
VERTEX
  5
7d9
  8
Layer_0
  10
13.05737
  20
15.89522
  0
VERTEX
  5
7da
  8
Layer_0
  10
13.068774
  20
15.863017
  0
VERTEX
  5
7db
  8
Layer_0
  10
13.069189
  20
15.842914
  0
VERTEX
  5
7dc
  8
Layer_0
  10
13.070544
  20
15.822864
  0
VERTEX
  5
7dd
  8
Layer_0
  10
13.072839
  20
15.802898
  0
VERTEX
  5
7de
  8
Layer_0
  10
13.076069
  20
15.783052
  0
VERTEX
  5
7df
  8
Layer_0
  10
13.080378
  20
15.737296
  0
VERTEX
  5
7e0
  8
Layer_0
  10
13.086848
  20
15.691795
  0
VERTEX
  5
7e1
  8
Layer_0
  10
13.084832
  20
15.649225
  0
VERTEX
  5
7e2
  8
Layer_0
  10
13.081987
  20
15.636489
  0
VERTEX
  5
7e3
  8
Layer_0
  10
13.081897
  20
15.623438
  0
VERTEX
  5
7e4
  8
Layer_0
  10
13.092229
  20
15.608174
  0
VERTEX
  5
7e5
  8
Layer_0
  10
13.097224
  20
15.603776
  0
VERTEX
  5
7e6
  8
Layer_0
  10
13.103551
  20
15.60489
  0
VERTEX
  5
7e7
  8
Layer_0
  10
13.107715
  20
15.630501
  0
VERTEX
  5
7e8
  8
Layer_0
  10
13.116314
  20
15.654799
  0
VERTEX
  5
7e9
  8
Layer_0
  10
13.115304
  20
15.666814
  0
VERTEX
  5
7ea
  8
Layer_0
  10
13.123047
  20
15.6779
  0
VERTEX
  5
7eb
  8
Layer_0
  10
13.123638
  20
15.710037
  0
VERTEX
  5
7ec
  8
Layer_0
  10
13.130766
  20
15.718322
  0
VERTEX
  5
7ed
  8
Layer_0
  10
13.137789
  20
15.726696
  0
VERTEX
  5
7ee
  8
Layer_0
  10
13.142379
  20
15.791555
  0
VERTEX
  5
7ef
  8
Layer_0
  10
13.144025
  20
15.856555
  0
VERTEX
  5
7f0
  8
Layer_0
  10
13.13685
  20
15.876223
  0
VERTEX
  5
7f1
  8
Layer_0
  10
13.117713
  20
15.897801
  0
VERTEX
  5
7f2
  8
Layer_0
  10
13.11263
  20
15.910499
  0
VERTEX
  5
7f3
  8
Layer_0
  10
13.109425
  20
15.923795
  0
VERTEX
  5
7f4
  8
Layer_0
  10
13.113219
  20
15.929416
  0
VERTEX
  5
7f5
  8
Layer_0
  10
13.149556
  20
15.923056
  0
VERTEX
  5
7f6
  8
Layer_0
  10
13.160958
  20
15.924076
  0
VERTEX
  5
7f7
  8
Layer_0
  10
13.204372
  20
15.918087
  0
VERTEX
  5
7f8
  8
Layer_0
  10
13.24798
  20
15.913706
  0
VERTEX
  5
7f9
  8
Layer_0
  10
13.280508
  20
15.909261
  0
VERTEX
  5
7fa
  8
Layer_0
  10
13.301789
  20
15.903948
  0
VERTEX
  5
7fb
  8
Layer_0
  10
13.321096
  20
15.891594
  0
VERTEX
  5
7fc
  8
Layer_0
  10
13.327055
  20
15.872719
  0
VERTEX
  5
7fd
  8
Layer_0
  10
13.333303
  20
15.836149
  0
VERTEX
  5
7fe
  8
Layer_0
  10
13.335196
  20
15.815618
  0
VERTEX
  5
7ff
  8
Layer_0
  10
13.33619
  20
15.795032
  0
VERTEX
  5
800
  8
Layer_0
  10
13.336286
  20
15.774423
  0
VERTEX
  5
801
  8
Layer_0
  10
13.335479
  20
15.753819
  0
VERTEX
  5
802
  8
Layer_0
  10
13.335831
  20
15.706129
  0
VERTEX
  5
803
  8
Layer_0
  10
13.34304
  20
15.688308
  0
VERTEX
  5
804
  8
Layer_0
  10
13.342706
  20
15.670164
  0
VERTEX
  5
805
  8
Layer_0
  10
13.34726
  20
15.641778
  0
VERTEX
  5
806
  8
Layer_0
  10
13.367254
  20
15.600032
  0
VERTEX
  5
807
  8
Layer_0
  10
13.372791
  20
15.566553
  0
VERTEX
  5
808
  8
Layer_0
  10
13.381783
  20
15.537008
  0
VERTEX
  5
809
  8
Layer_0
  10
13.380973
  20
15.493032
  0
VERTEX
  5
80a
  8
Layer_0
  10
13.372187
  20
15.476176
  0
VERTEX
  5
80b
  8
Layer_0
  10
13.364652
  20
15.458724
  0
VERTEX
  5
80c
  8
Layer_0
  10
13.364491
  20
15.449961
  0
VERTEX
  5
80d
  8
Layer_0
  10
13.368009
  20
15.440512
  0
VERTEX
  5
80e
  8
Layer_0
  10
13.379979
  20
15.439062
  0
VERTEX
  5
80f
  8
Layer_0
  10
13.39386
  20
15.449418
  0
VERTEX
  5
810
  8
Layer_0
  10
13.408389
  20
15.471409
  0
VERTEX
  5
811
  8
Layer_0
  10
13.421755
  20
15.494126
  0
VERTEX
  5
812
  8
Layer_0
  10
13.421962
  20
15.505352
  0
VERTEX
  5
813
  8
Layer_0
  10
13.428244
  20
15.525102
  0
VERTEX
  5
814
  8
Layer_0
  10
13.434687
  20
15.544802
  0
VERTEX
  5
815
  8
Layer_0
  10
13.439347
  20
15.573133
  0
VERTEX
  5
816
  8
Layer_0
  10
13.441887
  20
15.601735
  0
VERTEX
  5
817
  8
Layer_0
  10
13.451394
  20
15.633553
  0
VERTEX
  5
818
  8
Layer_0
  10
13.452143
  20
15.688861
  0
VERTEX
  5
819
  8
Layer_0
  10
13.450816
  20
15.744157
  0
VERTEX
  5
81a
  8
Layer_0
  10
13.450392
  20
15.789694
  0
VERTEX
  5
81b
  8
Layer_0
  10
13.452493
  20
15.835185
  0
VERTEX
  5
81c
  8
Layer_0
  10
13.46749
  20
15.864441
  0
VERTEX
  5
81d
  8
Layer_0
  10
13.47552
  20
15.891211
  0
VERTEX
  5
81e
  8
Layer_0
  10
13.469505
  20
15.907011
  0
SEQEND
  0
POLYLINE
  5
820
  8
Layer_0
  62
4
  70
1
  66
1
  10
0
  20
0
  30
0
  0
VERTEX
  5
820
  8
Layer_0
  10
12.744957
  20
15.877748
  0
VERTEX
  5
821
  8
Layer_0
  10
12.734346
  20
15.877944
  0
VERTEX
  5
822
  8
Layer_0
  10
12.732753
  20
15.866591
  0
VERTEX
  5
823
  8
Layer_0
  10
12.741628
  20
15.863966
  0
VERTEX
  5
824
  8
Layer_0
  10
12.7511
  20
15.868868
  0
VERTEX
  5
825
  8
Layer_0
  10
12.744957
  20
15.877748
  0
SEQEND
  0
POLYLINE
  5
827
  8
Layer_0
  62
4
  70
1
  66
1
  10
0
  20
0
  30
0
  0
VERTEX
  5
827
  8
Layer_0
  10
12.686954
  20
12.319221
  0
VERTEX
  5
828
  8
Layer_0
  10
12.68065
  20
12.319336
  0
VERTEX
  5
829
  8
Layer_0
  10
12.678074
  20
12.313078
  0
VERTEX
  5
82a
  8
Layer_0
  10
12.680431
  20
12.307497
  0
VERTEX
  5
82b
  8
Layer_0
  10
12.684299
  20
12.307429
  0
VERTEX
  5
82c
  8
Layer_0
  10
12.687988
  20
12.308588
  0
VERTEX
  5
82d
  8
Layer_0
  10
12.689346
  20
12.315484
  0
VERTEX
  5
82e
  8
Layer_0
  10
12.686954
  20
12.319221
  0
SEQEND
  0
POLYLINE
  5
830
  8
Layer_0
  62
4
  70
1
  66
1
  10
0
  20
0
  30
0
  0
VERTEX
  5
830
  8
Layer_0
  10
13.360901
  20
13.384284
  0
VERTEX
  5
831
  8
Layer_0
  10
13.346678
  20
13.38483
  0
VERTEX
  5
832
  8
Layer_0
  10
13.332654
  20
13.387266
  0
VERTEX
  5
833
  8
Layer_0
  10
13.316709
  20
13.389258
  0
VERTEX
  5
834
  8
Layer_0
  10
13.300728
  20
13.390931
  0
VERTEX
  5
835
  8
Layer_0
  10
13.284986
  20
13.388144
  0
VERTEX
  5
836
  8
Layer_0
  10
13.271205
  20
13.391474
  0
VERTEX
  5
837
  8
Layer_0
  10
13.262313
  20
13.384717
  0
VERTEX
  5
838
  8
Layer_0
  10
13.243043
  20
13.390762
  0
VERTEX
  5
839
  8
Layer_0
  10
13.218484
  20
13.391217
  0
VERTEX
  5
83a
  8
Layer_0
  10
13.193959
  20
13.389821
  0
VERTEX
  5
83b
  8
Layer_0
  10
13.16324
  20
13.392232
  0
VERTEX
  5
83c
  8
Layer_0
  10
13.137655
  20
13.397779
  0
VERTEX
  5
83d
  8
Layer_0
  10
13.108062
  20
13.394479
  0
VERTEX
  5
83e
  8
Layer_0
  10
13.082391
  20
13.403719
  0
VERTEX
  5
83f
  8
Layer_0
  10
13.053094
  20
13.408105
  0
VERTEX
  5
840
  8
Layer_0
  10
13.018043
  20
13.417518
  0
VERTEX
  5
841
  8
Layer_0
  10
12.996602
  20
13.414221
  0
VERTEX
  5
842
  8
Layer_0
  10
12.983574
  20
13.425074
  0
VERTEX
  5
843
  8
Layer_0
  10
12.970757
  20
13.426541
  0
VERTEX
  5
844
  8
Layer_0
  10
12.957896
  20
13.425547
  0
VERTEX
  5
845
  8
Layer_0
  10
12.93614
  20
13.43856
  0
VERTEX
  5
846
  8
Layer_0
  10
12.917477
  20
13.443265
  0
VERTEX
  5
847
  8
Layer_0
  10
12.899175
  20
13.449142
  0
VERTEX
  5
848
  8
Layer_0
  10
12.881285
  20
13.456177
  0
VERTEX
  5
849
  8
Layer_0
  10
12.863858
  20
13.464349
  0
VERTEX
  5
84a
  8
Layer_0
  10
12.852028
  20
13.473333
  0
VERTEX
  5
84b
  8
Layer_0
  10
12.834521
  20
13.474887
  0
VERTEX
  5
84c
  8
Layer_0
  10
12.815415
  20
13.490466
  0
VERTEX
  5
84d
  8
Layer_0
  10
12.794757
  20
13.503921
  0
VERTEX
  5
84e
  8
Layer_0
  10
12.775716
  20
13.522422
  0
VERTEX
  5
84f
  8
Layer_0
  10
12.756166
  20
13.554929
  0
VERTEX
  5
850
  8
Layer_0
  10
12.748777
  20
13.596441
  0
VERTEX
  5
851
  8
Layer_0
  10
12.747896
  20
13.607773
  0
VERTEX
  5
852
  8
Layer_0
  10
12.747949
  20
13.619119
  0
VERTEX
  5
853
  8
Layer_0
  10
12.74893
  20
13.630422
  0
VERTEX
  5
854
  8
Layer_0
  10
12.75084
  20
13.641625
  0
VERTEX
  5
855
  8
Layer_0
  10
12.756214
  20
13.665942
  0
VERTEX
  5
856
  8
Layer_0
  10
12.763722
  20
13.689686
  0
VERTEX
  5
857
  8
Layer_0
  10
12.776124
  20
13.704303
  0
VERTEX
  5
858
  8
Layer_0
  10
12.788715
  20
13.718759
  0
VERTEX
  5
859
  8
Layer_0
  10
12.809101
  20
13.73161
  0
VERTEX
  5
85a
  8
Layer_0
  10
12.840562
  20
13.736108
  0
VERTEX
  5
85b
  8
Layer_0
  10
12.886407
  20
13.736493
  0
VERTEX
  5
85c
  8
Layer_0
  10
12.924194
  20
13.742105
  0
VERTEX
  5
85d
  8
Layer_0
  10
12.952195
  20
13.734052
  0
VERTEX
  5
85e
  8
Layer_0
  10
12.987995
  20
13.732008
  0
VERTEX
  5
85f
  8
Layer_0
  10
13.018775
  20
13.722983
  0
VERTEX
  5
860
  8
Layer_0
  10
13.049168
  20
13.71273
  0
VERTEX
  5
861
  8
Layer_0
  10
13.082546
  20
13.703141
  0
VERTEX
  5
862
  8
Layer_0
  10
13.116039
  20
13.693964
  0
VERTEX
  5
863
  8
Layer_0
  10
13.146526
  20
13.678945
  0
VERTEX
  5
864
  8
Layer_0
  10
13.174177
  20
13.672803
  0
VERTEX
  5
865
  8
Layer_0
  10
13.201493
  20
13.665318
  0
VERTEX
  5
866
  8
Layer_0
  10
13.225855
  20
13.651885
  0
VERTEX
  5
867
  8
Layer_0
  10
13.248794
  20
13.636146
  0
VERTEX
  5
868
  8
Layer_0
  10
13.27177
  20
13.622648
  0
VERTEX
  5
869
  8
Layer_0
  10
13.294967
  20
13.62099
  0
VERTEX
  5
86a
  8
Layer_0
  10
13.311378
  20
13.626842
  0
VERTEX
  5
86b
  8
Layer_0
  10
13.322232
  20
13.639869
  0
VERTEX
  5
86c
  8
Layer_0
  10
13.331266
  20
13.646009
  0
VERTEX
  5
86d
  8
Layer_0
  10
13.342965
  20
13.661453
  0
VERTEX
  5
86e
  8
Layer_0
  10
13.35369
  20
13.677589
  0
VERTEX
  5
86f
  8
Layer_0
  10
13.359214
  20
13.701944
  0
VERTEX
  5
870
  8
Layer_0
  10
13.355999
  20
13.727845
  0
VERTEX
  5
871
  8
Layer_0
  10
13.348618
  20
13.743156
  0
VERTEX
  5
872
  8
Layer_0
  10
13.342113
  20
13.758863
  0
VERTEX
  5
873
  8
Layer_0
  10
13.327239
  20
13.769752
  0
VERTEX
  5
874
  8
Layer_0
  10
13.304137
  20
13.776484
  0
VERTEX
  5
875
  8
Layer_0
  10
13.285086
  20
13.774736
  0
VERTEX
  5
876
  8
Layer_0
  10
13.26635
  20
13.770872
  0
VERTEX
  5
877
  8
Layer_0
  10
13.244733
  20
13.758043
  0
VERTEX
  5
878
  8
Layer_0
  10
13.21767
  20
13.75854
  0
VERTEX
  5
879
  8
Layer_0
  10
13.192107
  20
13.765318
  0
VERTEX
  5
87a
  8
Layer_0
  10
13.16766
  20
13.765768
  0
VERTEX
  5
87b
  8
Layer_0
  10
13.140328
  20
13.77328
  0
VERTEX
  5
87c
  8
Layer_0
  10
13.112525
  20
13.778782
  0
VERTEX
  5
87d
  8
Layer_0
  10
13.093128
  20
13.777908
  0
VERTEX
  5
87e
  8
Layer_0
  10
13.067495
  20
13.780841
  0
VERTEX
  5
87f
  8
Layer_0
  10
13.049358
  20
13.789942
  0
VERTEX
  5
880
  8
Layer_0
  10
13.03183
  20
13.790265
  0
VERTEX
  5
881
  8
Layer_0
  10
13.019746
  20
13.785566
  0
VERTEX
  5
882
  8
Layer_0
  10
13.002329
  20
13.79204
  0
VERTEX
  5
883
  8
Layer_0
  10
12.972602
  20
13.795135
  0
VERTEX
  5
884
  8
Layer_0
  10
12.942718
  20
13.795753
  0
VERTEX
  5
885
  8
Layer_0
  10
12.908332
  20
13.799461
  0
VERTEX
  5
886
  8
Layer_0
  10
12.881845
  20
13.796956
  0
VERTEX
  5
887
  8
Layer_0
  10
12.855463
  20
13.793514
  0
VERTEX
  5
888
  8
Layer_0
  10
12.828355
  20
13.791553
  0
VERTEX
  5
889
  8
Layer_0
  10
12.805122
  20
13.782805
  0
VERTEX
  5
88a
  8
Layer_0
  10
12.781596
  20
13.774879
  0
VERTEX
  5
88b
  8
Layer_0
  10
12.770566
  20
13.769474
  0
VERTEX
  5
88c
  8
Layer_0
  10
12.759987
  20
13.763269
  0
VERTEX
  5
88d
  8
Layer_0
  10
12.749901
  20
13.756289
  0
VERTEX
  5
88e
  8
Layer_0
  10
12.740352
  20
13.748567
  0
VERTEX
  5
88f
  8
Layer_0
  10
12.727927
  20
13.727952
  0
VERTEX
  5
890
  8
Layer_0
  10
12.714987
  20
13.707658
  0
VERTEX
  5
891
  8
Layer_0
  10
12.708406
  20
13.684399
  0
VERTEX
  5
892
  8
Layer_0
  10
12.705725
  20
13.667628
  0
VERTEX
  5
893
  8
Layer_0
  10
12.703981
  20
13.650747
  0
VERTEX
  5
894
  8
Layer_0
  10
12.703177
  20
13.633796
  0
VERTEX
  5
895
  8
Layer_0
  10
12.703316
  20
13.616814
  0
VERTEX
  5
896
  8
Layer_0
  10
12.706923
  20
13.587987
  0
VERTEX
  5
897
  8
Layer_0
  10
12.712255
  20
13.55943
  0
VERTEX
  5
898
  8
Layer_0
  10
12.721885
  20
13.530951
  0
VERTEX
  5
899
  8
Layer_0
  10
12.74082
  20
13.506761
  0
VERTEX
  5
89a
  8
Layer_0
  10
12.763633
  20
13.484344
  0
VERTEX
  5
89b
  8
Layer_0
  10
12.790338
  20
13.464471
  0
VERTEX
  5
89c
  8
Layer_0
  10
12.817003
  20
13.450752
  0
VERTEX
  5
89d
  8
Layer_0
  10
12.842674
  20
13.441512
  0
VERTEX
  5
89e
  8
Layer_0
  10
12.852507
  20
13.432564
  0
VERTEX
  5
89f
  8
Layer_0
  10
12.876503
  20
13.427136
  0
VERTEX
  5
8a0
  8
Layer_0
  10
12.899954
  20
13.419692
  0
VERTEX
  5
8a1
  8
Layer_0
  10
12.921734
  20
13.408063
  0
VERTEX
  5
8a2
  8
Layer_0
  10
12.953691
  20
13.40609
  0
VERTEX
  5
8a3
  8
Layer_0
  10
12.973151
  20
13.40204
  0
VERTEX
  5
8a4
  8
Layer_0
  10
12.981822
  20
13.396804
  0
VERTEX
  5
8a5
  8
Layer_0
  10
12.993888
  20
13.400428
  0
VERTEX
  5
8a6
  8
Layer_0
  10
13.016292
  20
13.389248
  0
VERTEX
  5
8a7
  8
Layer_0
  10
13.035692
  20
13.390275
  0
VERTEX
  5
8a8
  8
Layer_0
  10
13.053851
  20
13.382402
  0
VERTEX
  5
8a9
  8
Layer_0
  10
13.078299
  20
13.381953
  0
VERTEX
  5
8aa
  8
Layer_0
  10
13.105069
  20
13.373922
  0
VERTEX
  5
8ab
  8
Layer_0
  10
13.128441
  20
13.373492
  0
VERTEX
  5
8ac
  8
Layer_0
  10
13.162813
  20
13.369014
  0
VERTEX
  5
8ad
  8
Layer_0
  10
13.184824
  20
13.369839
  0
VERTEX
  5
8ae
  8
Layer_0
  10
13.223065
  20
13.366673
  0
VERTEX
  5
8af
  8
Layer_0
  10
13.261784
  20
13.368077
  0
VERTEX
  5
8b0
  8
Layer_0
  10
13.30037
  20
13.371555
  0
VERTEX
  5
8b1
  8
Layer_0
  10
13.32119
  20
13.371462
  0
VERTEX
  5
8b2
  8
Layer_0
  10
13.341932
  20
13.373252
  0
VERTEX
  5
8b3
  8
Layer_0
  10
13.359393
  20
13.36924
  0
VERTEX
  5
8b4
  8
Layer_0
  10
13.364534
  20
13.372835
  0
VERTEX
  5
8b5
  8
Layer_0
  10
13.360901
  20
13.384284
  0
SEQEND
  0
POLYLINE
  5
8b7
  8
Layer_0
  62
4
  70
1
  66
1
  10
0
  20
0
  30
0
  0
VERTEX
  5
8b7
  8
Layer_0
  10
12.773941
  20
15.371931
  0
VERTEX
  5
8b8
  8
Layer_0
  10
12.772525
  20
15.361805
  0
VERTEX
  5
8b9
  8
Layer_0
  10
12.781116
  20
15.352264
  0
VERTEX
  5
8ba
  8
Layer_0
  10
12.790646
  20
15.360241
  0
VERTEX
  5
8bb
  8
Layer_0
  10
12.790833
  20
15.37039
  0
VERTEX
  5
8bc
  8
Layer_0
  10
12.773941
  20
15.371931
  0
SEQEND
  0
POLYLINE
  5
8be
  8
Layer_0
  62
4
  70
1
  66
1
  10
0
  20
0
  30
0
  0
VERTEX
  5
8be
  8
Layer_0
  10
12.769288
  20
12.864364
  0
VERTEX
  5
8bf
  8
Layer_0
  10
12.755891
  20
12.855227
  0
VERTEX
  5
8c0
  8
Layer_0
  10
12.762033
  20
12.846347
  0
VERTEX
  5
8c1
  8
Layer_0
  10
12.771413
  20
12.846175
  0
VERTEX
  5
8c2
  8
Layer_0
  10
12.777903
  20
12.856053
  0
VERTEX
  5
8c3
  8
Layer_0
  10
12.769288
  20
12.864364
  0
SEQEND
  0
POLYLINE
  5
8c5
  8
Layer_0
  62
4
  70
1
  66
1
  10
0
  20
0
  30
0
  0
VERTEX
  5
8c5
  8
Layer_0
  10
12.857563
  20
11.527312
  0
VERTEX
  5
8c6
  8
Layer_0
  10
12.85139
  20
11.526196
  0
VERTEX
  5
8c7
  8
Layer_0
  10
12.847977
  20
11.51626
  0
VERTEX
  5
8c8
  8
Layer_0
  10
12.852554
  20
11.515089
  0
VERTEX
  5
8c9
  8
Layer_0
  10
12.857226
  20
11.514852
  0
VERTEX
  5
8ca
  8
Layer_0
  10
12.861855
  20
11.515543
  0
VERTEX
  5
8cb
  8
Layer_0
  10
12.866297
  20
11.517154
  0
VERTEX
  5
8cc
  8
Layer_0
  10
12.857563
  20
11.527312
  0
SEQEND
  0
POLYLINE
  5
8ce
  8
Layer_0
  62
4
  70
1
  66
1
  10
0
  20
0
  30
0
  0
VERTEX
  5
8ce
  8
Layer_0
  10
12.93051
  20
11.738235
  0
VERTEX
  5
8cf
  8
Layer_0
  10
12.926225
  20
11.739469
  0
VERTEX
  5
8d0
  8
Layer_0
  10
12.921769
  20
11.739626
  0
VERTEX
  5
8d1
  8
Layer_0
  10
12.921926
  20
11.734922
  0
VERTEX
  5
8d2
  8
Layer_0
  10
12.924221
  20
11.730813
  0
VERTEX
  5
8d3
  8
Layer_0
  10
12.929118
  20
11.729492
  0
VERTEX
  5
8d4
  8
Layer_0
  10
12.931849
  20
11.735748
  0
VERTEX
  5
8d5
  8
Layer_0
  10
12.93051
  20
11.738235
  0
SEQEND
  0
POLYLINE
  5
8d7
  8
Layer_0
  62
4
  70
1
  66
1
  10
0
  20
0
  30
0
  0
VERTEX
  5
8d7
  8
Layer_0
  10
13.007721
  20
14.80297
  0
VERTEX
  5
8d8
  8
Layer_0
  10
12.993769
  20
14.797072
  0
VERTEX
  5
8d9
  8
Layer_0
  10
13.007363
  20
14.783594
  0
VERTEX
  5
8da
  8
Layer_0
  10
13.020782
  20
14.793961
  0
VERTEX
  5
8db
  8
Layer_0
  10
13.007721
  20
14.80297
  0
SEQEND
  0
POLYLINE
  5
8dd
  8
Layer_0
  62
4
  70
1
  66
1
  10
0
  20
0
  30
0
  0
VERTEX
  5
8dd
  8
Layer_0
  10
13.256506
  20
12.042168
  0
VERTEX
  5
8de
  8
Layer_0
  10
13.246264
  20
12.037282
  0
VERTEX
  5
8df
  8
Layer_0
  10
13.227857
  20
12.023315
  0
VERTEX
  5
8e0
  8
Layer_0
  10
13.211532
  20
12.022232
  0
VERTEX
  5
8e1
  8
Layer_0
  10
13.19059
  20
12.01262
  0
VERTEX
  5
8e2
  8
Layer_0
  10
13.145233
  20
12.005303
  0
VERTEX
  5
8e3
  8
Layer_0
  10
13.130049
  20
11.999276
  0
VERTEX
  5
8e4
  8
Layer_0
  10
13.120763
  20
12.004522
  0
VERTEX
  5
8e5
  8
Layer_0
  10
13.098474
  20
11.988629
  0
VERTEX
  5
8e6
  8
Layer_0
  10
13.065285
  20
11.990471
  0
VERTEX
  5
8e7
  8
Layer_0
  10
13.059281
  20
11.986546
  0
VERTEX
  5
8e8
  8
Layer_0
  10
13.052897
  20
11.983324
  0
VERTEX
  5
8e9
  8
Layer_0
  10
13.046194
  20
11.980836
  0
VERTEX
  5
8ea
  8
Layer_0
  10
13.039234
  20
11.979106
  0
VERTEX
  5
8eb
  8
Layer_0
  10
13.029122
  20
11.972985
  0
VERTEX
  5
8ec
  8
Layer_0
  10
13.00709
  20
11.970931
  0
VERTEX
  5
8ed
  8
Layer_0
  10
12.988865
  20
11.961118
  0
VERTEX
  5
8ee
  8
Layer_0
  10
12.969694
  20
11.953315
  0
VERTEX
  5
8ef
  8
Layer_0
  10
12.955418
  20
11.963116
  0
VERTEX
  5
8f0
  8
Layer_0
  10
12.951818
  20
11.968102
  0
VERTEX
  5
8f1
  8
Layer_0
  10
12.948288
  20
11.985242
  0
VERTEX
  5
8f2
  8
Layer_0
  10
12.953823
  20
12.010212
  0
VERTEX
  5
8f3
  8
Layer_0
  10
12.967334
  20
12.029472
  0
VERTEX
  5
8f4
  8
Layer_0
  10
12.979011
  20
12.049894
  0
VERTEX
  5
8f5
  8
Layer_0
  10
12.990831
  20
12.080292
  0
VERTEX
  5
8f6
  8
Layer_0
  10
13.004572
  20
12.109873
  0
VERTEX
  5
8f7
  8
Layer_0
  10
13.019837
  20
12.120205
  0
VERTEX
  5
8f8
  8
Layer_0
  10
13.039237
  20
12.112926
  0
VERTEX
  5
8f9
  8
Layer_0
  10
13.055003
  20
12.117096
  0
VERTEX
  5
8fa
  8
Layer_0
  10
13.069943
  20
12.109899
  0
VERTEX
  5
8fb
  8
Layer_0
  10
13.096355
  20
12.109066
  0
VERTEX
  5
8fc
  8
Layer_0
  10
13.122637
  20
12.106314
  0
VERTEX
  5
8fd
  8
Layer_0
  10
13.14078
  20
12.10598
  0
VERTEX
  5
8fe
  8
Layer_0
  10
13.14943
  20
12.099513
  0
VERTEX
  5
8ff
  8
Layer_0
  10
13.165523
  20
12.098379
  0
VERTEX
  5
900
  8
Layer_0
  10
13.181477
  20
12.096135
  0
VERTEX
  5
901
  8
Layer_0
  10
13.197238
  20
12.092788
  0
VERTEX
  5
902
  8
Layer_0
  10
13.212749
  20
12.088349
  0
VERTEX
  5
903
  8
Layer_0
  10
13.227818
  20
12.088073
  0
VERTEX
  5
904
  8
Layer_0
  10
13.242096
  20
12.078273
  0
VERTEX
  5
905
  8
Layer_0
  10
13.258444
  20
12.080586
  0
VERTEX
  5
906
  8
Layer_0
  10
13.283646
  20
12.054281
  0
VERTEX
  5
907
  8
Layer_0
  10
13.256506
  20
12.042168
  0
SEQEND
  0
POLYLINE
  5
909
  8
Layer_0
  62
4
  70
1
  66
1
  10
0
  20
0
  30
0
  0
VERTEX
  5
909
  8
Layer_0
  10
12.976013
  20
12.020724
  0
VERTEX
  5
90a
  8
Layer_0
  10
12.976126
  20
12.026875
  0
VERTEX
  5
90b
  8
Layer_0
  10
12.971078
  20
12.028352
  0
VERTEX
  5
90c
  8
Layer_0
  10
12.966656
  20
12.022127
  0
VERTEX
  5
90d
  8
Layer_0
  10
12.968362
  20
12.014559
  0
VERTEX
  5
90e
  8
Layer_0
  10
12.974667
  20
12.014442
  0
VERTEX
  5
90f
  8
Layer_0
  10
12.978403
  20
12.016835
  0
VERTEX
  5
910
  8
Layer_0
  10
12.976013
  20
12.020724
  0
SEQEND
  0
POLYLINE
  5
912
  8
Layer_0
  62
4
  70
1
  66
1
  10
0
  20
0
  30
0
  0
VERTEX
  5
912
  8
Layer_0
  10
13.003091
  20
12.229877
  0
VERTEX
  5
913
  8
Layer_0
  10
12.996288
  20
12.236308
  0
VERTEX
  5
914
  8
Layer_0
  10
12.989983
  20
12.236424
  0
VERTEX
  5
915
  8
Layer_0
  10
12.984771
  20
12.228983
  0
VERTEX
  5
916
  8
Layer_0
  10
12.98851
  20
12.223223
  0
VERTEX
  5
917
  8
Layer_0
  10
12.992649
  20
12.221876
  0
VERTEX
  5
918
  8
Layer_0
  10
12.996936
  20
12.221374
  0
VERTEX
  5
919
  8
Layer_0
  10
13.001237
  20
12.221719
  0
VERTEX
  5
91a
  8
Layer_0
  10
13.005424
  20
12.222912
  0
VERTEX
  5
91b
  8
Layer_0
  10
13.003091
  20
12.229877
  0
SEQEND
  0
POLYLINE
  5
91d
  8
Layer_0
  62
4
  70
1
  66
1
  10
0
  20
0
  30
0
  0
VERTEX
  5
91d
  8
Layer_0
  10
13.370625
  20
11.390196
  0
VERTEX
  5
91e
  8
Layer_0
  10
13.362621
  20
11.364811
  0
VERTEX
  5
91f
  8
Layer_0
  10
13.343004
  20
11.351943
  0
VERTEX
  5
920
  8
Layer_0
  10
13.295184
  20
11.352824
  0
VERTEX
  5
921
  8
Layer_0
  10
13.283845
  20
11.34688
  0
VERTEX
  5
922
  8
Layer_0
  10
13.256896
  20
11.353529
  0
VERTEX
  5
923
  8
Layer_0
  10
13.229827
  20
11.345261
  0
VERTEX
  5
924
  8
Layer_0
  10
13.201812
  20
11.360851
  0
VERTEX
  5
925
  8
Layer_0
  10
13.17925
  20
11.362514
  0
VERTEX
  5
926
  8
Layer_0
  10
13.156628
  20
11.362913
  0
VERTEX
  5
927
  8
Layer_0
  10
13.144101
  20
11.367604
  0
VERTEX
  5
928
  8
Layer_0
  10
13.13218
  20
11.363363
  0
VERTEX
  5
929
  8
Layer_0
  10
13.112803
  20
11.371874
  0
VERTEX
  5
92a
  8
Layer_0
  10
13.095685
  20
11.393736
  0
VERTEX
  5
92b
  8
Layer_0
  10
13.080407
  20
11.416922
  0
VERTEX
  5
92c
  8
Layer_0
  10
13.074483
  20
11.452612
  0
VERTEX
  5
92d
  8
Layer_0
  10
13.066642
  20
11.48793
  0
VERTEX
  5
92e
  8
Layer_0
  10
13.057573
  20
11.505016
  0
VERTEX
  5
92f
  8
Layer_0
  10
13.06284
  20
11.523685
  0
VERTEX
  5
930
  8
Layer_0
  10
13.073844
  20
11.536558
  0
VERTEX
  5
931
  8
Layer_0
  10
13.094556
  20
11.533715
  0
VERTEX
  5
932
  8
Layer_0
  10
13.109671
  20
11.535897
  0
VERTEX
  5
933
  8
Layer_0
  10
13.140378
  20
11.532871
  0
VERTEX
  5
934
  8
Layer_0
  10
13.170349
  20
11.523053
  0
VERTEX
  5
935
  8
Layer_0
  10
13.199502
  20
11.511017
  0
VERTEX
  5
936
  8
Layer_0
  10
13.265815
  20
11.495337
  0
VERTEX
  5
937
  8
Layer_0
  10
13.289033
  20
11.494909
  0
VERTEX
  5
938
  8
Layer_0
  10
13.304992
  20
11.492146
  0
VERTEX
  5
939
  8
Layer_0
  10
13.320768
  20
11.48854
  0
VERTEX
  5
93a
  8
Layer_0
  10
13.336332
  20
11.4841
  0
VERTEX
  5
93b
  8
Layer_0
  10
13.351647
  20
11.478836
  0
VERTEX
  5
93c
  8
Layer_0
  10
13.363349
  20
11.471084
  0
VERTEX
  5
93d
  8
Layer_0
  10
13.376451
  20
11.43085
  0
VERTEX
  5
93e
  8
Layer_0
  10
13.375059
  20
11.422109
  0
VERTEX
  5
93f
  8
Layer_0
  10
13.379785
  20
11.411408
  0
VERTEX
  5
940
  8
Layer_0
  10
13.370625
  20
11.390196
  0
SEQEND
  0
POLYLINE
  5
942
  8
Layer_0
  62
4
  70
1
  66
1
  10
0
  20
0
  30
0
  0
VERTEX
  5
942
  8
Layer_0
  10
13.212355
  20
13.327955
  0
VERTEX
  5
943
  8
Layer_0
  10
13.200268
  20
13.323103
  0
VERTEX
  5
944
  8
Layer_0
  10
13.200062
  20
13.311878
  0
VERTEX
  5
945
  8
Layer_0
  10
13.20938
  20
13.308475
  0
VERTEX
  5
946
  8
Layer_0
  10
13.222049
  20
13.311472
  0
VERTEX
  5
947
  8
Layer_0
  10
13.224693
  20
13.321422
  0
VERTEX
  5
948
  8
Layer_0
  10
13.212355
  20
13.327955
  0
SEQEND
  0
POLYLINE
  5
94a
  8
Layer_0
  62
4
  70
1
  66
1
  10
0
  20
0
  30
0
  0
VERTEX
  5
94a
  8
Layer_0
  10
13.421989
  20
12.441811
  0
VERTEX
  5
94b
  8
Layer_0
  10
13.425098
  20
12.468671
  0
VERTEX
  5
94c
  8
Layer_0
  10
13.421636
  20
12.489499
  0
VERTEX
  5
94d
  8
Layer_0
  10
13.421149
  20
12.542314
  0
VERTEX
  5
94e
  8
Layer_0
  10
13.418658
  20
12.595071
  0
VERTEX
  5
94f
  8
Layer_0
  10
13.418697
  20
12.622101
  0
VERTEX
  5
950
  8
Layer_0
  10
13.419656
  20
12.649105
  0
VERTEX
  5
951
  8
Layer_0
  10
13.421536
  20
12.67606
  0
VERTEX
  5
952
  8
Layer_0
  10
13.424336
  20
12.702945
  0
VERTEX
  5
953
  8
Layer_0
  10
13.425113
  20
12.745075
  0
VERTEX
  5
954
  8
Layer_0
  10
13.422138
  20
12.784045
  0
VERTEX
  5
955
  8
Layer_0
  10
13.416285
  20
12.80861
  0
VERTEX
  5
956
  8
Layer_0
  10
13.403537
  20
12.834686
  0
VERTEX
  5
957
  8
Layer_0
  10
13.398764
  20
12.851078
  0
VERTEX
  5
958
  8
Layer_0
  10
13.388964
  20
12.861873
  0
VERTEX
  5
959
  8
Layer_0
  10
13.37349
  20
12.87354
  0
VERTEX
  5
95a
  8
Layer_0
  10
13.352777
  20
12.876383
  0
VERTEX
  5
95b
  8
Layer_0
  10
13.335202
  20
12.874245
  0
VERTEX
  5
95c
  8
Layer_0
  10
13.324338
  20
12.861942
  0
VERTEX
  5
95d
  8
Layer_0
  10
13.314059
  20
12.849157
  0
VERTEX
  5
95e
  8
Layer_0
  10
13.304384
  20
12.83591
  0
VERTEX
  5
95f
  8
Layer_0
  10
13.295329
  20
12.82222
  0
VERTEX
  5
960
  8
Layer_0
  10
13.284768
  20
12.791652
  0
VERTEX
  5
961
  8
Layer_0
  10
13.284607
  20
12.774284
  0
VERTEX
  5
962
  8
Layer_0
  10
13.285366
  20
12.756947
  0
VERTEX
  5
963
  8
Layer_0
  10
13.287047
  20
12.739672
  0
VERTEX
  5
964
  8
Layer_0
  10
13.289646
  20
12.722499
  0
VERTEX
  5
965
  8
Layer_0
  10
13.296706
  20
12.696528
  0
VERTEX
  5
966
  8
Layer_0
  10
13.307004
  20
12.676692
  0
VERTEX
  5
967
  8
Layer_0
  10
13.317977
  20
12.657221
  0
VERTEX
  5
968
  8
Layer_0
  10
13.328579
  20
12.648258
  0
VERTEX
  5
969
  8
Layer_0
  10
13.333428
  20
12.624638
  0
VERTEX
  5
96a
  8
Layer_0
  10
13.339042
  20
12.601194
  0
VERTEX
  5
96b
  8
Layer_0
  10
13.345416
  20
12.577946
  0
VERTEX
  5
96c
  8
Layer_0
  10
13.352548
  20
12.554913
  0
VERTEX
  5
96d
  8
Layer_0
  10
13.358943
  20
12.516026
  0
VERTEX
  5
96e
  8
Layer_0
  10
13.366193
  20
12.477292
  0
VERTEX
  5
96f
  8
Layer_0
  10
13.366532
  20
12.428988
  0
VERTEX
  5
970
  8
Layer_0
  10
13.373072
  20
12.374878
  0
VERTEX
  5
971
  8
Layer_0
  10
13.375314
  20
12.329051
  0
VERTEX
  5
972
  8
Layer_0
  10
13.374615
  20
12.283175
  0
VERTEX
  5
973
  8
Layer_0
  10
13.370263
  20
12.252455
  0
VERTEX
  5
974
  8
Layer_0
  10
13.365333
  20
12.221821
  0
VERTEX
  5
975
  8
Layer_0
  10
13.362556
  20
12.213103
  0
VERTEX
  5
976
  8
Layer_0
  10
13.36741
  20
12.201016
  0
VERTEX
  5
977
  8
Layer_0
  10
13.376789
  20
12.200844
  0
VERTEX
  5
978
  8
Layer_0
  10
13.388284
  20
12.206939
  0
VERTEX
  5
979
  8
Layer_0
  10
13.40965
  20
12.247921
  0
VERTEX
  5
97a
  8
Layer_0
  10
13.410103
  20
12.272524
  0
VERTEX
  5
97b
  8
Layer_0
  10
13.415823
  20
12.311572
  0
VERTEX
  5
97c
  8
Layer_0
  10
13.420312
  20
12.350781
  0
VERTEX
  5
97d
  8
Layer_0
  10
13.419624
  20
12.380327
  0
VERTEX
  5
97e
  8
Layer_0
  10
13.426518
  20
12.412193
  0
VERTEX
  5
97f
  8
Layer_0
  10
13.421989
  20
12.441811
  0
SEQEND
  0
POLYLINE
  5
981
  8
Layer_0
  62
4
  70
1
  66
1
  10
0
  20
0
  30
0
  0
VERTEX
  5
981
  8
Layer_0
  10
13.268635
  20
11.372848
  0
VERTEX
  5
982
  8
Layer_0
  10
13.259754
  20
11.366705
  0
VERTEX
  5
983
  8
Layer_0
  10
13.265864
  20
11.355979
  0
VERTEX
  5
984
  8
Layer_0
  10
13.274628
  20
11.355818
  0
VERTEX
  5
985
  8
Layer_0
  10
13.279128
  20
11.366348
  0
VERTEX
  5
986
  8
Layer_0
  10
13.268635
  20
11.372848
  0
SEQEND
  0
POLYLINE
  5
988
  8
Layer_0
  62
4
  70
1
  66
1
  10
0
  20
0
  30
0
  0
VERTEX
  5
988
  8
Layer_0
  10
13.54283
  20
15.211338
  0
VERTEX
  5
989
  8
Layer_0
  10
13.53879
  20
15.200799
  0
VERTEX
  5
98a
  8
Layer_0
  10
13.550053
  20
15.194285
  0
VERTEX
  5
98b
  8
Layer_0
  10
13.558887
  20
15.197968
  0
VERTEX
  5
98c
  8
Layer_0
  10
13.559104
  20
15.209807
  0
VERTEX
  5
98d
  8
Layer_0
  10
13.54283
  20
15.211338
  0
SEQEND
  0
POLYLINE
  5
98f
  8
Layer_0
  62
4
  70
1
  66
1
  10
0
  20
0
  30
0
  0
VERTEX
  5
98f
  8
Layer_0
  10
13.512975
  20
12.705157
  0
VERTEX
  5
990
  8
Layer_0
  10
13.50264
  20
12.695196
  0
VERTEX
  5
991
  8
Layer_0
  10
13.512638
  20
12.686859
  0
VERTEX
  5
992
  8
Layer_0
  10
13.522017
  20
12.686687
  0
VERTEX
  5
993
  8
Layer_0
  10
13.526083
  20
12.698609
  0
VERTEX
  5
994
  8
Layer_0
  10
13.512975
  20
12.705157
  0
SEQEND
  0
POLYLINE
  5
996
  8
Layer_2
  62
0
  70
1
  66
1
  10
0
  20
0
  30
0
  0
VERTEX
  5
996
  8
Layer_2
  10
16.83746
  20
10.560948
  0
VERTEX
  5
997
  8
Layer_2
  10
16.836483
  20
10.541617
  0
VERTEX
  5
998
  8
Layer_2
  10
16.833618
  20
10.522848
  0
VERTEX
  5
999
  8
Layer_2
  10
16.82896
  20
10.504729
  0
VERTEX
  5
99a
  8
Layer_2
  10
16.822603
  20
10.487361
  0
VERTEX
  5
99b
  8
Layer_2
  10
16.814642
  20
10.470835
  0
VERTEX
  5
99c
  8
Layer_2
  10
16.805172
  20
10.455248
  0
VERTEX
  5
99d
  8
Layer_2
  10
16.794291
  20
10.440693
  0
VERTEX
  5
99e
  8
Layer_2
  10
16.782087
  20
10.427268
  0
VERTEX
  5
99f
  8
Layer_2
  10
16.768661
  20
10.415067
  0
VERTEX
  5
9a0
  8
Layer_2
  10
16.75411
  20
10.404182
  0
VERTEX
  5
9a1
  8
Layer_2
  10
16.738522
  20
10.394713
  0
VERTEX
  5
9a2
  8
Layer_2
  10
16.721996
  20
10.386753
  0
VERTEX
  5
9a3
  8
Layer_2
  10
16.704626
  20
10.380396
  0
VERTEX
  5
9a4
  8
Layer_2
  10
16.68651
  20
10.375737
  0
VERTEX
  5
9a5
  8
Layer_2
  10
16.667738
  20
10.372872
  0
VERTEX
  5
9a6
  8
Layer_2
  10
16.648409
  20
10.371897
  0
VERTEX
  5
9a7
  8
Layer_2
  10
16.62908
  20
10.372872
  0
VERTEX
  5
9a8
  8
Layer_2
  10
16.610308
  20
10.375737
  0
VERTEX
  5
9a9
  8
Layer_2
  10
16.59219
  20
10.380396
  0
VERTEX
  5
9aa
  8
Layer_2
  10
16.57482
  20
10.386753
  0
VERTEX
  5
9ab
  8
Layer_2
  10
16.558294
  20
10.394713
  0
VERTEX
  5
9ac
  8
Layer_2
  10
16.542707
  20
10.404182
  0
VERTEX
  5
9ad
  8
Layer_2
  10
16.528154
  20
10.415067
  0
VERTEX
  5
9ae
  8
Layer_2
  10
16.514729
  20
10.427268
  0
VERTEX
  5
9af
  8
Layer_2
  10
16.502527
  20
10.440693
  0
VERTEX
  5
9b0
  8
Layer_2
  10
16.491644
  20
10.455248
  0
VERTEX
  5
9b1
  8
Layer_2
  10
16.482174
  20
10.470835
  0
VERTEX
  5
9b2
  8
Layer_2
  10
16.474213
  20
10.487361
  0
VERTEX
  5
9b3
  8
Layer_2
  10
16.467855
  20
10.504729
  0
VERTEX
  5
9b4
  8
Layer_2
  10
16.463198
  20
10.522848
  0
VERTEX
  5
9b5
  8
Layer_2
  10
16.460333
  20
10.541617
  0
VERTEX
  5
9b6
  8
Layer_2
  10
16.459356
  20
10.560948
  0
VERTEX
  5
9b7
  8
Layer_2
  10
16.460333
  20
10.580278
  0
VERTEX
  5
9b8
  8
Layer_2
  10
16.463198
  20
10.599049
  0
VERTEX
  5
9b9
  8
Layer_2
  10
16.467855
  20
10.617167
  0
VERTEX
  5
9ba
  8
Layer_2
  10
16.474213
  20
10.634535
  0
VERTEX
  5
9bb
  8
Layer_2
  10
16.482174
  20
10.651061
  0
VERTEX
  5
9bc
  8
Layer_2
  10
16.491644
  20
10.666648
  0
VERTEX
  5
9bd
  8
Layer_2
  10
16.502527
  20
10.681203
  0
VERTEX
  5
9be
  8
Layer_2
  10
16.514729
  20
10.694629
  0
VERTEX
  5
9bf
  8
Layer_2
  10
16.528154
  20
10.706829
  0
VERTEX
  5
9c0
  8
Layer_2
  10
16.542707
  20
10.717713
  0
VERTEX
  5
9c1
  8
Layer_2
  10
16.558294
  20
10.727182
  0
VERTEX
  5
9c2
  8
Layer_2
  10
16.57482
  20
10.735144
  0
VERTEX
  5
9c3
  8
Layer_2
  10
16.59219
  20
10.741501
  0
VERTEX
  5
9c4
  8
Layer_2
  10
16.610308
  20
10.746159
  0
VERTEX
  5
9c5
  8
Layer_2
  10
16.62908
  20
10.749024
  0
VERTEX
  5
9c6
  8
Layer_2
  10
16.648409
  20
10.75
  0
VERTEX
  5
9c7
  8
Layer_2
  10
16.667738
  20
10.749024
  0
VERTEX
  5
9c8
  8
Layer_2
  10
16.68651
  20
10.746159
  0
VERTEX
  5
9c9
  8
Layer_2
  10
16.704626
  20
10.741501
  0
VERTEX
  5
9ca
  8
Layer_2
  10
16.721996
  20
10.735144
  0
VERTEX
  5
9cb
  8
Layer_2
  10
16.738522
  20
10.727182
  0
VERTEX
  5
9cc
  8
Layer_2
  10
16.75411
  20
10.717713
  0
VERTEX
  5
9cd
  8
Layer_2
  10
16.768661
  20
10.706829
  0
VERTEX
  5
9ce
  8
Layer_2
  10
16.782087
  20
10.694629
  0
VERTEX
  5
9cf
  8
Layer_2
  10
16.794291
  20
10.681203
  0
VERTEX
  5
9d0
  8
Layer_2
  10
16.805172
  20
10.666648
  0
VERTEX
  5
9d1
  8
Layer_2
  10
16.814642
  20
10.651061
  0
VERTEX
  5
9d2
  8
Layer_2
  10
16.822603
  20
10.634535
  0
VERTEX
  5
9d3
  8
Layer_2
  10
16.82896
  20
10.617167
  0
VERTEX
  5
9d4
  8
Layer_2
  10
16.833618
  20
10.599049
  0
VERTEX
  5
9d5
  8
Layer_2
  10
16.836483
  20
10.580278
  0
VERTEX
  5
9d6
  8
Layer_2
  10
16.83746
  20
10.560948
  0
SEQEND
  0
POLYLINE
  5
9d8
  8
Layer_3
  62
1
  70
1
  66
1
  10
0
  20
0
  30
0
  0
VERTEX
  5
9d8
  8
Layer_3
  10
9.0973225
  20
9.4478731
  0
VERTEX
  5
9d9
  8
Layer_3
  10
9.0398235
  20
9.3797541
  0
VERTEX
  5
9da
  8
Layer_3
  10
8.9834232
  20
9.3107443
  0
VERTEX
  5
9db
  8
Layer_3
  10
8.9281311
  20
9.2408581
  0
VERTEX
  5
9dc
  8
Layer_3
  10
8.8739595
  20
9.1701078
  0
VERTEX
  5
9dd
  8
Layer_3
  10
8.8209162
  20
9.0985069
  0
VERTEX
  5
9de
  8
Layer_3
  10
8.7690125
  20
9.0260696
  0
VERTEX
  5
9df
  8
Layer_3
  10
8.718256
  20
8.9528103
  0
VERTEX
  5
9e0
  8
Layer_3
  10
8.6686611
  20
8.8787403
  0
VERTEX
  5
9e1
  8
Layer_3
  10
8.6462994
  20
8.8417263
  0
VERTEX
  5
9e2
  8
Layer_3
  10
8.6257
  20
8.8037291
  0
VERTEX
  5
9e3
  8
Layer_3
  10
8.6068964
  20
8.7648125
  0
VERTEX
  5
9e4
  8
Layer_3
  10
8.589921
  20
8.7250385
  0
VERTEX
  5
9e5
  8
Layer_3
  10
8.5795946
  20
8.6935482
  0
VERTEX
  5
9e6
  8
Layer_3
  10
8.5713902
  20
8.6615505
  0
VERTEX
  5
9e7
  8
Layer_3
  10
8.5653181
  20
8.6291513
  0
VERTEX
  5
9e8
  8
Layer_3
  10
8.5613861
  20
8.5964584
  0
VERTEX
  5
9e9
  8
Layer_3
  10
8.5596018
  20
8.5635786
  0
VERTEX
  5
9ea
  8
Layer_3
  10
8.5599785
  20
8.5306168
  0
VERTEX
  5
9eb
  8
Layer_3
  10
8.5625238
  20
8.4976826
  0
VERTEX
  5
9ec
  8
Layer_3
  10
8.5672445
  20
8.4648809
  0
VERTEX
  5
9ed
  8
Layer_3
  10
8.574872
  20
8.424036
  0
VERTEX
  5
9ee
  8
Layer_3
  10
8.5854092
  20
8.3840151
  0
VERTEX
  5
9ef
  8
Layer_3
  10
8.5987844
  20
8.344965
  0
VERTEX
  5
9f0
  8
Layer_3
  10
8.6149321
  20
8.3070316
  0
VERTEX
  5
9f1
  8
Layer_3
  10
8.6337776
  20
8.2703657
  0
VERTEX
  5
9f2
  8
Layer_3
  10
8.6552563
  20
8.2351141
  0
VERTEX
  5
9f3
  8
Layer_3
  10
8.6792955
  20
8.2014265
  0
VERTEX
  5
9f4
  8
Layer_3
  10
8.7058268
  20
8.1694479
  0
VERTEX
  5
9f5
  8
Layer_3
  10
8.7332211
  20
8.1415234
  0
VERTEX
  5
9f6
  8
Layer_3
  10
8.7624388
  20
8.1157417
  0
VERTEX
  5
9f7
  8
Layer_3
  10
8.7933512
  20
8.0921793
  0
VERTEX
  5
9f8
  8
Layer_3
  10
8.8258276
  20
8.0709152
  0
VERTEX
  5
9f9
  8
Layer_3
  10
8.8597431
  20
8.0520267
  0
VERTEX
  5
9fa
  8
Layer_3
  10
8.8949642
  20
8.0355921
  0
VERTEX
  5
9fb
  8
Layer_3
  10
8.9313669
  20
8.0216885
  0
VERTEX
  5
9fc
  8
Layer_3
  10
8.9688196
  20
8.0103931
  0
VERTEX
  5
9fd
  8
Layer_3
  10
9.0012608
  20
8.0019255
  0
VERTEX
  5
9fe
  8
Layer_3
  10
9.0339651
  20
7.9947095
  0
VERTEX
  5
9ff
  8
Layer_3
  10
9.0668964
  20
7.9887495
  0
VERTEX
  5
a00
  8
Layer_3
  10
9.1000204
  20
7.9840503
  0
VERTEX
  5
a01
  8
Layer_3
  10
9.1332998
  20
7.9806166
  0
VERTEX
  5
a02
  8
Layer_3
  10
9.1666975
  20
7.9784527
  0
VERTEX
  5
a03
  8
Layer_3
  10
9.2001753
  20
7.9775629
  0
VERTEX
  5
a04
  8
Layer_3
  10
9.2337017
  20
7.9779525
  0
VERTEX
  5
a05
  8
Layer_3
  10
9.3095284
  20
7.9804726
  0
VERTEX
  5
a06
  8
Layer_3
  10
9.3851194
  20
7.9864645
  0
VERTEX
  5
a07
  8
Layer_3
  10
9.4603548
  20
7.9959173
  0
VERTEX
  5
a08
  8
Layer_3
  10
9.5351181
  20
8.0088186
  0
VERTEX
  5
a09
  8
Layer_3
  10
9.6105452
  20
8.0234632
  0
VERTEX
  5
a0a
  8
Layer_3
  10
9.6855793
  20
8.0399513
  0
VERTEX
  5
a0b
  8
Layer_3
  10
9.7601852
  20
8.0582743
  0
VERTEX
  5
a0c
  8
Layer_3
  10
9.8343306
  20
8.0784245
  0
VERTEX
  5
a0d
  8
Layer_3
  10
9.9474726
  20
8.1115284
  0
VERTEX
  5
a0e
  8
Layer_3
  10
10.060055
  20
8.146451
  0
VERTEX
  5
a0f
  8
Layer_3
  10
10.172059
  20
8.1831875
  0
VERTEX
  5
a10
  8
Layer_3
  10
10.283465
  20
8.2217321
  0
VERTEX
  5
a11
  8
Layer_3
  10
10.663581
  20
8.3546228
  0
VERTEX
  5
a12
  8
Layer_3
  10
11.044095
  20
8.4862986
  0
VERTEX
  5
a13
  8
Layer_3
  10
11.153661
  20
8.5256519
  0
VERTEX
  5
a14
  8
Layer_3
  10
11.262743
  20
8.5662889
  0
VERTEX
  5
a15
  8
Layer_3
  10
11.37133
  20
8.6082077
  0
VERTEX
  5
a16
  8
Layer_3
  10
11.479411
  20
8.6514015
  0
VERTEX
  5
a17
  8
Layer_3
  10
11.586977
  20
8.6958685
  0
VERTEX
  5
a18
  8
Layer_3
  10
11.694013
  20
8.741601
  0
VERTEX
  5
a19
  8
Layer_3
  10
11.800509
  20
8.7885971
  0
VERTEX
  5
a1a
  8
Layer_3
  10
11.906457
  20
8.8368502
  0
VERTEX
  5
a1b
  8
Layer_3
  10
12.272126
  20
9.0059834
  0
VERTEX
  5
a1c
  8
Layer_3
  10
12.504919
  20
9.1144094
  0
VERTEX
  5
a1d
  8
Layer_3
  10
12.737953
  20
9.2223616
  0
VERTEX
  5
a1e
  8
Layer_3
  10
12.929399
  20
9.3088951
  0
VERTEX
  5
a1f
  8
Layer_3
  10
13.1219
  20
9.3930769
  0
VERTEX
  5
a20
  8
Layer_3
  10
13.315418
  20
9.4748945
  0
VERTEX
  5
a21
  8
Layer_3
  10
13.50992
  20
9.5543308
  0
VERTEX
  5
a22
  8
Layer_3
  10
13.574578
  20
9.5791292
  0
VERTEX
  5
a23
  8
Layer_3
  10
13.63958
  20
9.6029797
  0
VERTEX
  5
a24
  8
Layer_3
  10
13.704913
  20
9.6258783
  0
VERTEX
  5
a25
  8
Layer_3
  10
13.770572
  20
9.6478233
  0
VERTEX
  5
a26
  8
Layer_3
  10
13.836541
  20
9.6688089
  0
VERTEX
  5
a27
  8
Layer_3
  10
13.902814
  20
9.6888342
  0
VERTEX
  5
a28
  8
Layer_3
  10
13.969378
  20
9.7078934
  0
VERTEX
  5
a29
  8
Layer_3
  10
14.036222
  20
9.7259846
  0
VERTEX
  5
a2a
  8
Layer_3
  10
14.100883
  20
9.741396
  0
VERTEX
  5
a2b
  8
Layer_3
  10
14.165869
  20
9.7552576
  0
VERTEX
  5
a2c
  8
Layer_3
  10
14.231145
  20
9.7675667
  0
VERTEX
  5
a2d
  8
Layer_3
  10
14.296685
  20
9.7783184
  0
VERTEX
  5
a2e
  8
Layer_3
  10
14.362464
  20
9.787509
  0
VERTEX
  5
a2f
  8
Layer_3
  10
14.428452
  20
9.7951345
  0
VERTEX
  5
a30
  8
Layer_3
  10
14.494622
  20
9.8011885
  0
VERTEX
  5
a31
  8
Layer_3
  10
14.560946
  20
9.8056688
  0
VERTEX
  5
a32
  8
Layer_3
  10
14.664616
  20
9.8090277
  0
VERTEX
  5
a33
  8
Layer_3
  10
14.768266
  20
9.8091545
  0
VERTEX
  5
a34
  8
Layer_3
  10
14.871819
  20
9.8060541
  0
VERTEX
  5
a35
  8
Layer_3
  10
14.975202
  20
9.7997341
  0
VERTEX
  5
a36
  8
Layer_3
  10
15.078339
  20
9.7901993
  0
VERTEX
  5
a37
  8
Layer_3
  10
15.181152
  20
9.7774544
  0
VERTEX
  5
a38
  8
Layer_3
  10
15.283568
  20
9.7615061
  0
VERTEX
  5
a39
  8
Layer_3
  10
15.385511
  20
9.742362
  0
VERTEX
  5
a3a
  8
Layer_3
  10
15.460402
  20
9.7267246
  0
VERTEX
  5
a3b
  8
Layer_3
  10
15.53493
  20
9.7095566
  0
VERTEX
  5
a3c
  8
Layer_3
  10
15.609076
  20
9.6908665
  0
VERTEX
  5
a3d
  8
Layer_3
  10
15.682813
  20
9.67066
  0
VERTEX
  5
a3e
  8
Layer_3
  10
15.75612
  20
9.6489439
  0
VERTEX
  5
a3f
  8
Layer_3
  10
15.828976
  20
9.6257238
  0
VERTEX
  5
a40
  8
Layer_3
  10
15.901353
  20
9.6010084
  0
VERTEX
  5
a41
  8
Layer_3
  10
15.973228
  20
9.5748024
  0
VERTEX
  5
a42
  8
Layer_3
  10
16.093937
  20
9.5285664
  0
VERTEX
  5
a43
  8
Layer_3
  10
16.214022
  20
9.4807625
  0
VERTEX
  5
a44
  8
Layer_3
  10
16.333475
  20
9.4313974
  0
VERTEX
  5
a45
  8
Layer_3
  10
16.452284
  20
9.3804722
  0
VERTEX
  5
a46
  8
Layer_3
  10
16.595764
  20
9.3196507
  0
VERTEX
  5
a47
  8
Layer_3
  10
16.739708
  20
9.2599535
  0
VERTEX
  5
a48
  8
Layer_3
  10
16.884115
  20
9.2013807
  0
VERTEX
  5
a49
  8
Layer_3
  10
17.028976
  20
9.1439362
  0
VERTEX
  5
a4a
  8
Layer_3
  10
17.144121
  20
9.100975
  0
VERTEX
  5
a4b
  8
Layer_3
  10
17.260111
  20
9.0604
  0
VERTEX
  5
a4c
  8
Layer_3
  10
17.376911
  20
9.0222225
  0
VERTEX
  5
a4d
  8
Layer_3
  10
17.494488
  20
8.9864559
  0
VERTEX
  5
a4e
  8
Layer_3
  10
17.559359
  20
8.9685793
  0
VERTEX
  5
a4f
  8
Layer_3
  10
17.624481
  20
8.951767
  0
VERTEX
  5
a50
  8
Layer_3
  10
17.689842
  20
8.9360209
  0
VERTEX
  5
a51
  8
Layer_3
  10
17.755428
  20
8.9213438
  0
VERTEX
  5
a52
  8
Layer_3
  10
17.821228
  20
8.9077377
  0
VERTEX
  5
a53
  8
Layer_3
  10
17.887228
  20
8.8952036
  0
VERTEX
  5
a54
  8
Layer_3
  10
17.953411
  20
8.8837442
  0
VERTEX
  5
a55
  8
Layer_3
  10
18.019768
  20
8.8733625
  0
VERTEX
  5
a56
  8
Layer_3
  10
18.086287
  20
8.8640594
  0
VERTEX
  5
a57
  8
Layer_3
  10
18.15295
  20
8.8558359
  0
VERTEX
  5
a58
  8
Layer_3
  10
18.219748
  20
8.8486938
  0
VERTEX
  5
a59
  8
Layer_3
  10
18.286665
  20
8.8426371
  0
VERTEX
  5
a5a
  8
Layer_3
  10
18.353689
  20
8.8376665
  0
VERTEX
  5
a5b
  8
Layer_3
  10
18.420809
  20
8.8337841
  0
VERTEX
  5
a5c
  8
Layer_3
  10
18.488008
  20
8.8309917
  0
VERTEX
  5
a5d
  8
Layer_3
  10
18.555277
  20
8.8292913
  0
VERTEX
  5
a5e
  8
Layer_3
  10
18.673502
  20
8.8280287
  0
VERTEX
  5
a5f
  8
Layer_3
  10
18.791695
  20
8.8300238
  0
VERTEX
  5
a60
  8
Layer_3
  10
18.90979
  20
8.8352737
  0
VERTEX
  5
a61
  8
Layer_3
  10
19.027718
  20
8.8437796
  0
VERTEX
  5
a62
  8
Layer_3
  10
19.081478
  20
8.8497076
  0
VERTEX
  5
a63
  8
Layer_3
  10
19.135
  20
8.8572426
  0
VERTEX
  5
a64
  8
Layer_3
  10
19.18825
  20
8.866375
  0
VERTEX
  5
a65
  8
Layer_3
  10
19.24119
  20
8.8771
  0
VERTEX
  5
a66
  8
Layer_3
  10
19.293783
  20
8.8894062
  0
VERTEX
  5
a67
  8
Layer_3
  10
19.345995
  20
8.9032888
  0
VERTEX
  5
a68
  8
Layer_3
  10
19.397791
  20
8.9187384
  0
VERTEX
  5
a69
  8
Layer_3
  10
19.449135
  20
8.9357481
  0
VERTEX
  5
a6a
  8
Layer_3
  10
19.507555
  20
8.9580221
  0
VERTEX
  5
a6b
  8
Layer_3
  10
19.564909
  20
8.9827089
  0
VERTEX
  5
a6c
  8
Layer_3
  10
19.621122
  20
9.0097675
  0
VERTEX
  5
a6d
  8
Layer_3
  10
19.676121
  20
9.0391579
  0
VERTEX
  5
a6e
  8
Layer_3
  10
19.729832
  20
9.070838
  0
VERTEX
  5
a6f
  8
Layer_3
  10
19.782183
  20
9.1047678
  0
VERTEX
  5
a70
  8
Layer_3
  10
19.833103
  20
9.1409063
  0
VERTEX
  5
a71
  8
Layer_3
  10
19.882519
  20
9.1792126
  0
VERTEX
  5
a72
  8
Layer_3
  10
19.898314
  20
9.1942406
  0
VERTEX
  5
a73
  8
Layer_3
  10
19.912416
  20
9.2107878
  0
VERTEX
  5
a74
  8
Layer_3
  10
19.924721
  20
9.2287111
  0
VERTEX
  5
a75
  8
Layer_3
  10
19.935118
  20
9.2478733
  0
VERTEX
  5
a76
  8
Layer_3
  10
19.938948
  20
9.2588482
  0
VERTEX
  5
a77
  8
Layer_3
  10
19.941702
  20
9.2699537
  0
VERTEX
  5
a78
  8
Layer_3
  10
19.943405
  20
9.281126
  0
VERTEX
  5
a79
  8
Layer_3
  10
19.94408
  20
9.2922974
  0
VERTEX
  5
a7a
  8
Layer_3
  10
19.942438
  20
9.3143835
  0
VERTEX
  5
a7b
  8
Layer_3
  10
19.936956
  20
9.3356953
  0
VERTEX
  5
a7c
  8
Layer_3
  10
19.92782
  20
9.3557138
  0
VERTEX
  5
a7d
  8
Layer_3
  10
19.915213
  20
9.3739223
  0
VERTEX
  5
a7e
  8
Layer_3
  10
19.907663
  20
9.382185
  0
VERTEX
  5
a7f
  8
Layer_3
  10
19.899317
  20
9.389802
  0
VERTEX
  5
a80
  8
Layer_3
  10
19.890192
  20
9.3967056
  0
VERTEX
  5
a81
  8
Layer_3
  10
19.880316
  20
9.4028339
  0
VERTEX
  5
a82
  8
Layer_3
  10
19.858719
  20
9.4136591
  0
VERTEX
  5
a83
  8
Layer_3
  10
19.836452
  20
9.4229574
  0
VERTEX
  5
a84
  8
Layer_3
  10
19.813599
  20
9.4306974
  0
VERTEX
  5
a85
  8
Layer_3
  10
19.790236
  20
9.4368496
  0
VERTEX
  5
a86
  8
Layer_3
  10
19.721849
  20
9.4513626
  0
VERTEX
  5
a87
  8
Layer_3
  10
19.652914
  20
9.4629917
  0
VERTEX
  5
a88
  8
Layer_3
  10
19.536514
  20
9.4824953
  0
VERTEX
  5
a89
  8
Layer_3
  10
19.420481
  20
9.504014
  0
VERTEX
  5
a8a
  8
Layer_3
  10
19.304834
  20
9.5275412
  0
VERTEX
  5
a8b
  8
Layer_3
  10
19.189608
  20
9.553071
  0
VERTEX
  5
a8c
  8
Layer_3
  10
19.118261
  20
9.5710697
  0
VERTEX
  5
a8d
  8
Layer_3
  10
19.04738
  20
9.5907068
  0
VERTEX
  5
a8e
  8
Layer_3
  10
18.976988
  20
9.6119699
  0
VERTEX
  5
a8f
  8
Layer_3
  10
18.907118
  20
9.6348505
  0
VERTEX
  5
a90
  8
Layer_3
  10
18.837793
  20
9.6593409
  0
VERTEX
  5
a91
  8
Layer_3
  10
18.769045
  20
9.6854286
  0
VERTEX
  5
a92
  8
Layer_3
  10
18.700901
  20
9.7131062
  0
VERTEX
  5
a93
  8
Layer_3
  10
18.633387
  20
9.742362
  0
VERTEX
  5
a94
  8
Layer_3
  10
18.584372
  20
9.7655411
  0
VERTEX
  5
a95
  8
Layer_3
  10
18.535997
  20
9.7899637
  0
VERTEX
  5
a96
  8
Layer_3
  10
18.488285
  20
9.8156185
  0
VERTEX
  5
a97
  8
Layer_3
  10
18.441259
  20
9.8424921
  0
VERTEX
  5
a98
  8
Layer_3
  10
18.394939
  20
9.8705683
  0
VERTEX
  5
a99
  8
Layer_3
  10
18.349356
  20
9.8998365
  0
VERTEX
  5
a9a
  8
Layer_3
  10
18.304523
  20
9.9302816
  0
VERTEX
  5
a9b
  8
Layer_3
  10
18.260473
  20
9.9618893
  0
VERTEX
  5
a9c
  8
Layer_3
  10
18.225998
  20
9.9885216
  0
VERTEX
  5
a9d
  8
Layer_3
  10
18.192211
  20
10.015951
  0
VERTEX
  5
a9e
  8
Layer_3
  10
18.159126
  20
10.044167
  0
VERTEX
  5
a9f
  8
Layer_3
  10
18.126759
  20
10.073152
  0
VERTEX
  5
aa0
  8
Layer_3
  10
18.095118
  20
10.102894
  0
VERTEX
  5
aa1
  8
Layer_3
  10
18.064217
  20
10.133376
  0
VERTEX
  5
aa2
  8
Layer_3
  10
18.034069
  20
10.164588
  0
VERTEX
  5
aa3
  8
Layer_3
  10
18.004688
  20
10.196514
  0
VERTEX
  5
aa4
  8
Layer_3
  10
17.976086
  20
10.229138
  0
VERTEX
  5
aa5
  8
Layer_3
  10
17.948275
  20
10.262447
  0
VERTEX
  5
aa6
  8
Layer_3
  10
17.921268
  20
10.29643
  0
VERTEX
  5
aa7
  8
Layer_3
  10
17.895077
  20
10.331068
  0
VERTEX
  5
aa8
  8
Layer_3
  10
17.869717
  20
10.366348
  0
VERTEX
  5
aa9
  8
Layer_3
  10
17.845198
  20
10.402258
  0
VERTEX
  5
aaa
  8
Layer_3
  10
17.821535
  20
10.438781
  0
VERTEX
  5
aab
  8
Layer_3
  10
17.79874
  20
10.475905
  0
VERTEX
  5
aac
  8
Layer_3
  10
17.770144
  20
10.524043
  0
VERTEX
  5
aad
  8
Layer_3
  10
17.742882
  20
10.57287
  0
VERTEX
  5
aae
  8
Layer_3
  10
17.716963
  20
10.622355
  0
VERTEX
  5
aaf
  8
Layer_3
  10
17.692398
  20
10.672469
  0
VERTEX
  5
ab0
  8
Layer_3
  10
17.669195
  20
10.723186
  0
VERTEX
  5
ab1
  8
Layer_3
  10
17.647367
  20
10.774477
  0
VERTEX
  5
ab2
  8
Layer_3
  10
17.626921
  20
10.826315
  0
VERTEX
  5
ab3
  8
Layer_3
  10
17.607868
  20
10.87867
  0
VERTEX
  5
ab4
  8
Layer_3
  10
17.590218
  20
10.931515
  0
VERTEX
  5
ab5
  8
Layer_3
  10
17.57398
  20
10.984819
  0
VERTEX
  5
ab6
  8
Layer_3
  10
17.559166
  20
11.038557
  0
VERTEX
  5
ab7
  8
Layer_3
  10
17.545784
  20
11.0927
  0
VERTEX
  5
ab8
  8
Layer_3
  10
17.533842
  20
11.14722
  0
VERTEX
  5
ab9
  8
Layer_3
  10
17.523355
  20
11.202087
  0
VERTEX
  5
aba
  8
Layer_3
  10
17.514326
  20
11.257277
  0
VERTEX
  5
abb
  8
Layer_3
  10
17.506771
  20
11.312756
  0
VERTEX
  5
abc
  8
Layer_3
  10
17.501726
  20
11.37574
  0
VERTEX
  5
abd
  8
Layer_3
  10
17.499439
  20
11.438792
  0
VERTEX
  5
abe
  8
Layer_3
  10
17.499905
  20
11.501825
  0
VERTEX
  5
abf
  8
Layer_3
  10
17.503119
  20
11.564748
  0
VERTEX
  5
ac0
  8
Layer_3
  10
17.509071
  20
11.627471
  0
VERTEX
  5
ac1
  8
Layer_3
  10
17.517757
  20
11.689905
  0
VERTEX
  5
ac2
  8
Layer_3
  10
17.529173
  20
11.751959
  0
VERTEX
  5
ac3
  8
Layer_3
  10
17.543308
  20
11.813543
  0
VERTEX
  5
ac4
  8
Layer_3
  10
17.563169
  20
11.88939
  0
VERTEX
  5
ac5
  8
Layer_3
  10
17.585339
  20
11.964577
  0
VERTEX
  5
ac6
  8
Layer_3
  10
17.6098
  20
12.039049
  0
VERTEX
  5
ac7
  8
Layer_3
  10
17.636536
  20
12.112756
  0
VERTEX
  5
ac8
  8
Layer_3
  10
17.671616
  20
12.203062
  0
VERTEX
  5
ac9
  8
Layer_3
  10
17.70772
  20
12.292959
  0
VERTEX
  5
aca
  8
Layer_3
  10
17.744846
  20
12.382439
  0
VERTEX
  5
acb
  8
Layer_3
  10
17.782991
  20
12.471497
  0
VERTEX
  5
acc
  8
Layer_3
  10
17.8141
  20
12.544897
  0
VERTEX
  5
acd
  8
Layer_3
  10
17.843637
  20
12.618935
  0
VERTEX
  5
ace
  8
Layer_3
  10
17.87159
  20
12.693583
  0
VERTEX
  5
acf
  8
Layer_3
  10
17.897953
  20
12.768819
  0
VERTEX
  5
ad0
  8
Layer_3
  10
17.865164
  20
12.766584
  0
VERTEX
  5
ad1
  8
Layer_3
  10
17.83238
  20
12.766236
  0
VERTEX
  5
ad2
  8
Layer_3
  10
17.799685
  20
12.767762
  0
VERTEX
  5
ad3
  8
Layer_3
  10
17.767159
  20
12.771152
  0
VERTEX
  5
ad4
  8
Layer_3
  10
17.734877
  20
12.776398
  0
VERTEX
  5
ad5
  8
Layer_3
  10
17.702923
  20
12.783485
  0
VERTEX
  5
ad6
  8
Layer_3
  10
17.671375
  20
12.792407
  0
VERTEX
  5
ad7
  8
Layer_3
  10
17.640314
  20
12.803149
  0
VERTEX
  5
ad8
  8
Layer_3
  10
17.615467
  20
12.815203
  0
VERTEX
  5
ad9
  8
Layer_3
  10
17.592007
  20
12.829639
  0
VERTEX
  5
ada
  8
Layer_3
  10
17.570101
  20
12.846342
  0
VERTEX
  5
adb
  8
Layer_3
  10
17.549921
  20
12.865197
  0
VERTEX
  5
adc
  8
Layer_3
  10
17.53907
  20
12.878528
  0
VERTEX
  5
add
  8
Layer_3
  10
17.529785
  20
12.892932
  0
VERTEX
  5
ade
  8
Layer_3
  10
17.522141
  20
12.908272
  0
VERTEX
  5
adf
  8
Layer_3
  10
17.51622
  20
12.92441
  0
VERTEX
  5
ae0
  8
Layer_3
  10
17.504898
  20
12.971518
  0
VERTEX
  5
ae1
  8
Layer_3
  10
17.496378
  20
13.019213
  0
VERTEX
  5
ae2
  8
Layer_3
  10
17.480743
  20
13.120571
  0
VERTEX
  5
ae3
  8
Layer_3
  10
17.467028
  20
13.222195
  0
VERTEX
  5
ae4
  8
Layer_3
  10
17.455229
  20
13.324061
  0
VERTEX
  5
ae5
  8
Layer_3
  10
17.445354
  20
13.426142
  0
VERTEX
  5
ae6
  8
Layer_3
  10
17.436335
  20
13.526205
  0
VERTEX
  5
ae7
  8
Layer_3
  10
17.428968
  20
13.626398
  0
VERTEX
  5
ae8
  8
Layer_3
  10
17.42326
  20
13.726699
  0
VERTEX
  5
ae9
  8
Layer_3
  10
17.419212
  20
13.827085
  0
VERTEX
  5
aea
  8
Layer_3
  10
17.418987
  20
13.908251
  0
VERTEX
  5
aeb
  8
Layer_3
  10
17.420166
  20
13.989389
  0
VERTEX
  5
aec
  8
Layer_3
  10
17.422749
  20
14.070483
  0
VERTEX
  5
aed
  8
Layer_3
  10
17.426735
  20
14.151514
  0
VERTEX
  5
aee
  8
Layer_3
  10
17.432123
  20
14.232464
  0
VERTEX
  5
aef
  8
Layer_3
  10
17.438915
  20
14.313315
  0
VERTEX
  5
af0
  8
Layer_3
  10
17.447104
  20
14.394049
  0
VERTEX
  5
af1
  8
Layer_3
  10
17.456694
  20
14.474647
  0
VERTEX
  5
af2
  8
Layer_3
  10
17.466072
  20
14.550457
  0
VERTEX
  5
af3
  8
Layer_3
  10
17.476496
  20
14.626128
  0
VERTEX
  5
af4
  8
Layer_3
  10
17.487965
  20
14.701649
  0
VERTEX
  5
af5
  8
Layer_3
  10
17.500473
  20
14.777008
  0
VERTEX
  5
af6
  8
Layer_3
  10
17.509007
  20
14.812936
  0
VERTEX
  5
af7
  8
Layer_3
  10
17.52
  20
14.848188
  0
VERTEX
  5
af8
  8
Layer_3
  10
17.531902
  20
14.870971
  0
VERTEX
  5
af9
  8
Layer_3
  10
17.546143
  20
14.89228
  0
VERTEX
  5
afa
  8
Layer_3
  10
17.562586
  20
14.911937
  0
VERTEX
  5
afb
  8
Layer_3
  10
17.581102
  20
14.929764
  0
VERTEX
  5
afc
  8
Layer_3
  10
17.594341
  20
14.941774
  0
VERTEX
  5
afd
  8
Layer_3
  10
17.608532
  20
14.952456
  0
VERTEX
  5
afe
  8
Layer_3
  10
17.623575
  20
14.961764
  0
VERTEX
  5
aff
  8
Layer_3
  10
17.63937
  20
14.969656
  0
VERTEX
  5
b00
  8
Layer_3
  10
17.655813
  20
14.976084
  0
VERTEX
  5
b01
  8
Layer_3
  10
17.672804
  20
14.981004
  0
VERTEX
  5
b02
  8
Layer_3
  10
17.690245
  20
14.984371
  0
VERTEX
  5
b03
  8
Layer_3
  10
17.708031
  20
14.986141
  0
VERTEX
  5
b04
  8
Layer_3
  10
17.725342
  20
14.987085
  0
VERTEX
  5
b05
  8
Layer_3
  10
17.742678
  20
14.987402
  0
VERTEX
  5
b06
  8
Layer_3
  10
18.822046
  20
14.987402
  0
VERTEX
  5
b07
  8
Layer_3
  10
18.879057
  20
15.141102
  0
VERTEX
  5
b08
  8
Layer_3
  10
18.950811
  20
15.312957
  0
VERTEX
  5
b09
  8
Layer_3
  10
19.024252
  20
15.484095
  0
VERTEX
  5
b0a
  8
Layer_3
  10
19.038443
  20
15.520188
  0
VERTEX
  5
b0b
  8
Layer_3
  10
19.050747
  20
15.55694
  0
VERTEX
  5
b0c
  8
Layer_3
  10
19.061142
  20
15.594277
  0
VERTEX
  5
b0d
  8
Layer_3
  10
19.069607
  20
15.632126
  0
VERTEX
  5
b0e
  8
Layer_3
  10
19.073616
  20
15.663917
  0
VERTEX
  5
b0f
  8
Layer_3
  10
19.075157
  20
15.69578
  0
VERTEX
  5
b10
  8
Layer_3
  10
19.074249
  20
15.727574
  0
VERTEX
  5
b11
  8
Layer_3
  10
19.070913
  20
15.759161
  0
VERTEX
  5
b12
  8
Layer_3
  10
19.065172
  20
15.7904
  0
VERTEX
  5
b13
  8
Layer_3
  10
19.057041
  20
15.821152
  0
VERTEX
  5
b14
  8
Layer_3
  10
19.046545
  20
15.851274
  0
VERTEX
  5
b15
  8
Layer_3
  10
19.033701
  20
15.88063
  0
VERTEX
  5
b16
  8
Layer_3
  10
19.019545
  20
15.905919
  0
VERTEX
  5
b17
  8
Layer_3
  10
19.003643
  20
15.929772
  0
VERTEX
  5
b18
  8
Layer_3
  10
18.986107
  20
15.952129
  0
VERTEX
  5
b19
  8
Layer_3
  10
18.967047
  20
15.972932
  0
VERTEX
  5
b1a
  8
Layer_3
  10
18.946569
  20
15.992125
  0
VERTEX
  5
b1b
  8
Layer_3
  10
18.924784
  20
16.009647
  0
VERTEX
  5
b1c
  8
Layer_3
  10
18.901798
  20
16.025442
  0
VERTEX
  5
b1d
  8
Layer_3
  10
18.877722
  20
16.039454
  0
VERTEX
  5
b1e
  8
Layer_3
  10
18.852665
  20
16.05162
  0
VERTEX
  5
b1f
  8
Layer_3
  10
18.826735
  20
16.061886
  0
VERTEX
  5
b20
  8
Layer_3
  10
18.800037
  20
16.070192
  0
VERTEX
  5
b21
  8
Layer_3
  10
18.772686
  20
16.076483
  0
VERTEX
  5
b22
  8
Layer_3
  10
18.744789
  20
16.080698
  0
VERTEX
  5
b23
  8
Layer_3
  10
18.716452
  20
16.082781
  0
VERTEX
  5
b24
  8
Layer_3
  10
18.687786
  20
16.082672
  0
VERTEX
  5
b25
  8
Layer_3
  10
18.658897
  20
16.080315
  0
VERTEX
  5
b26
  8
Layer_3
  10
18.585543
  20
16.070322
  0
VERTEX
  5
b27
  8
Layer_3
  10
18.51264
  20
16.057583
  0
VERTEX
  5
b28
  8
Layer_3
  10
18.440268
  20
16.042118
  0
VERTEX
  5
b29
  8
Layer_3
  10
18.368504
  20
16.023937
  0
VERTEX
  5
b2a
  8
Layer_3
  10
18.247149
  20
15.993111
  0
VERTEX
  5
b2b
  8
Layer_3
  10
18.125143
  20
15.965034
  0
VERTEX
  5
b2c
  8
Layer_3
  10
18.002535
  20
15.939714
  0
VERTEX
  5
b2d
  8
Layer_3
  10
17.87937
  20
15.917165
  0
VERTEX
  5
b2e
  8
Layer_3
  10
17.768129
  20
15.898007
  0
VERTEX
  5
b2f
  8
Layer_3
  10
17.656649
  20
15.880416
  0
VERTEX
  5
b30
  8
Layer_3
  10
17.544943
  20
15.864392
  0
VERTEX
  5
b31
  8
Layer_3
  10
17.433029
  20
15.84994
  0
VERTEX
  5
b32
  8
Layer_3
  10
17.320925
  20
15.83706
  0
VERTEX
  5
b33
  8
Layer_3
  10
17.208643
  20
15.825754
  0
VERTEX
  5
b34
  8
Layer_3
  10
17.096205
  20
15.816025
  0
VERTEX
  5
b35
  8
Layer_3
  10
16.983622
  20
15.807874
  0
VERTEX
  5
b36
  8
Layer_3
  10
16.90247
  20
15.803378
  0
VERTEX
  5
b37
  8
Layer_3
  10
16.821276
  20
15.800009
  0
VERTEX
  5
b38
  8
Layer_3
  10
16.740047
  20
15.797769
  0
VERTEX
  5
b39
  8
Layer_3
  10
16.658802
  20
15.796653
  0
VERTEX
  5
b3a
  8
Layer_3
  10
16.577547
  20
15.796665
  0
VERTEX
  5
b3b
  8
Layer_3
  10
16.496298
  20
15.797804
  0
VERTEX
  5
b3c
  8
Layer_3
  10
16.415064
  20
15.80007
  0
VERTEX
  5
b3d
  8
Layer_3
  10
16.333858
  20
15.803464
  0
VERTEX
  5
b3e
  8
Layer_3
  10
16.211746
  20
15.811893
  0
VERTEX
  5
b3f
  8
Layer_3
  10
16.089964
  20
15.823545
  0
VERTEX
  5
b40
  8
Layer_3
  10
15.968576
  20
15.838415
  0
VERTEX
  5
b41
  8
Layer_3
  10
15.847645
  20
15.856489
  0
VERTEX
  5
b42
  8
Layer_3
  10
15.727234
  20
15.877759
  0
VERTEX
  5
b43
  8
Layer_3
  10
15.607409
  20
15.902211
  0
VERTEX
  5
b44
  8
Layer_3
  10
15.488231
  20
15.929839
  0
VERTEX
  5
b45
  8
Layer_3
  10
15.369764
  20
15.960629
  0
VERTEX
  5
b46
  8
Layer_3
  10
15.242217
  20
15.995667
  0
VERTEX
  5
b47
  8
Layer_3
  10
15.115323
  20
16.03297
  0
VERTEX
  5
b48
  8
Layer_3
  10
14.989115
  20
16.072527
  0
VERTEX
  5
b49
  8
Layer_3
  10
14.863623
  20
16.11433
  0
VERTEX
  5
b4a
  8
Layer_3
  10
14.683476
  20
16.177221
  0
VERTEX
  5
b4b
  8
Layer_3
  10
14.503807
  20
16.241442
  0
VERTEX
  5
b4c
  8
Layer_3
  10
14.324622
  20
16.306986
  0
VERTEX
  5
b4d
  8
Layer_3
  10
14.145928
  20
16.373852
  0
VERTEX
  5
b4e
  8
Layer_3
  10
13.967732
  20
16.442039
  0
VERTEX
  5
b4f
  8
Layer_3
  10
13.790046
  20
16.511541
  0
VERTEX
  5
b50
  8
Layer_3
  10
13.612872
  20
16.582359
  0
VERTEX
  5
b51
  8
Layer_3
  10
13.43622
  20
16.654488
  0
VERTEX
  5
b52
  8
Layer_3
  10
13.354399
  20
16.681255
  0
VERTEX
  5
b53
  8
Layer_3
  10
13.272191
  20
16.70676
  0
VERTEX
  5
b54
  8
Layer_3
  10
13.18961
  20
16.731001
  0
VERTEX
  5
b55
  8
Layer_3
  10
13.106675
  20
16.753971
  0
VERTEX
  5
b56
  8
Layer_3
  10
13.023396
  20
16.775667
  0
VERTEX
  5
b57
  8
Layer_3
  10
12.93979
  20
16.796085
  0
VERTEX
  5
b58
  8
Layer_3
  10
12.855871
  20
16.81522
  0
VERTEX
  5
b59
  8
Layer_3
  10
12.771653
  20
16.833071
  0
VERTEX
  5
b5a
  8
Layer_3
  10
12.669468
  20
16.850742
  0
VERTEX
  5
b5b
  8
Layer_3
  10
12.566841
  20
16.865063
  0
VERTEX
  5
b5c
  8
Layer_3
  10
12.463856
  20
16.876024
  0
VERTEX
  5
b5d
  8
Layer_3
  10
12.360596
  20
16.883625
  0
VERTEX
  5
b5e
  8
Layer_3
  10
12.257143
  20
16.887859
  0
VERTEX
  5
b5f
  8
Layer_3
  10
12.153582
  20
16.888721
  0
VERTEX
  5
b60
  8
Layer_3
  10
12.049991
  20
16.886209
  0
VERTEX
  5
b61
  8
Layer_3
  10
11.946457
  20
16.880314
  0
VERTEX
  5
b62
  8
Layer_3
  10
11.842701
  20
16.871986
  0
VERTEX
  5
b63
  8
Layer_3
  10
11.739252
  20
16.860649
  0
VERTEX
  5
b64
  8
Layer_3
  10
11.636179
  20
16.84631
  0
VERTEX
  5
b65
  8
Layer_3
  10
11.533544
  20
16.828976
  0
VERTEX
  5
b66
  8
Layer_3
  10
11.476609
  20
16.817684
  0
VERTEX
  5
b67
  8
Layer_3
  10
11.420107
  20
16.804773
  0
VERTEX
  5
b68
  8
Layer_3
  10
11.36407
  20
16.790257
  0
VERTEX
  5
b69
  8
Layer_3
  10
11.308532
  20
16.774149
  0
VERTEX
  5
b6a
  8
Layer_3
  10
11.253524
  20
16.756468
  0
VERTEX
  5
b6b
  8
Layer_3
  10
11.199081
  20
16.737223
  0
VERTEX
  5
b6c
  8
Layer_3
  10
11.145233
  20
16.716431
  0
VERTEX
  5
b6d
  8
Layer_3
  10
11.092017
  20
16.694105
  0
VERTEX
  5
b6e
  8
Layer_3
  10
11.039464
  20
16.670261
  0
VERTEX
  5
b6f
  8
Layer_3
  10
10.987607
  20
16.644915
  0
VERTEX
  5
b70
  8
Layer_3
  10
10.936477
  20
16.618078
  0
VERTEX
  5
b71
  8
Layer_3
  10
10.886108
  20
16.589766
  0
VERTEX
  5
b72
  8
Layer_3
  10
10.836535
  20
16.559992
  0
VERTEX
  5
b73
  8
Layer_3
  10
10.787789
  20
16.52877
  0
VERTEX
  5
b74
  8
Layer_3
  10
10.739904
  20
16.496117
  0
VERTEX
  5
b75
  8
Layer_3
  10
10.692914
  20
16.462048
  0
VERTEX
  5
b76
  8
Layer_3
  10
10.665711
  20
16.440319
  0
VERTEX
  5
b77
  8
Layer_3
  10
10.639185
  20
16.417847
  0
VERTEX
  5
b78
  8
Layer_3
  10
10.613348
  20
16.39465
  0
VERTEX
  5
b79
  8
Layer_3
  10
10.588216
  20
16.370743
  0
VERTEX
  5
b7a
  8
Layer_3
  10
10.563801
  20
16.346144
  0
VERTEX
  5
b7b
  8
Layer_3
  10
10.540115
  20
16.320869
  0
VERTEX
  5
b7c
  8
Layer_3
  10
10.517177
  20
16.294937
  0
VERTEX
  5
b7d
  8
Layer_3
  10
10.494995
  20
16.268362
  0
VERTEX
  5
b7e
  8
Layer_3
  10
10.473585
  20
16.241159
  0
VERTEX
  5
b7f
  8
Layer_3
  10
10.45296
  20
16.21335
  0
VERTEX
  5
b80
  8
Layer_3
  10
10.433133
  20
16.184948
  0
VERTEX
  5
b81
  8
Layer_3
  10
10.41412
  20
16.155972
  0
VERTEX
  5
b82
  8
Layer_3
  10
10.395931
  20
16.126436
  0
VERTEX
  5
b83
  8
Layer_3
  10
10.378583
  20
16.096359
  0
VERTEX
  5
b84
  8
Layer_3
  10
10.362086
  20
16.065756
  0
VERTEX
  5
b85
  8
Layer_3
  10
10.346457
  20
16.034645
  0
VERTEX
  5
b86
  8
Layer_3
  10
10.325677
  20
15.986407
  0
VERTEX
  5
b87
  8
Layer_3
  10
10.307446
  20
15.93726
  0
VERTEX
  5
b88
  8
Layer_3
  10
10.291788
  20
15.887305
  0
VERTEX
  5
b89
  8
Layer_3
  10
10.278727
  20
15.836643
  0
VERTEX
  5
b8a
  8
Layer_3
  10
10.268286
  20
15.785378
  0
VERTEX
  5
b8b
  8
Layer_3
  10
10.260489
  20
15.73361
  0
VERTEX
  5
b8c
  8
Layer_3
  10
10.255356
  20
15.681443
  0
VERTEX
  5
b8d
  8
Layer_3
  10
10.252914
  20
15.628976
  0
VERTEX
  5
b8e
  8
Layer_3
  10
10.253846
  20
15.501863
  0
VERTEX
  5
b8f
  8
Layer_3
  10
10.257638
  20
15.374803
  0
VERTEX
  5
b90
  8
Layer_3
  10
10.259527
  20
15.373228
  0
VERTEX
  5
b91
  8
Layer_3
  10
10.722835
  20
15.373228
  0
VERTEX
  5
b92
  8
Layer_3
  10
10.739955
  20
15.372126
  0
VERTEX
  5
b93
  8
Layer_3
  10
10.756524
  20
15.368734
  0
VERTEX
  5
b94
  8
Layer_3
  10
10.772339
  20
15.363175
  0
VERTEX
  5
b95
  8
Layer_3
  10
10.7872
  20
15.355569
  0
VERTEX
  5
b96
  8
Layer_3
  10
10.800904
  20
15.346035
  0
VERTEX
  5
b97
  8
Layer_3
  10
10.813251
  20
15.334697
  0
VERTEX
  5
b98
  8
Layer_3
  10
10.824042
  20
15.321673
  0
VERTEX
  5
b99
  8
Layer_3
  10
10.833071
  20
15.307086
  0
VERTEX
  5
b9a
  8
Layer_3
  10
10.837686
  20
15.294509
  0
VERTEX
  5
b9b
  8
Layer_3
  10
10.84045
  20
15.281466
  0
VERTEX
  5
b9c
  8
Layer_3
  10
10.841336
  20
15.268162
  0
VERTEX
  5
b9d
  8
Layer_3
  10
10.840315
  20
15.254803
  0
VERTEX
  5
b9e
  8
Layer_3
  10
10.840315
  20
12.502362
  0
VERTEX
  5
b9f
  8
Layer_3
  10
10.839636
  20
12.48947
  0
VERTEX
  5
ba0
  8
Layer_3
  10
10.837701
  20
12.476953
  0
VERTEX
  5
ba1
  8
Layer_3
  10
10.834569
  20
12.464871
  0
VERTEX
  5
ba2
  8
Layer_3
  10
10.830309
  20
12.453293
  0
VERTEX
  5
ba3
  8
Layer_3
  10
10.824982
  20
12.442276
  0
VERTEX
  5
ba4
  8
Layer_3
  10
10.818648
  20
12.431889
  0
VERTEX
  5
ba5
  8
Layer_3
  10
10.811375
  20
12.42219
  0
VERTEX
  5
ba6
  8
Layer_3
  10
10.803224
  20
12.413243
  0
VERTEX
  5
ba7
  8
Layer_3
  10
10.794258
  20
12.405114
  0
VERTEX
  5
ba8
  8
Layer_3
  10
10.784542
  20
12.397866
  0
VERTEX
  5
ba9
  8
Layer_3
  10
10.774137
  20
12.39156
  0
VERTEX
  5
baa
  8
Layer_3
  10
10.76311
  20
12.386258
  0
VERTEX
  5
bab
  8
Layer_3
  10
10.751519
  20
12.382027
  0
VERTEX
  5
bac
  8
Layer_3
  10
10.739431
  20
12.378927
  0
VERTEX
  5
bad
  8
Layer_3
  10
10.72691
  20
12.377024
  0
VERTEX
  5
bae
  8
Layer_3
  10
10.714015
  20
12.376377
  0
VERTEX
  5
baf
  8
Layer_3
  10
10.269922
  20
12.376377
  0
VERTEX
  5
bb0
  8
Layer_3
  10
10.269327
  20
12.191642
  0
VERTEX
  5
bb1
  8
Layer_3
  10
10.266457
  20
12.006928
  0
VERTEX
  5
bb2
  8
Layer_3
  10
9.1370077
  20
12.006928
  0
VERTEX
  5
bb3
  8
Layer_3
  10
9.1370077
  20
9.4935427
  0
VERTEX
  5
bb4
  8
Layer_3
  10
9.0973225
  20
9.4478731
  0
SEQEND
  0
ENDSEC
  0
EOF
